%TF.GenerationSoftware,KiCad,Pcbnew,7.0.2*%
%TF.CreationDate,2023-10-04T16:53:15-06:00*%
%TF.ProjectId,igloo31,69676c6f-6f33-4312-9e6b-696361645f70,rev?*%
%TF.SameCoordinates,Original*%
%TF.FileFunction,Copper,L2,Bot*%
%TF.FilePolarity,Positive*%
%FSLAX46Y46*%
G04 Gerber Fmt 4.6, Leading zero omitted, Abs format (unit mm)*
G04 Created by KiCad (PCBNEW 7.0.2) date 2023-10-04 16:53:15*
%MOMM*%
%LPD*%
G01*
G04 APERTURE LIST*
%TA.AperFunction,ComponentPad*%
%ADD10C,1.500000*%
%TD*%
%TA.AperFunction,SMDPad,CuDef*%
%ADD11R,0.300000X2.000000*%
%TD*%
%TA.AperFunction,ViaPad*%
%ADD12C,0.700000*%
%TD*%
%TA.AperFunction,ViaPad*%
%ADD13C,0.500000*%
%TD*%
%TA.AperFunction,Conductor*%
%ADD14C,0.127000*%
%TD*%
G04 APERTURE END LIST*
D10*
%TO.P,J1,S2,SHIELD*%
%TO.N,GND*%
X7475000Y-1150000D03*
%TO.P,J1,S1,SHIELD*%
X-7475000Y-1150000D03*
D11*
%TO.P,J1,40,40*%
X-4750000Y-2100000D03*
%TO.P,J1,39,39*%
X-4750000Y2100000D03*
%TO.P,J1,38,38*%
%TO.N,Net-(J1-Pad38)*%
X-4250000Y-2100000D03*
%TO.P,J1,37,37*%
%TO.N,Net-(J1-Pad37)*%
X-4250000Y2100000D03*
%TO.P,J1,36,36*%
%TO.N,GND*%
X-3750000Y-2100000D03*
%TO.P,J1,35,35*%
X-3750000Y2100000D03*
%TO.P,J1,34,34*%
%TO.N,Net-(J1-Pad34)*%
X-3250000Y-2100000D03*
%TO.P,J1,33,33*%
%TO.N,Net-(J1-Pad33)*%
X-3250000Y2100000D03*
%TO.P,J1,32,32*%
%TO.N,GND*%
X-2750000Y-2100000D03*
%TO.P,J1,31,31*%
X-2750000Y2100000D03*
%TO.P,J1,30,30*%
%TO.N,Net-(J1-Pad30)*%
X-2250000Y-2100000D03*
%TO.P,J1,29,29*%
%TO.N,Net-(J1-Pad29)*%
X-2250000Y2100000D03*
%TO.P,J1,28,28*%
%TO.N,GND*%
X-1750000Y-2100000D03*
%TO.P,J1,27,27*%
X-1750000Y2100000D03*
%TO.P,J1,26,26*%
%TO.N,Net-(J1-Pad26)*%
X-1250000Y-2100000D03*
%TO.P,J1,25,25*%
%TO.N,Net-(J1-Pad25)*%
X-1250000Y2100000D03*
%TO.P,J1,24,24*%
%TO.N,GND*%
X-750000Y-2100000D03*
%TO.P,J1,23,23*%
X-750000Y2100000D03*
%TO.P,J1,22,22*%
%TO.N,Net-(J1-Pad22)*%
X-250000Y-2100000D03*
%TO.P,J1,21,21*%
%TO.N,Net-(J1-Pad21)*%
X-250000Y2100000D03*
%TO.P,J1,20,20*%
%TO.N,GND*%
X250000Y-2100000D03*
%TO.P,J1,19,19*%
X250000Y2100000D03*
%TO.P,J1,18,18*%
%TO.N,Net-(J1-Pad18)*%
X750000Y-2100000D03*
%TO.P,J1,17,17*%
%TO.N,Net-(J1-Pad17)*%
X750000Y2100000D03*
%TO.P,J1,16,16*%
%TO.N,GND*%
X1250000Y-2100000D03*
%TO.P,J1,15,15*%
X1250000Y2100000D03*
%TO.P,J1,14,14*%
%TO.N,Net-(J1-Pad14)*%
X1750000Y-2100000D03*
%TO.P,J1,13,13*%
%TO.N,Net-(J1-Pad13)*%
X1750000Y2100000D03*
%TO.P,J1,12,12*%
%TO.N,GND*%
X2250000Y-2100000D03*
%TO.P,J1,11,11*%
X2250000Y2100000D03*
%TO.P,J1,10,10*%
%TO.N,Net-(J1-Pad10)*%
X2750000Y-2100000D03*
%TO.P,J1,9,9*%
%TO.N,Net-(J1-Pad9)*%
X2750000Y2100000D03*
%TO.P,J1,8,8*%
%TO.N,GND*%
X3250000Y-2100000D03*
%TO.P,J1,7,7*%
X3250000Y2100000D03*
%TO.P,J1,6,6*%
%TO.N,Net-(J1-Pad6)*%
X3750000Y-2100000D03*
%TO.P,J1,5,5*%
%TO.N,Net-(J1-Pad5)*%
X3750000Y2100000D03*
%TO.P,J1,4,4*%
%TO.N,GND*%
X4250000Y-2100000D03*
%TO.P,J1,3,3*%
X4250000Y2100000D03*
%TO.P,J1,2,2*%
%TO.N,Net-(J1-Pad2)*%
X4750000Y-2100000D03*
%TO.P,J1,1,1*%
%TO.N,Net-(J1-Pad1)*%
X4750000Y2100000D03*
%TD*%
D12*
%TO.N,Net-(J1-Pad2)*%
X11000000Y5100000D03*
%TO.N,Net-(J1-Pad34)*%
X11000000Y-3957000D03*
%TO.N,Net-(J1-Pad38)*%
X11000000Y-5100000D03*
%TO.N,Net-(J1-Pad30)*%
X11000000Y-2814000D03*
%TO.N,Net-(J1-Pad26)*%
X11000000Y-1671000D03*
%TO.N,Net-(J1-Pad22)*%
X11000000Y-528000D03*
%TO.N,Net-(J1-Pad18)*%
X11000000Y615000D03*
%TO.N,Net-(J1-Pad10)*%
X11000000Y2901000D03*
%TO.N,Net-(J1-Pad6)*%
X11000000Y4044000D03*
%TO.N,Net-(J1-Pad14)*%
X11000000Y1758000D03*
%TO.N,Net-(J1-Pad1)*%
X-11000000Y5187000D03*
%TO.N,Net-(J1-Pad5)*%
X-11000000Y4044000D03*
%TO.N,Net-(J1-Pad9)*%
X-11000000Y2901000D03*
%TO.N,Net-(J1-Pad13)*%
X-11000000Y1758000D03*
%TO.N,Net-(J1-Pad17)*%
X-11000000Y615000D03*
%TO.N,Net-(J1-Pad21)*%
X-11000000Y-528000D03*
%TO.N,Net-(J1-Pad25)*%
X-11000000Y-1671000D03*
%TO.N,Net-(J1-Pad29)*%
X-11000000Y-2814000D03*
%TO.N,Net-(J1-Pad33)*%
X-11000000Y-3957000D03*
%TO.N,Net-(J1-Pad37)*%
X-11000000Y-5100000D03*
D13*
%TO.N,GND*%
X-3750000Y0D03*
X-5537254Y2137254D03*
%TO.N,Net-(J1-Pad2)*%
X4800000Y-400000D03*
%TD*%
D14*
%TO.N,GND*%
X4250000Y2100000D02*
X4250000Y-2100000D01*
X3250000Y-2100000D02*
X3250000Y2100000D01*
X2250000Y-2100000D02*
X2250000Y2100000D01*
%TO.N,Net-(J1-Pad6)*%
X10773246Y4044000D02*
X6929246Y200000D01*
X11000000Y4044000D02*
X10773246Y4044000D01*
X6134500Y-594746D02*
X6929246Y200000D01*
X6134500Y-3100000D02*
X6134500Y-594746D01*
X5250500Y-3984000D02*
X6134500Y-3100000D01*
X4121552Y-3984000D02*
X5250500Y-3984000D01*
X3750000Y-3612448D02*
X4121552Y-3984000D01*
X3750000Y-2100000D02*
X3750000Y-3612448D01*
%TO.N,Net-(J1-Pad10)*%
X2750000Y-4161000D02*
X2750000Y-2100000D01*
X5390660Y-4311000D02*
X2900000Y-4311000D01*
X7055194Y-136500D02*
X6461500Y-730194D01*
X8136500Y-136500D02*
X7055194Y-136500D01*
X11000000Y2727000D02*
X8136500Y-136500D01*
X6461500Y-3240160D02*
X5390660Y-4311000D01*
X6461500Y-730194D02*
X6461500Y-3240160D01*
X2900000Y-4311000D02*
X2750000Y-4161000D01*
X11000000Y2901000D02*
X11000000Y2727000D01*
%TO.N,Net-(J1-Pad18)*%
X750000Y-4515000D02*
X750000Y-2100000D01*
X11000000Y373444D02*
X5661556Y-4965000D01*
X5661556Y-4965000D02*
X1200000Y-4965000D01*
X11000000Y615000D02*
X11000000Y373444D01*
X1200000Y-4965000D02*
X750000Y-4515000D01*
%TO.N,Net-(J1-Pad14)*%
X2200000Y-4638000D02*
X1750000Y-4188000D01*
X5526108Y-4638000D02*
X2200000Y-4638000D01*
X1750000Y-4188000D02*
X1750000Y-2100000D01*
X10132054Y890054D02*
X10132054Y-32054D01*
X11000000Y1758000D02*
X10132054Y890054D01*
X10132054Y-32054D02*
X5526108Y-4638000D01*
%TO.N,Net-(J1-Pad22)*%
X10572000Y-528000D02*
X11000000Y-528000D01*
X9489004Y-1600000D02*
X9500000Y-1600000D01*
X9500000Y-1600000D02*
X10572000Y-528000D01*
X7752950Y-4016606D02*
X7752950Y-3336054D01*
X-108000Y-5292000D02*
X6477556Y-5292000D01*
X-250000Y-5150000D02*
X-108000Y-5292000D01*
X6477556Y-5292000D02*
X7752950Y-4016606D01*
X7752950Y-3336054D02*
X9489004Y-1600000D01*
X-250000Y-2100000D02*
X-250000Y-5150000D01*
%TO.N,Net-(J1-Pad26)*%
X9064452Y-2487000D02*
X8476700Y-3074752D01*
X10184000Y-2487000D02*
X9064452Y-2487000D01*
X11000000Y-1671000D02*
X10184000Y-2487000D01*
%TO.N,Net-(J1-Pad30)*%
X9199900Y-2814000D02*
X11000000Y-2814000D01*
X8406950Y-4287502D02*
X8406950Y-3606950D01*
X8406950Y-3606950D02*
X9199900Y-2814000D01*
X-1854000Y-5946000D02*
X6748452Y-5946000D01*
X-2250000Y-5550000D02*
X-1854000Y-5946000D01*
X6748452Y-5946000D02*
X8406950Y-4287502D01*
X-2250000Y-2100000D02*
X-2250000Y-5550000D01*
%TO.N,Net-(J1-Pad34)*%
X10940300Y-4016700D02*
X11000000Y-3957000D01*
X9140200Y-4016700D02*
X10940300Y-4016700D01*
%TO.N,Net-(J1-Pad38)*%
X8840300Y-5159700D02*
X10940300Y-5159700D01*
X7400000Y-6600000D02*
X8840300Y-5159700D01*
X-3000000Y-6600000D02*
X7400000Y-6600000D01*
X-4250000Y-5350000D02*
X-3000000Y-6600000D01*
X10940300Y-5159700D02*
X11000000Y-5100000D01*
X-4250000Y-2100000D02*
X-4250000Y-5350000D01*
%TO.N,Net-(J1-Pad37)*%
X-10960000Y-5140000D02*
X-11000000Y-5100000D01*
X-9091904Y-5140000D02*
X-10960000Y-5140000D01*
%TO.N,Net-(J1-Pad33)*%
X-9190000Y-3957000D02*
X-9150000Y-3997000D01*
X-11000000Y-3957000D02*
X-9190000Y-3957000D01*
%TO.N,Net-(J1-Pad29)*%
X-10960000Y-2854000D02*
X-11000000Y-2814000D01*
X-7730800Y-2854000D02*
X-10960000Y-2854000D01*
X-6461500Y-1584700D02*
X-7730800Y-2854000D01*
X-6461500Y-730194D02*
X-6461500Y-1584700D01*
X-7365500Y1496948D02*
X-7365500Y173806D01*
X-4935448Y3927000D02*
X-7365500Y1496948D01*
X-2927000Y3927000D02*
X-4935448Y3927000D01*
X-2250000Y2100000D02*
X-2250000Y3250000D01*
X-2250000Y3250000D02*
X-2927000Y3927000D01*
X-7365500Y173806D02*
X-6461500Y-730194D01*
%TO.N,Net-(J1-Pad25)*%
X-9110000Y-1671000D02*
X-8969500Y-1530500D01*
X-8486500Y-1047500D02*
X-8969500Y-1530500D01*
X-11000000Y-1671000D02*
X-9110000Y-1671000D01*
%TO.N,Net-(J1-Pad21)*%
X-9314669Y-528000D02*
X-9150000Y-363331D01*
X-11000000Y-528000D02*
X-9314669Y-528000D01*
%TO.N,Net-(J1-Pad17)*%
X-10960000Y575000D02*
X-11000000Y615000D01*
X-9150000Y575000D02*
X-10960000Y575000D01*
%TO.N,Net-(J1-Pad13)*%
X-9314669Y1758000D02*
X-9150000Y1922669D01*
X-11000000Y1758000D02*
X-9314669Y1758000D01*
%TO.N,Net-(J1-Pad9)*%
X-10960000Y2861000D02*
X-11000000Y2901000D01*
X-9150000Y2861000D02*
X-10960000Y2861000D01*
%TO.N,Net-(J1-Pad5)*%
X-10960000Y4004000D02*
X-11000000Y4044000D01*
X-9150000Y4004000D02*
X-10960000Y4004000D01*
%TO.N,Net-(J1-Pad1)*%
X-10960000Y5147000D02*
X-11000000Y5187000D01*
X-9150000Y5147000D02*
X-10960000Y5147000D01*
%TO.N,GND*%
X-3750000Y2100000D02*
X-3750000Y0D01*
X-3750000Y0D02*
X-3750000Y-2100000D01*
X2250000Y550000D02*
X2250000Y2100000D01*
X2727000Y400000D02*
X2400000Y400000D01*
X3250000Y923000D02*
X2727000Y400000D01*
X3250000Y2100000D02*
X3250000Y923000D01*
X2400000Y400000D02*
X2250000Y550000D01*
X3336500Y836500D02*
X3250000Y923000D01*
X4250000Y2100000D02*
X4250000Y923000D01*
X4250000Y923000D02*
X4163500Y836500D01*
X4163500Y836500D02*
X3336500Y836500D01*
X-5500000Y2100000D02*
X-5537254Y2137254D01*
X-4750000Y2100000D02*
X-5500000Y2100000D01*
X-2750000Y-2100000D02*
X-2750000Y2100000D01*
X-1750000Y2100000D02*
X-1750000Y-2100000D01*
X-750000Y-2100000D02*
X-750000Y2100000D01*
X250000Y2100000D02*
X250000Y-2100000D01*
X1250000Y-2100000D02*
X1250000Y2100000D01*
X4250000Y-2100000D02*
X4250000Y-3650000D01*
X3250000Y-3650000D02*
X3400000Y-3800000D01*
X3250000Y-2100000D02*
X3250000Y-3650000D01*
X2250000Y-3650000D02*
X2400000Y-3800000D01*
X2250000Y-2100000D02*
X2250000Y-3650000D01*
%TO.N,Net-(J1-Pad2)*%
X4750000Y-450000D02*
X4800000Y-400000D01*
X4750000Y-2100000D02*
X4750000Y-450000D01*
%TO.N,Net-(J1-Pad26)*%
X-1250000Y-4969000D02*
X-1250000Y-2100000D01*
X-600000Y-5619000D02*
X-1250000Y-4969000D01*
X6613004Y-5619000D02*
X-600000Y-5619000D01*
X8079950Y-4152054D02*
X6613004Y-5619000D01*
X8476700Y-3074752D02*
X8079950Y-3471502D01*
X8079950Y-3471502D02*
X8079950Y-4152054D01*
%TO.N,Net-(J1-Pad34)*%
X6883900Y-6273000D02*
X9140200Y-4016700D01*
X-2600000Y-6273000D02*
X6883900Y-6273000D01*
X-3250000Y-5623000D02*
X-2600000Y-6273000D01*
X-3250000Y-2100000D02*
X-3250000Y-5623000D01*
%TO.N,Net-(J1-Pad1)*%
X-8081000Y6216000D02*
X-9150000Y5147000D01*
X3060248Y6216000D02*
X-8081000Y6216000D01*
X4750000Y4526248D02*
X3060248Y6216000D01*
X4750000Y2100000D02*
X4750000Y4526248D01*
%TO.N,Net-(J1-Pad37)*%
X-4250000Y750000D02*
X-4250000Y2100000D01*
X-5800000Y-800000D02*
X-4250000Y750000D01*
X-9091904Y-5140000D02*
X-5800000Y-1848096D01*
X-5800000Y-1848096D02*
X-5800000Y-800000D01*
%TO.N,Net-(J1-Pad5)*%
X2924800Y5889000D02*
X3750000Y5063800D01*
X-9150000Y4004000D02*
X-7265000Y5889000D01*
X-7265000Y5889000D02*
X2924800Y5889000D01*
X3750000Y5063800D02*
X3750000Y2100000D01*
%TO.N,Net-(J1-Pad9)*%
X2750000Y4800200D02*
X2750000Y2100000D01*
X-6449000Y5562000D02*
X1988200Y5562000D01*
X1988200Y5562000D02*
X2750000Y4800200D01*
X-9150000Y2861000D02*
X-6449000Y5562000D01*
%TO.N,Net-(J1-Pad17)*%
X-797352Y4908000D02*
X750000Y3360648D01*
X-5702221Y4908000D02*
X-797352Y4908000D01*
X750000Y3360648D02*
X750000Y2100000D01*
X-7146610Y3463610D02*
X-5702221Y4908000D01*
%TO.N,Net-(J1-Pad13)*%
X-5837669Y5235000D02*
X921400Y5235000D01*
X1750000Y4406400D02*
X1750000Y2100000D01*
X-9150000Y1922669D02*
X-5837669Y5235000D01*
X921400Y5235000D02*
X1750000Y4406400D01*
%TO.N,Net-(J1-Pad21)*%
X-250000Y3898200D02*
X-250000Y2100000D01*
X-8159500Y1988273D02*
X-5566773Y4581000D01*
X-9150000Y-363331D02*
X-8159500Y627169D01*
X-8159500Y627169D02*
X-8159500Y1988273D01*
X-5566773Y4581000D02*
X-932800Y4581000D01*
X-932800Y4581000D02*
X-250000Y3898200D01*
%TO.N,Net-(J1-Pad25)*%
X-7832500Y491721D02*
X-8486500Y-162279D01*
X-7832500Y1852825D02*
X-7832500Y491721D01*
X-1999600Y4254000D02*
X-5431325Y4254000D01*
X-8486500Y-162279D02*
X-8486500Y-1047500D01*
X-1250000Y3504400D02*
X-1999600Y4254000D01*
X-5431325Y4254000D02*
X-7832500Y1852825D01*
X-1250000Y2100000D02*
X-1250000Y3504400D01*
%TO.N,Net-(J1-Pad33)*%
X-8411352Y-3997000D02*
X-9150000Y-3997000D01*
X-6134500Y-1720148D02*
X-8411352Y-3997000D01*
X-6134500Y-265500D02*
X-6134500Y-1720148D01*
X-7038500Y419839D02*
X-6418661Y-200000D01*
X-7038500Y1361500D02*
X-7038500Y419839D01*
X-4800000Y3600000D02*
X-7038500Y1361500D01*
X-3250000Y3277000D02*
X-3573000Y3600000D01*
X-3250000Y2100000D02*
X-3250000Y3277000D01*
X-6418661Y-200000D02*
X-6200000Y-200000D01*
X-3573000Y3600000D02*
X-4800000Y3600000D01*
X-6200000Y-200000D02*
X-6134500Y-265500D01*
%TO.N,Net-(J1-Pad17)*%
X-8486500Y2123721D02*
X-7146610Y3463610D01*
X-8486500Y1238500D02*
X-8486500Y2123721D01*
X-9150000Y575000D02*
X-8486500Y1238500D01*
X-7146610Y3463610D02*
X-7289800Y3320421D01*
%TD*%
%TA.AperFunction,Conductor*%
%TO.N,GND*%
G36*
X-7934493Y-1359844D02*
G01*
X-7856761Y-1480798D01*
X-7748100Y-1574952D01*
X-7617315Y-1634680D01*
X-7602587Y-1636797D01*
X-8166986Y-2201196D01*
X-8166986Y-2201198D01*
X-8106405Y-2243619D01*
X-7985916Y-2299805D01*
X-7932631Y-2346723D01*
X-7913170Y-2415000D01*
X-7933712Y-2482960D01*
X-7987735Y-2529025D01*
X-8039166Y-2540000D01*
X-10391197Y-2540000D01*
X-10459318Y-2519998D01*
X-10491159Y-2490704D01*
X-10571716Y-2385719D01*
X-10628090Y-2342462D01*
X-10669957Y-2285123D01*
X-10674178Y-2214252D01*
X-10639413Y-2152350D01*
X-10628090Y-2142538D01*
X-10591699Y-2114614D01*
X-10571718Y-2099282D01*
X-10561750Y-2086292D01*
X-10521852Y-2034296D01*
X-10464514Y-1992429D01*
X-10421890Y-1985000D01*
X-9129219Y-1985000D01*
X-9118239Y-1985478D01*
X-9082211Y-1988631D01*
X-9059667Y-1982589D01*
X-9047285Y-1979272D01*
X-9036550Y-1976892D01*
X-9000949Y-1970615D01*
X-9000946Y-1970613D01*
X-8999429Y-1970346D01*
X-8976516Y-1960856D01*
X-8966601Y-1953913D01*
X-8945630Y-1939229D01*
X-8936377Y-1933334D01*
X-8905051Y-1915249D01*
X-8881802Y-1887542D01*
X-8874375Y-1879438D01*
X-8760347Y-1765410D01*
X-8698035Y-1731384D01*
X-8627220Y-1736449D01*
X-8570384Y-1778996D01*
X-8568040Y-1782232D01*
X-8526197Y-1841986D01*
X-8526196Y-1841986D01*
X-7959360Y-1275150D01*
X-7934493Y-1359844D01*
G37*
%TD.AperFunction*%
%TA.AperFunction,Conductor*%
G36*
X-5489967Y-2086292D02*
G01*
X-5433131Y-2128839D01*
X-5408320Y-2195359D01*
X-5407999Y-2204348D01*
X-5407999Y-3145222D01*
X-5407640Y-3151936D01*
X-5401494Y-3209093D01*
X-5350445Y-3345962D01*
X-5262904Y-3462904D01*
X-5145962Y-3550445D01*
X-5009093Y-3601494D01*
X-4951936Y-3607640D01*
X-4945223Y-3608000D01*
X-4900000Y-3608000D01*
X-4899999Y-3149651D01*
X-4879997Y-3081530D01*
X-4826341Y-3035037D01*
X-4756067Y-3024934D01*
X-4691486Y-3054427D01*
X-4653103Y-3114153D01*
X-4650426Y-3125043D01*
X-4635966Y-3197740D01*
X-4621234Y-3219787D01*
X-4600020Y-3287539D01*
X-4600000Y-3289788D01*
X-4600000Y-3608753D01*
X-4566879Y-3669408D01*
X-4564000Y-3696191D01*
X-4564000Y-5330780D01*
X-4564479Y-5341761D01*
X-4567631Y-5377789D01*
X-4559472Y-5408234D01*
X-4558272Y-5412713D01*
X-4555896Y-5423423D01*
X-4549615Y-5459051D01*
X-4549613Y-5459053D01*
X-4549345Y-5460577D01*
X-4539857Y-5483481D01*
X-4538970Y-5484747D01*
X-4538970Y-5484749D01*
X-4525982Y-5503297D01*
X-4518236Y-5514359D01*
X-4512332Y-5523625D01*
X-4494249Y-5554949D01*
X-4466522Y-5578213D01*
X-4458452Y-5585609D01*
X-3235609Y-6808452D01*
X-3228213Y-6816522D01*
X-3204949Y-6844249D01*
X-3173633Y-6862328D01*
X-3164364Y-6868232D01*
X-3134749Y-6888971D01*
X-3134745Y-6888971D01*
X-3133480Y-6889858D01*
X-3110579Y-6899345D01*
X-3109052Y-6899614D01*
X-3109051Y-6899615D01*
X-3073436Y-6905893D01*
X-3062729Y-6908267D01*
X-3027789Y-6917631D01*
X-2991760Y-6914478D01*
X-2980781Y-6914000D01*
X7380781Y-6914000D01*
X7391760Y-6914478D01*
X7427789Y-6917631D01*
X7462714Y-6908271D01*
X7473423Y-6905896D01*
X7509051Y-6899615D01*
X7509053Y-6899613D01*
X7510577Y-6899345D01*
X7533481Y-6889857D01*
X7534747Y-6888970D01*
X7534749Y-6888970D01*
X7564358Y-6868236D01*
X7573625Y-6862332D01*
X7604949Y-6844249D01*
X7628213Y-6816522D01*
X7635598Y-6808463D01*
X8933460Y-5510602D01*
X8995770Y-5476579D01*
X9022553Y-5473700D01*
X10467700Y-5473700D01*
X10535821Y-5493702D01*
X10567659Y-5522992D01*
X10571718Y-5528282D01*
X10571720Y-5528284D01*
X10697156Y-5624535D01*
X10736888Y-5640992D01*
X10783318Y-5660224D01*
X10838599Y-5704772D01*
X10861020Y-5772135D01*
X10843462Y-5840927D01*
X10831675Y-5857561D01*
X10759401Y-5943809D01*
X10754529Y-5949290D01*
X10576219Y-6138525D01*
X10390950Y-6330613D01*
X10386140Y-6335340D01*
X10193624Y-6514653D01*
X9997225Y-6691690D01*
X9992555Y-6695696D01*
X9788484Y-6862310D01*
X9786422Y-6863958D01*
X9580037Y-7025375D01*
X9575570Y-7028712D01*
X9360444Y-7182125D01*
X9357792Y-7183966D01*
X9141242Y-7330174D01*
X9137053Y-7332883D01*
X8912025Y-7472176D01*
X8908752Y-7474134D01*
X8682825Y-7604694D01*
X8678976Y-7606829D01*
X8445249Y-7731216D01*
X8441328Y-7733216D01*
X8206831Y-7847689D01*
X8203378Y-7849310D01*
X7962151Y-7958153D01*
X7957565Y-7960114D01*
X7715379Y-8058048D01*
X7712371Y-8059220D01*
X7464914Y-8151981D01*
X7459652Y-8153822D01*
X7210489Y-8234847D01*
X7207969Y-8235637D01*
X6955770Y-8311842D01*
X6949830Y-8313479D01*
X6693312Y-8377488D01*
X6437015Y-8437020D01*
X6430412Y-8438368D01*
X6167672Y-8484733D01*
X5911034Y-8526945D01*
X5903769Y-8527924D01*
X5631999Y-8556510D01*
X5380166Y-8581222D01*
X5372263Y-8581747D01*
X5065181Y-8592479D01*
X4851985Y-8599433D01*
X4847878Y-8599500D01*
X-4847946Y-8599500D01*
X-4852054Y-8599433D01*
X-5064324Y-8592509D01*
X-5372294Y-8581745D01*
X-5380197Y-8581220D01*
X-5631707Y-8556541D01*
X-5903806Y-8527920D01*
X-5911073Y-8526940D01*
X-6167497Y-8484764D01*
X-6430445Y-8438363D01*
X-6437053Y-8437014D01*
X-6693196Y-8377517D01*
X-6949891Y-8313464D01*
X-6955823Y-8311828D01*
X-7207882Y-8235665D01*
X-7210402Y-8234875D01*
X-7459693Y-8153809D01*
X-7464955Y-8151968D01*
X-7712294Y-8059251D01*
X-7715302Y-8058079D01*
X-7957618Y-7960093D01*
X-7962204Y-7958132D01*
X-8203312Y-7849343D01*
X-8206766Y-7847722D01*
X-8441384Y-7733189D01*
X-8445304Y-7731189D01*
X-8678930Y-7606856D01*
X-8682779Y-7604721D01*
X-8908798Y-7474107D01*
X-8912071Y-7472149D01*
X-9137020Y-7332905D01*
X-9141209Y-7330196D01*
X-9357857Y-7183921D01*
X-9360509Y-7182080D01*
X-9575523Y-7028747D01*
X-9579989Y-7025411D01*
X-9786502Y-6863896D01*
X-9788565Y-6862247D01*
X-9992528Y-6695721D01*
X-9997204Y-6691709D01*
X-10193706Y-6514578D01*
X-10386123Y-6335357D01*
X-10390930Y-6330633D01*
X-10576320Y-6138420D01*
X-10754514Y-5949308D01*
X-10759384Y-5943828D01*
X-10831674Y-5857558D01*
X-10860095Y-5792498D01*
X-10848830Y-5722401D01*
X-10801456Y-5669522D01*
X-10783315Y-5660223D01*
X-10697157Y-5624536D01*
X-10600065Y-5550033D01*
X-10571718Y-5528282D01*
X-10552545Y-5503296D01*
X-10495209Y-5461429D01*
X-10452584Y-5454000D01*
X-9111123Y-5454000D01*
X-9100143Y-5454478D01*
X-9064115Y-5457631D01*
X-9041571Y-5451589D01*
X-9029189Y-5448272D01*
X-9018454Y-5445892D01*
X-8982853Y-5439615D01*
X-8982850Y-5439613D01*
X-8981333Y-5439346D01*
X-8958420Y-5429856D01*
X-8933938Y-5412713D01*
X-8927534Y-5408229D01*
X-8918281Y-5402334D01*
X-8886955Y-5384249D01*
X-8873106Y-5367745D01*
X-8863706Y-5356542D01*
X-8856279Y-5348438D01*
X-5623094Y-2115253D01*
X-5560782Y-2081227D01*
X-5489967Y-2086292D01*
G37*
%TD.AperFunction*%
%TA.AperFunction,Conductor*%
G36*
X2334198Y-3160132D02*
G01*
X2354766Y-3183868D01*
X2364033Y-3197738D01*
X2364034Y-3197740D01*
X2378766Y-3219789D01*
X2399980Y-3287540D01*
X2400000Y-3289788D01*
X2400000Y-3608752D01*
X2433120Y-3669405D01*
X2436000Y-3696190D01*
X2436000Y-4125747D01*
X2415998Y-4193868D01*
X2362342Y-4240361D01*
X2292068Y-4250465D01*
X2227488Y-4220971D01*
X2220905Y-4214842D01*
X2100905Y-4094842D01*
X2066879Y-4032530D01*
X2064000Y-4005747D01*
X2064000Y-3696190D01*
X2084002Y-3628069D01*
X2100000Y-3608217D01*
X2100000Y-3289788D01*
X2120002Y-3221667D01*
X2121187Y-3219858D01*
X2135966Y-3197740D01*
X2135966Y-3197738D01*
X2145234Y-3183868D01*
X2199711Y-3138340D01*
X2270154Y-3129491D01*
X2334198Y-3160132D01*
G37*
%TD.AperFunction*%
%TA.AperFunction,Conductor*%
G36*
X3334198Y-3160132D02*
G01*
X3354766Y-3183868D01*
X3364033Y-3197738D01*
X3364034Y-3197740D01*
X3378766Y-3219789D01*
X3399980Y-3287540D01*
X3400000Y-3289788D01*
X3400000Y-3608001D01*
X3408544Y-3616545D01*
X3441157Y-3673035D01*
X3441726Y-3675159D01*
X3444103Y-3685882D01*
X3450651Y-3723014D01*
X3460146Y-3745935D01*
X3481762Y-3776806D01*
X3487664Y-3786069D01*
X3500326Y-3808001D01*
X3517064Y-3876995D01*
X3493844Y-3944087D01*
X3438037Y-3987974D01*
X3391207Y-3997000D01*
X3190000Y-3997000D01*
X3121879Y-3976998D01*
X3075386Y-3923342D01*
X3064000Y-3871000D01*
X3064000Y-3696191D01*
X3084002Y-3628070D01*
X3100000Y-3608218D01*
X3100000Y-3289788D01*
X3120002Y-3221667D01*
X3121187Y-3219858D01*
X3135966Y-3197740D01*
X3135966Y-3197738D01*
X3145234Y-3183868D01*
X3199711Y-3138340D01*
X3270154Y-3129491D01*
X3334198Y-3160132D01*
G37*
%TD.AperFunction*%
%TA.AperFunction,Conductor*%
G36*
X4334197Y1039869D02*
G01*
X4354766Y1016131D01*
X4378766Y980211D01*
X4399980Y912458D01*
X4400000Y910211D01*
X4400000Y592000D01*
X4445223Y592000D01*
X4451936Y592359D01*
X4509093Y598505D01*
X4645962Y649554D01*
X4762903Y737094D01*
X4805024Y793362D01*
X4861860Y835909D01*
X4932675Y840975D01*
X4994988Y806950D01*
X5029013Y744638D01*
X5030440Y736934D01*
X5050769Y604229D01*
X5119676Y418176D01*
X5224617Y249812D01*
X5303954Y166350D01*
X5305824Y162707D01*
X5313268Y156552D01*
X5361309Y106013D01*
X5524144Y-7323D01*
X5524145Y-7323D01*
X5524146Y-7324D01*
X5706465Y-85563D01*
X5886394Y-122539D01*
X5949094Y-155844D01*
X5983835Y-217760D01*
X5979586Y-288630D01*
X5950126Y-335055D01*
X5926057Y-359124D01*
X5917956Y-366549D01*
X5890251Y-389797D01*
X5872169Y-421116D01*
X5866264Y-430385D01*
X5844645Y-461259D01*
X5835151Y-484179D01*
X5828607Y-521293D01*
X5826229Y-532020D01*
X5816868Y-566955D01*
X5820020Y-602986D01*
X5820499Y-613965D01*
X5820500Y-2917747D01*
X5800498Y-2985868D01*
X5783595Y-3006842D01*
X5157342Y-3633095D01*
X5095030Y-3667121D01*
X5068247Y-3670000D01*
X4859590Y-3670000D01*
X4791469Y-3649998D01*
X4744976Y-3596342D01*
X4734872Y-3526068D01*
X4758722Y-3468491D01*
X4809252Y-3400991D01*
X4866088Y-3358444D01*
X4910120Y-3350500D01*
X4924673Y-3350500D01*
X4924674Y-3350500D01*
X4997740Y-3335966D01*
X5080601Y-3280601D01*
X5135966Y-3197740D01*
X5150500Y-3124674D01*
X5150500Y-1075326D01*
X5135966Y-1002260D01*
X5102879Y-952742D01*
X5081666Y-884993D01*
X5100449Y-816526D01*
X5120080Y-796542D01*
X5119264Y-795835D01*
X5148509Y-762084D01*
X5225377Y-673373D01*
X5285165Y-542457D01*
X5305647Y-400000D01*
X5285165Y-257543D01*
X5225377Y-126627D01*
X5164579Y-56462D01*
X5131130Y-17859D01*
X5131129Y-17858D01*
X5131128Y-17857D01*
X5010053Y59953D01*
X4880445Y98009D01*
X4871962Y100500D01*
X4871961Y100500D01*
X4728039Y100500D01*
X4728038Y100500D01*
X4719555Y98009D01*
X4589947Y59953D01*
X4568088Y45905D01*
X4468873Y-17855D01*
X4374622Y-126628D01*
X4314834Y-257543D01*
X4294352Y-399997D01*
X4305354Y-476514D01*
X4295250Y-546787D01*
X4293277Y-549063D01*
X4308512Y-556021D01*
X4340612Y-598901D01*
X4364517Y-651245D01*
X4382149Y-689852D01*
X4380036Y-690816D01*
X4398716Y-731715D01*
X4400000Y-749654D01*
X4400000Y-910211D01*
X4379998Y-978332D01*
X4378766Y-980211D01*
X4354766Y-1016131D01*
X4300290Y-1061660D01*
X4229847Y-1070509D01*
X4165803Y-1039869D01*
X4145234Y-1016131D01*
X4121234Y-980211D01*
X4100020Y-912458D01*
X4100000Y-910211D01*
X4100000Y-651245D01*
X4114726Y-601092D01*
X4112515Y-600443D01*
X4102039Y-592000D01*
X4054777Y-592000D01*
X4048063Y-592359D01*
X3990906Y-598505D01*
X3854037Y-649554D01*
X3825508Y-670911D01*
X3758988Y-695721D01*
X3689614Y-680629D01*
X3674492Y-670911D01*
X3645962Y-649554D01*
X3509093Y-598505D01*
X3451936Y-592359D01*
X3445223Y-592000D01*
X3400000Y-592000D01*
X3400000Y-910211D01*
X3379998Y-978332D01*
X3378766Y-980211D01*
X3354766Y-1016131D01*
X3300290Y-1061660D01*
X3229847Y-1070509D01*
X3165803Y-1039869D01*
X3145234Y-1016131D01*
X3121234Y-980211D01*
X3100020Y-912458D01*
X3100000Y-910211D01*
X3100000Y-592000D01*
X3054777Y-592000D01*
X3048063Y-592359D01*
X2990906Y-598505D01*
X2854037Y-649554D01*
X2825508Y-670911D01*
X2758988Y-695721D01*
X2689614Y-680629D01*
X2674492Y-670911D01*
X2645962Y-649554D01*
X2509093Y-598505D01*
X2451936Y-592359D01*
X2445223Y-592000D01*
X2400000Y-592000D01*
X2400000Y-910211D01*
X2379998Y-978332D01*
X2378766Y-980211D01*
X2354766Y-1016131D01*
X2300290Y-1061660D01*
X2229847Y-1070509D01*
X2165803Y-1039869D01*
X2145234Y-1016131D01*
X2121234Y-980211D01*
X2100020Y-912458D01*
X2100000Y-910211D01*
X2100000Y-592000D01*
X2054777Y-592000D01*
X2048063Y-592359D01*
X1990906Y-598505D01*
X1854037Y-649554D01*
X1825508Y-670911D01*
X1758988Y-695721D01*
X1689614Y-680629D01*
X1674492Y-670911D01*
X1645962Y-649554D01*
X1509093Y-598505D01*
X1451936Y-592359D01*
X1445223Y-592000D01*
X1400000Y-592000D01*
X1400000Y-910211D01*
X1379998Y-978332D01*
X1378766Y-980211D01*
X1354766Y-1016131D01*
X1300290Y-1061660D01*
X1229847Y-1070509D01*
X1165803Y-1039869D01*
X1145234Y-1016131D01*
X1121234Y-980211D01*
X1100020Y-912458D01*
X1100000Y-910211D01*
X1100000Y-592000D01*
X1054777Y-592000D01*
X1048063Y-592359D01*
X990906Y-598505D01*
X854037Y-649554D01*
X825508Y-670911D01*
X758988Y-695721D01*
X689614Y-680629D01*
X674492Y-670911D01*
X645962Y-649554D01*
X509093Y-598505D01*
X451936Y-592359D01*
X445223Y-592000D01*
X400000Y-592000D01*
X400000Y-910211D01*
X379998Y-978332D01*
X378766Y-980211D01*
X354766Y-1016131D01*
X300290Y-1061660D01*
X229847Y-1070509D01*
X165803Y-1039869D01*
X145234Y-1016131D01*
X121234Y-980211D01*
X100020Y-912458D01*
X100000Y-910211D01*
X100000Y-592000D01*
X54777Y-592000D01*
X48063Y-592359D01*
X-9093Y-598505D01*
X-145960Y-649553D01*
X-174489Y-670910D01*
X-241010Y-695721D01*
X-310384Y-680630D01*
X-325506Y-670911D01*
X-354034Y-649555D01*
X-490906Y-598505D01*
X-548063Y-592359D01*
X-554777Y-592000D01*
X-600000Y-592000D01*
X-600000Y-910211D01*
X-620002Y-978332D01*
X-621234Y-980211D01*
X-645234Y-1016131D01*
X-699710Y-1061660D01*
X-770153Y-1070509D01*
X-834197Y-1039869D01*
X-854766Y-1016131D01*
X-878766Y-980211D01*
X-899980Y-912458D01*
X-900000Y-910211D01*
X-900000Y-592000D01*
X-945223Y-592000D01*
X-951936Y-592359D01*
X-1009093Y-598505D01*
X-1145962Y-649554D01*
X-1174492Y-670911D01*
X-1241012Y-695721D01*
X-1310386Y-680629D01*
X-1325508Y-670911D01*
X-1354037Y-649554D01*
X-1490906Y-598505D01*
X-1548063Y-592359D01*
X-1554777Y-592000D01*
X-1600000Y-592000D01*
X-1600000Y-910211D01*
X-1620002Y-978332D01*
X-1621234Y-980211D01*
X-1645234Y-1016131D01*
X-1699710Y-1061660D01*
X-1770153Y-1070509D01*
X-1834197Y-1039869D01*
X-1854766Y-1016131D01*
X-1878766Y-980211D01*
X-1899980Y-912458D01*
X-1900000Y-910211D01*
X-1900000Y-592000D01*
X-1945223Y-592000D01*
X-1951936Y-592359D01*
X-2009093Y-598505D01*
X-2145962Y-649554D01*
X-2174492Y-670911D01*
X-2241012Y-695721D01*
X-2310386Y-680629D01*
X-2325508Y-670911D01*
X-2354037Y-649554D01*
X-2490906Y-598505D01*
X-2548063Y-592359D01*
X-2554777Y-592000D01*
X-2600000Y-592000D01*
X-2600000Y-910211D01*
X-2620002Y-978332D01*
X-2621234Y-980211D01*
X-2645234Y-1016131D01*
X-2699710Y-1061660D01*
X-2770153Y-1070509D01*
X-2834197Y-1039869D01*
X-2854766Y-1016131D01*
X-2878766Y-980211D01*
X-2899980Y-912458D01*
X-2900000Y-910211D01*
X-2900000Y-592000D01*
X-2945223Y-592000D01*
X-2951936Y-592359D01*
X-3009093Y-598505D01*
X-3145962Y-649554D01*
X-3174492Y-670911D01*
X-3241012Y-695721D01*
X-3310386Y-680629D01*
X-3325508Y-670911D01*
X-3354037Y-649554D01*
X-3490906Y-598505D01*
X-3548063Y-592359D01*
X-3554777Y-592000D01*
X-3600000Y-592000D01*
X-3600000Y-910211D01*
X-3620002Y-978332D01*
X-3621234Y-980211D01*
X-3645234Y-1016131D01*
X-3699710Y-1061660D01*
X-3770153Y-1070509D01*
X-3834197Y-1039869D01*
X-3854766Y-1016131D01*
X-3878766Y-980211D01*
X-3899980Y-912458D01*
X-3900000Y-910211D01*
X-3900000Y-592000D01*
X-3945223Y-592000D01*
X-3951936Y-592359D01*
X-4009093Y-598505D01*
X-4145962Y-649554D01*
X-4174492Y-670911D01*
X-4241012Y-695721D01*
X-4310386Y-680629D01*
X-4325508Y-670911D01*
X-4354037Y-649554D01*
X-4490906Y-598505D01*
X-4548063Y-592359D01*
X-4554777Y-592000D01*
X-4600000Y-592000D01*
X-4600000Y-910211D01*
X-4620002Y-978332D01*
X-4621234Y-980211D01*
X-4635966Y-1002260D01*
X-4649542Y-1070509D01*
X-4650421Y-1074930D01*
X-4683329Y-1137840D01*
X-4745024Y-1172971D01*
X-4815919Y-1169170D01*
X-4873505Y-1127645D01*
X-4899499Y-1061578D01*
X-4900000Y-1050348D01*
X-4900000Y-591999D01*
X-4934873Y-557126D01*
X-4968898Y-494813D01*
X-4963832Y-423998D01*
X-4934872Y-378935D01*
X-4753404Y-197468D01*
X-4041557Y514379D01*
X-4033456Y521803D01*
X-3988734Y559331D01*
X-3986278Y556404D01*
X-3963640Y577991D01*
X-3905899Y592000D01*
X-3900000Y592000D01*
X-3900000Y910211D01*
X-3879998Y978332D01*
X-3878766Y980211D01*
X-3854766Y1016131D01*
X-3800290Y1061660D01*
X-3729847Y1070509D01*
X-3665803Y1039869D01*
X-3645234Y1016131D01*
X-3621234Y980211D01*
X-3600020Y912458D01*
X-3600000Y910211D01*
X-3600000Y592000D01*
X-3554777Y592000D01*
X-3548063Y592359D01*
X-3490906Y598505D01*
X-3354037Y649554D01*
X-3325508Y670911D01*
X-3258988Y695721D01*
X-3189614Y680629D01*
X-3174492Y670911D01*
X-3145962Y649554D01*
X-3009093Y598505D01*
X-2951936Y592359D01*
X-2945223Y592000D01*
X-2900000Y592000D01*
X-2900000Y910211D01*
X-2879998Y978332D01*
X-2878766Y980211D01*
X-2854766Y1016131D01*
X-2800290Y1061660D01*
X-2729847Y1070509D01*
X-2665803Y1039869D01*
X-2645234Y1016131D01*
X-2621234Y980211D01*
X-2600020Y912458D01*
X-2600000Y910211D01*
X-2600000Y592000D01*
X-2554777Y592000D01*
X-2548063Y592359D01*
X-2490906Y598505D01*
X-2354037Y649554D01*
X-2325508Y670911D01*
X-2258988Y695721D01*
X-2189614Y680629D01*
X-2174492Y670911D01*
X-2145962Y649554D01*
X-2009093Y598505D01*
X-1951936Y592359D01*
X-1945223Y592000D01*
X-1900000Y592000D01*
X-1900000Y910211D01*
X-1879998Y978332D01*
X-1878766Y980211D01*
X-1854766Y1016131D01*
X-1800290Y1061660D01*
X-1729847Y1070509D01*
X-1665803Y1039869D01*
X-1645234Y1016131D01*
X-1621234Y980211D01*
X-1600020Y912458D01*
X-1600000Y910211D01*
X-1600000Y592000D01*
X-1554777Y592000D01*
X-1548063Y592359D01*
X-1490906Y598505D01*
X-1354037Y649554D01*
X-1325508Y670911D01*
X-1258988Y695721D01*
X-1189614Y680629D01*
X-1174492Y670911D01*
X-1145962Y649554D01*
X-1009093Y598505D01*
X-951936Y592359D01*
X-945223Y592000D01*
X-900000Y592000D01*
X-900000Y910211D01*
X-879998Y978332D01*
X-878766Y980211D01*
X-854766Y1016131D01*
X-800290Y1061660D01*
X-729847Y1070509D01*
X-665803Y1039869D01*
X-645234Y1016131D01*
X-621234Y980211D01*
X-600020Y912458D01*
X-600000Y910211D01*
X-600000Y592000D01*
X-554777Y592000D01*
X-548063Y592359D01*
X-490906Y598505D01*
X-354034Y649555D01*
X-325506Y670911D01*
X-258986Y695721D01*
X-189612Y680629D01*
X-174489Y670910D01*
X-145960Y649553D01*
X-9093Y598505D01*
X48063Y592359D01*
X54777Y592000D01*
X100000Y592000D01*
X100000Y910211D01*
X120002Y978332D01*
X121234Y980211D01*
X145234Y1016131D01*
X199710Y1061660D01*
X270153Y1070509D01*
X334197Y1039869D01*
X354766Y1016131D01*
X378766Y980211D01*
X399980Y912458D01*
X400000Y910211D01*
X400000Y592000D01*
X445223Y592000D01*
X451936Y592359D01*
X509093Y598505D01*
X645962Y649554D01*
X674492Y670911D01*
X741012Y695721D01*
X810386Y680629D01*
X825508Y670911D01*
X854037Y649554D01*
X990906Y598505D01*
X1048063Y592359D01*
X1054777Y592000D01*
X1100000Y592000D01*
X1100000Y910211D01*
X1120002Y978332D01*
X1121234Y980211D01*
X1145234Y1016131D01*
X1199710Y1061660D01*
X1270153Y1070509D01*
X1334197Y1039869D01*
X1354766Y1016131D01*
X1378766Y980211D01*
X1399980Y912458D01*
X1400000Y910211D01*
X1400000Y592000D01*
X1445223Y592000D01*
X1451936Y592359D01*
X1509093Y598505D01*
X1645962Y649554D01*
X1674492Y670911D01*
X1741012Y695721D01*
X1810386Y680629D01*
X1825508Y670911D01*
X1854037Y649554D01*
X1990906Y598505D01*
X2048063Y592359D01*
X2054777Y592000D01*
X2100000Y592000D01*
X2100000Y910211D01*
X2120002Y978332D01*
X2121234Y980211D01*
X2145234Y1016131D01*
X2199710Y1061660D01*
X2270153Y1070509D01*
X2334197Y1039869D01*
X2354766Y1016131D01*
X2378766Y980211D01*
X2399980Y912458D01*
X2400000Y910211D01*
X2400000Y592000D01*
X2445223Y592000D01*
X2451936Y592359D01*
X2509093Y598505D01*
X2645962Y649554D01*
X2674492Y670911D01*
X2741012Y695721D01*
X2810386Y680629D01*
X2825508Y670911D01*
X2854037Y649554D01*
X2990906Y598505D01*
X3048063Y592359D01*
X3054777Y592000D01*
X3100000Y592000D01*
X3100000Y910211D01*
X3120002Y978332D01*
X3121234Y980211D01*
X3145234Y1016131D01*
X3199710Y1061660D01*
X3270153Y1070509D01*
X3334197Y1039869D01*
X3354766Y1016131D01*
X3378766Y980211D01*
X3399980Y912458D01*
X3400000Y910211D01*
X3400000Y592000D01*
X3445223Y592000D01*
X3451936Y592359D01*
X3509093Y598505D01*
X3645962Y649554D01*
X3674492Y670911D01*
X3741012Y695721D01*
X3810386Y680629D01*
X3825508Y670911D01*
X3854037Y649554D01*
X3990906Y598505D01*
X4048063Y592359D01*
X4054777Y592000D01*
X4100000Y592000D01*
X4100000Y910211D01*
X4120002Y978332D01*
X4121234Y980211D01*
X4145234Y1016131D01*
X4199710Y1061660D01*
X4270153Y1070509D01*
X4334197Y1039869D01*
G37*
%TD.AperFunction*%
%TA.AperFunction,Conductor*%
G36*
X-5489968Y2361801D02*
G01*
X-5433132Y2319254D01*
X-5408321Y2252734D01*
X-5408231Y2250230D01*
X-5408001Y2250000D01*
X-4776500Y2250000D01*
X-4708379Y2229998D01*
X-4661886Y2176342D01*
X-4650500Y2124000D01*
X-4650500Y2076000D01*
X-4670502Y2007879D01*
X-4724158Y1961386D01*
X-4776500Y1950000D01*
X-5408000Y1950000D01*
X-5408000Y1848664D01*
X-5428002Y1780543D01*
X-5481658Y1734050D01*
X-5551932Y1723946D01*
X-5583689Y1732876D01*
X-5706461Y1785562D01*
X-5706464Y1785562D01*
X-5706465Y1785563D01*
X-5862136Y1817554D01*
X-5924834Y1850858D01*
X-5959575Y1912774D01*
X-5955326Y1983643D01*
X-5925866Y2030069D01*
X-5623095Y2332840D01*
X-5560783Y2366866D01*
X-5489968Y2361801D01*
G37*
%TD.AperFunction*%
%TD*%
M02*
