%TF.GenerationSoftware,KiCad,Pcbnew,7.0.2*%
%TF.CreationDate,2023-10-04T16:53:15-06:00*%
%TF.ProjectId,igloo31,69676c6f-6f33-4312-9e6b-696361645f70,rev?*%
%TF.SameCoordinates,Original*%
%TF.FileFunction,Legend,Top*%
%TF.FilePolarity,Positive*%
%FSLAX46Y46*%
G04 Gerber Fmt 4.6, Leading zero omitted, Abs format (unit mm)*
G04 Created by KiCad (PCBNEW 7.0.2) date 2023-10-04 16:53:15*
%MOMM*%
%LPD*%
G01*
G04 APERTURE LIST*
%ADD10C,0.150000*%
%ADD11C,0.200000*%
%ADD12C,0.100000*%
%ADD13C,1.500000*%
%ADD14C,1.450000*%
%ADD15R,1.500000X0.600000*%
G04 APERTURE END LIST*
D10*
X-9646964Y-5985714D02*
X-8896964Y-5985714D01*
X-8896964Y-5985714D02*
X-9646964Y-6414285D01*
X-9646964Y-6414285D02*
X-8896964Y-6414285D01*
X9611250Y-6414285D02*
X9646964Y-6307143D01*
X9646964Y-6307143D02*
X9646964Y-6128571D01*
X9646964Y-6128571D02*
X9611250Y-6057143D01*
X9611250Y-6057143D02*
X9575535Y-6021428D01*
X9575535Y-6021428D02*
X9504107Y-5985714D01*
X9504107Y-5985714D02*
X9432678Y-5985714D01*
X9432678Y-5985714D02*
X9361250Y-6021428D01*
X9361250Y-6021428D02*
X9325535Y-6057143D01*
X9325535Y-6057143D02*
X9289821Y-6128571D01*
X9289821Y-6128571D02*
X9254107Y-6271428D01*
X9254107Y-6271428D02*
X9218392Y-6342857D01*
X9218392Y-6342857D02*
X9182678Y-6378571D01*
X9182678Y-6378571D02*
X9111250Y-6414285D01*
X9111250Y-6414285D02*
X9039821Y-6414285D01*
X9039821Y-6414285D02*
X8968392Y-6378571D01*
X8968392Y-6378571D02*
X8932678Y-6342857D01*
X8932678Y-6342857D02*
X8896964Y-6271428D01*
X8896964Y-6271428D02*
X8896964Y-6092857D01*
X8896964Y-6092857D02*
X8932678Y-5985714D01*
X-9646964Y6614285D02*
X-8896964Y6614285D01*
X-8896964Y6614285D02*
X-9646964Y6185714D01*
X-9646964Y6185714D02*
X-8896964Y6185714D01*
D11*
X6000000Y6000000D02*
X6000000Y-6000000D01*
D10*
X9611250Y6085714D02*
X9646964Y6192857D01*
X9646964Y6192857D02*
X9646964Y6371428D01*
X9646964Y6371428D02*
X9611250Y6442857D01*
X9611250Y6442857D02*
X9575535Y6478571D01*
X9575535Y6478571D02*
X9504107Y6514285D01*
X9504107Y6514285D02*
X9432678Y6514285D01*
X9432678Y6514285D02*
X9361250Y6478571D01*
X9361250Y6478571D02*
X9325535Y6442857D01*
X9325535Y6442857D02*
X9289821Y6371428D01*
X9289821Y6371428D02*
X9254107Y6228571D01*
X9254107Y6228571D02*
X9218392Y6157142D01*
X9218392Y6157142D02*
X9182678Y6121428D01*
X9182678Y6121428D02*
X9111250Y6085714D01*
X9111250Y6085714D02*
X9039821Y6085714D01*
X9039821Y6085714D02*
X8968392Y6121428D01*
X8968392Y6121428D02*
X8932678Y6157142D01*
X8932678Y6157142D02*
X8896964Y6228571D01*
X8896964Y6228571D02*
X8896964Y6407142D01*
X8896964Y6407142D02*
X8932678Y6514285D01*
D11*
X-6000000Y-6000000D02*
X6000000Y-6000000D01*
X-6000000Y6000000D02*
X-6000000Y-6000000D01*
X-6000000Y6000000D02*
X6000000Y6000000D01*
D10*
X9022428Y-5371428D02*
X9022428Y-5028571D01*
X9022428Y-5200000D02*
X9622428Y-5200000D01*
X9622428Y-5200000D02*
X9536714Y-5142857D01*
X9536714Y-5142857D02*
X9479571Y-5085714D01*
X9479571Y-5085714D02*
X9451000Y-5028571D01*
X9522428Y1999999D02*
X9522428Y1599999D01*
X9522428Y1599999D02*
X8922428Y1857142D01*
X-9322428Y-385714D02*
X-9322428Y-499999D01*
X-9322428Y-499999D02*
X-9293857Y-557142D01*
X-9293857Y-557142D02*
X-9265285Y-585714D01*
X-9265285Y-585714D02*
X-9179571Y-642856D01*
X-9179571Y-642856D02*
X-9065285Y-671428D01*
X-9065285Y-671428D02*
X-8836714Y-671428D01*
X-8836714Y-671428D02*
X-8779571Y-642856D01*
X-8779571Y-642856D02*
X-8751000Y-614285D01*
X-8751000Y-614285D02*
X-8722428Y-557142D01*
X-8722428Y-557142D02*
X-8722428Y-442856D01*
X-8722428Y-442856D02*
X-8751000Y-385714D01*
X-8751000Y-385714D02*
X-8779571Y-357142D01*
X-8779571Y-357142D02*
X-8836714Y-328571D01*
X-8836714Y-328571D02*
X-8979571Y-328571D01*
X-8979571Y-328571D02*
X-9036714Y-357142D01*
X-9036714Y-357142D02*
X-9065285Y-385714D01*
X-9065285Y-385714D02*
X-9093857Y-442856D01*
X-9093857Y-442856D02*
X-9093857Y-557142D01*
X-9093857Y-557142D02*
X-9065285Y-614285D01*
X-9065285Y-614285D02*
X-9036714Y-642856D01*
X-9036714Y-642856D02*
X-8979571Y-671428D01*
X8922428Y5214286D02*
X8922428Y5557143D01*
X8922428Y5385714D02*
X9522428Y5385714D01*
X9522428Y5385714D02*
X9436714Y5442857D01*
X9436714Y5442857D02*
X9379571Y5500000D01*
X9379571Y5500000D02*
X9351000Y5557143D01*
X9522428Y4842857D02*
X9522428Y4785714D01*
X9522428Y4785714D02*
X9493857Y4728571D01*
X9493857Y4728571D02*
X9465285Y4700000D01*
X9465285Y4700000D02*
X9408142Y4671428D01*
X9408142Y4671428D02*
X9293857Y4642857D01*
X9293857Y4642857D02*
X9151000Y4642857D01*
X9151000Y4642857D02*
X9036714Y4671428D01*
X9036714Y4671428D02*
X8979571Y4700000D01*
X8979571Y4700000D02*
X8951000Y4728571D01*
X8951000Y4728571D02*
X8922428Y4785714D01*
X8922428Y4785714D02*
X8922428Y4842857D01*
X8922428Y4842857D02*
X8951000Y4900000D01*
X8951000Y4900000D02*
X8979571Y4928571D01*
X8979571Y4928571D02*
X9036714Y4957142D01*
X9036714Y4957142D02*
X9151000Y4985714D01*
X9151000Y4985714D02*
X9293857Y4985714D01*
X9293857Y4985714D02*
X9408142Y4957142D01*
X9408142Y4957142D02*
X9465285Y4928571D01*
X9465285Y4928571D02*
X9493857Y4900000D01*
X9493857Y4900000D02*
X9522428Y4842857D01*
X-9422428Y2600000D02*
X-9422428Y2971428D01*
X-9422428Y2971428D02*
X-9193857Y2771428D01*
X-9193857Y2771428D02*
X-9193857Y2857143D01*
X-9193857Y2857143D02*
X-9165285Y2914286D01*
X-9165285Y2914286D02*
X-9136714Y2942857D01*
X-9136714Y2942857D02*
X-9079571Y2971428D01*
X-9079571Y2971428D02*
X-8936714Y2971428D01*
X-8936714Y2971428D02*
X-8879571Y2942857D01*
X-8879571Y2942857D02*
X-8851000Y2914286D01*
X-8851000Y2914286D02*
X-8822428Y2857143D01*
X-8822428Y2857143D02*
X-8822428Y2685714D01*
X-8822428Y2685714D02*
X-8851000Y2628571D01*
X-8851000Y2628571D02*
X-8879571Y2600000D01*
X9622428Y-2600000D02*
X9622428Y-2971428D01*
X9622428Y-2971428D02*
X9393857Y-2771428D01*
X9393857Y-2771428D02*
X9393857Y-2857143D01*
X9393857Y-2857143D02*
X9365285Y-2914286D01*
X9365285Y-2914286D02*
X9336714Y-2942857D01*
X9336714Y-2942857D02*
X9279571Y-2971428D01*
X9279571Y-2971428D02*
X9136714Y-2971428D01*
X9136714Y-2971428D02*
X9079571Y-2942857D01*
X9079571Y-2942857D02*
X9051000Y-2914286D01*
X9051000Y-2914286D02*
X9022428Y-2857143D01*
X9022428Y-2857143D02*
X9022428Y-2685714D01*
X9022428Y-2685714D02*
X9051000Y-2628571D01*
X9051000Y-2628571D02*
X9079571Y-2600000D01*
X9265285Y2957142D02*
X9293857Y3014285D01*
X9293857Y3014285D02*
X9322428Y3042856D01*
X9322428Y3042856D02*
X9379571Y3071428D01*
X9379571Y3071428D02*
X9408142Y3071428D01*
X9408142Y3071428D02*
X9465285Y3042856D01*
X9465285Y3042856D02*
X9493857Y3014285D01*
X9493857Y3014285D02*
X9522428Y2957142D01*
X9522428Y2957142D02*
X9522428Y2842856D01*
X9522428Y2842856D02*
X9493857Y2785714D01*
X9493857Y2785714D02*
X9465285Y2757142D01*
X9465285Y2757142D02*
X9408142Y2728571D01*
X9408142Y2728571D02*
X9379571Y2728571D01*
X9379571Y2728571D02*
X9322428Y2757142D01*
X9322428Y2757142D02*
X9293857Y2785714D01*
X9293857Y2785714D02*
X9265285Y2842856D01*
X9265285Y2842856D02*
X9265285Y2957142D01*
X9265285Y2957142D02*
X9236714Y3014285D01*
X9236714Y3014285D02*
X9208142Y3042856D01*
X9208142Y3042856D02*
X9151000Y3071428D01*
X9151000Y3071428D02*
X9036714Y3071428D01*
X9036714Y3071428D02*
X8979571Y3042856D01*
X8979571Y3042856D02*
X8951000Y3014285D01*
X8951000Y3014285D02*
X8922428Y2957142D01*
X8922428Y2957142D02*
X8922428Y2842856D01*
X8922428Y2842856D02*
X8951000Y2785714D01*
X8951000Y2785714D02*
X8979571Y2757142D01*
X8979571Y2757142D02*
X9036714Y2728571D01*
X9036714Y2728571D02*
X9151000Y2728571D01*
X9151000Y2728571D02*
X9208142Y2757142D01*
X9208142Y2757142D02*
X9236714Y2785714D01*
X9236714Y2785714D02*
X9265285Y2842856D01*
X-9065285Y-2857142D02*
X-9093857Y-2914285D01*
X-9093857Y-2914285D02*
X-9122428Y-2942856D01*
X-9122428Y-2942856D02*
X-9179571Y-2971428D01*
X-9179571Y-2971428D02*
X-9208142Y-2971428D01*
X-9208142Y-2971428D02*
X-9265285Y-2942856D01*
X-9265285Y-2942856D02*
X-9293857Y-2914285D01*
X-9293857Y-2914285D02*
X-9322428Y-2857142D01*
X-9322428Y-2857142D02*
X-9322428Y-2742856D01*
X-9322428Y-2742856D02*
X-9293857Y-2685714D01*
X-9293857Y-2685714D02*
X-9265285Y-2657142D01*
X-9265285Y-2657142D02*
X-9208142Y-2628571D01*
X-9208142Y-2628571D02*
X-9179571Y-2628571D01*
X-9179571Y-2628571D02*
X-9122428Y-2657142D01*
X-9122428Y-2657142D02*
X-9093857Y-2685714D01*
X-9093857Y-2685714D02*
X-9065285Y-2742856D01*
X-9065285Y-2742856D02*
X-9065285Y-2857142D01*
X-9065285Y-2857142D02*
X-9036714Y-2914285D01*
X-9036714Y-2914285D02*
X-9008142Y-2942856D01*
X-9008142Y-2942856D02*
X-8951000Y-2971428D01*
X-8951000Y-2971428D02*
X-8836714Y-2971428D01*
X-8836714Y-2971428D02*
X-8779571Y-2942856D01*
X-8779571Y-2942856D02*
X-8751000Y-2914285D01*
X-8751000Y-2914285D02*
X-8722428Y-2857142D01*
X-8722428Y-2857142D02*
X-8722428Y-2742856D01*
X-8722428Y-2742856D02*
X-8751000Y-2685714D01*
X-8751000Y-2685714D02*
X-8779571Y-2657142D01*
X-8779571Y-2657142D02*
X-8836714Y-2628571D01*
X-8836714Y-2628571D02*
X-8951000Y-2628571D01*
X-8951000Y-2628571D02*
X-9008142Y-2657142D01*
X-9008142Y-2657142D02*
X-9036714Y-2685714D01*
X-9036714Y-2685714D02*
X-9065285Y-2742856D01*
X9522428Y-742857D02*
X9522428Y-457143D01*
X9522428Y-457143D02*
X9236714Y-428571D01*
X9236714Y-428571D02*
X9265285Y-457143D01*
X9265285Y-457143D02*
X9293857Y-514286D01*
X9293857Y-514286D02*
X9293857Y-657143D01*
X9293857Y-657143D02*
X9265285Y-714286D01*
X9265285Y-714286D02*
X9236714Y-742857D01*
X9236714Y-742857D02*
X9179571Y-771428D01*
X9179571Y-771428D02*
X9036714Y-771428D01*
X9036714Y-771428D02*
X8979571Y-742857D01*
X8979571Y-742857D02*
X8951000Y-714286D01*
X8951000Y-714286D02*
X8922428Y-657143D01*
X8922428Y-657143D02*
X8922428Y-514286D01*
X8922428Y-514286D02*
X8951000Y-457143D01*
X8951000Y-457143D02*
X8979571Y-428571D01*
X8922428Y4114285D02*
X8922428Y3999999D01*
X8922428Y3999999D02*
X8951000Y3942856D01*
X8951000Y3942856D02*
X8979571Y3914285D01*
X8979571Y3914285D02*
X9065285Y3857142D01*
X9065285Y3857142D02*
X9179571Y3828571D01*
X9179571Y3828571D02*
X9408142Y3828571D01*
X9408142Y3828571D02*
X9465285Y3857142D01*
X9465285Y3857142D02*
X9493857Y3885714D01*
X9493857Y3885714D02*
X9522428Y3942856D01*
X9522428Y3942856D02*
X9522428Y4057142D01*
X9522428Y4057142D02*
X9493857Y4114285D01*
X9493857Y4114285D02*
X9465285Y4142856D01*
X9465285Y4142856D02*
X9408142Y4171428D01*
X9408142Y4171428D02*
X9265285Y4171428D01*
X9265285Y4171428D02*
X9208142Y4142856D01*
X9208142Y4142856D02*
X9179571Y4114285D01*
X9179571Y4114285D02*
X9151000Y4057142D01*
X9151000Y4057142D02*
X9151000Y3942856D01*
X9151000Y3942856D02*
X9179571Y3885714D01*
X9179571Y3885714D02*
X9208142Y3857142D01*
X9208142Y3857142D02*
X9265285Y3828571D01*
X-8822428Y5371428D02*
X-8822428Y5028571D01*
X-8822428Y5200000D02*
X-9422428Y5200000D01*
X-9422428Y5200000D02*
X-9336714Y5142857D01*
X-9336714Y5142857D02*
X-9279571Y5085714D01*
X-9279571Y5085714D02*
X-9251000Y5028571D01*
X9522428Y485714D02*
X9522428Y599999D01*
X9522428Y599999D02*
X9493857Y657142D01*
X9493857Y657142D02*
X9465285Y685714D01*
X9465285Y685714D02*
X9379571Y742856D01*
X9379571Y742856D02*
X9265285Y771428D01*
X9265285Y771428D02*
X9036714Y771428D01*
X9036714Y771428D02*
X8979571Y742856D01*
X8979571Y742856D02*
X8951000Y714285D01*
X8951000Y714285D02*
X8922428Y657142D01*
X8922428Y657142D02*
X8922428Y542856D01*
X8922428Y542856D02*
X8951000Y485714D01*
X8951000Y485714D02*
X8979571Y457142D01*
X8979571Y457142D02*
X9036714Y428571D01*
X9036714Y428571D02*
X9179571Y428571D01*
X9179571Y428571D02*
X9236714Y457142D01*
X9236714Y457142D02*
X9265285Y485714D01*
X9265285Y485714D02*
X9293857Y542856D01*
X9293857Y542856D02*
X9293857Y657142D01*
X9293857Y657142D02*
X9265285Y714285D01*
X9265285Y714285D02*
X9236714Y742856D01*
X9236714Y742856D02*
X9179571Y771428D01*
X9322428Y-1814286D02*
X8922428Y-1814286D01*
X9551000Y-1671428D02*
X9122428Y-1528571D01*
X9122428Y-1528571D02*
X9122428Y-1900000D01*
X-9322428Y742857D02*
X-9322428Y457143D01*
X-9322428Y457143D02*
X-9036714Y428571D01*
X-9036714Y428571D02*
X-9065285Y457143D01*
X-9065285Y457143D02*
X-9093857Y514286D01*
X-9093857Y514286D02*
X-9093857Y657143D01*
X-9093857Y657143D02*
X-9065285Y714286D01*
X-9065285Y714286D02*
X-9036714Y742857D01*
X-9036714Y742857D02*
X-8979571Y771428D01*
X-8979571Y771428D02*
X-8836714Y771428D01*
X-8836714Y771428D02*
X-8779571Y742857D01*
X-8779571Y742857D02*
X-8751000Y714286D01*
X-8751000Y714286D02*
X-8722428Y657143D01*
X-8722428Y657143D02*
X-8722428Y514286D01*
X-8722428Y514286D02*
X-8751000Y457143D01*
X-8751000Y457143D02*
X-8779571Y428571D01*
X9465285Y-3828571D02*
X9493857Y-3857143D01*
X9493857Y-3857143D02*
X9522428Y-3914286D01*
X9522428Y-3914286D02*
X9522428Y-4057143D01*
X9522428Y-4057143D02*
X9493857Y-4114286D01*
X9493857Y-4114286D02*
X9465285Y-4142857D01*
X9465285Y-4142857D02*
X9408142Y-4171428D01*
X9408142Y-4171428D02*
X9351000Y-4171428D01*
X9351000Y-4171428D02*
X9265285Y-4142857D01*
X9265285Y-4142857D02*
X8922428Y-3800000D01*
X8922428Y-3800000D02*
X8922428Y-4171428D01*
X-8722428Y-5314286D02*
X-8722428Y-5657143D01*
X-8722428Y-5485714D02*
X-9322428Y-5485714D01*
X-9322428Y-5485714D02*
X-9236714Y-5542857D01*
X-9236714Y-5542857D02*
X-9179571Y-5600000D01*
X-9179571Y-5600000D02*
X-9151000Y-5657143D01*
X-9322428Y-4942857D02*
X-9322428Y-4885714D01*
X-9322428Y-4885714D02*
X-9293857Y-4828571D01*
X-9293857Y-4828571D02*
X-9265285Y-4800000D01*
X-9265285Y-4800000D02*
X-9208142Y-4771428D01*
X-9208142Y-4771428D02*
X-9093857Y-4742857D01*
X-9093857Y-4742857D02*
X-8951000Y-4742857D01*
X-8951000Y-4742857D02*
X-8836714Y-4771428D01*
X-8836714Y-4771428D02*
X-8779571Y-4800000D01*
X-8779571Y-4800000D02*
X-8751000Y-4828571D01*
X-8751000Y-4828571D02*
X-8722428Y-4885714D01*
X-8722428Y-4885714D02*
X-8722428Y-4942857D01*
X-8722428Y-4942857D02*
X-8751000Y-5000000D01*
X-8751000Y-5000000D02*
X-8779571Y-5028571D01*
X-8779571Y-5028571D02*
X-8836714Y-5057142D01*
X-8836714Y-5057142D02*
X-8951000Y-5085714D01*
X-8951000Y-5085714D02*
X-9093857Y-5085714D01*
X-9093857Y-5085714D02*
X-9208142Y-5057142D01*
X-9208142Y-5057142D02*
X-9265285Y-5028571D01*
X-9265285Y-5028571D02*
X-9293857Y-5000000D01*
X-9293857Y-5000000D02*
X-9322428Y-4942857D01*
X-9322428Y-1899999D02*
X-9322428Y-1499999D01*
X-9322428Y-1499999D02*
X-8722428Y-1757142D01*
X-9365285Y3828571D02*
X-9393857Y3857143D01*
X-9393857Y3857143D02*
X-9422428Y3914286D01*
X-9422428Y3914286D02*
X-9422428Y4057143D01*
X-9422428Y4057143D02*
X-9393857Y4114286D01*
X-9393857Y4114286D02*
X-9365285Y4142857D01*
X-9365285Y4142857D02*
X-9308142Y4171428D01*
X-9308142Y4171428D02*
X-9251000Y4171428D01*
X-9251000Y4171428D02*
X-9165285Y4142857D01*
X-9165285Y4142857D02*
X-8822428Y3800000D01*
X-8822428Y3800000D02*
X-8822428Y4171428D01*
X-9222428Y1814286D02*
X-8822428Y1814286D01*
X-9451000Y1671428D02*
X-9022428Y1528571D01*
X-9022428Y1528571D02*
X-9022428Y1900000D01*
X-8722428Y-4114285D02*
X-8722428Y-3999999D01*
X-8722428Y-3999999D02*
X-8751000Y-3942856D01*
X-8751000Y-3942856D02*
X-8779571Y-3914285D01*
X-8779571Y-3914285D02*
X-8865285Y-3857142D01*
X-8865285Y-3857142D02*
X-8979571Y-3828571D01*
X-8979571Y-3828571D02*
X-9208142Y-3828571D01*
X-9208142Y-3828571D02*
X-9265285Y-3857142D01*
X-9265285Y-3857142D02*
X-9293857Y-3885714D01*
X-9293857Y-3885714D02*
X-9322428Y-3942856D01*
X-9322428Y-3942856D02*
X-9322428Y-4057142D01*
X-9322428Y-4057142D02*
X-9293857Y-4114285D01*
X-9293857Y-4114285D02*
X-9265285Y-4142856D01*
X-9265285Y-4142856D02*
X-9208142Y-4171428D01*
X-9208142Y-4171428D02*
X-9065285Y-4171428D01*
X-9065285Y-4171428D02*
X-9008142Y-4142856D01*
X-9008142Y-4142856D02*
X-8979571Y-4114285D01*
X-8979571Y-4114285D02*
X-8951000Y-4057142D01*
X-8951000Y-4057142D02*
X-8951000Y-3942856D01*
X-8951000Y-3942856D02*
X-8979571Y-3885714D01*
X-8979571Y-3885714D02*
X-9008142Y-3857142D01*
X-9008142Y-3857142D02*
X-9065285Y-3828571D01*
%TO.C,U2*%
X6101819Y-69922D02*
X6911342Y-69922D01*
X6911342Y-69922D02*
X7006580Y-22303D01*
X7006580Y-22303D02*
X7054200Y25315D01*
X7054200Y25315D02*
X7101819Y120553D01*
X7101819Y120553D02*
X7101819Y311029D01*
X7101819Y311029D02*
X7054200Y406267D01*
X7054200Y406267D02*
X7006580Y453886D01*
X7006580Y453886D02*
X6911342Y501505D01*
X6911342Y501505D02*
X6101819Y501505D01*
X6197057Y930077D02*
X6149438Y977696D01*
X6149438Y977696D02*
X6101819Y1072934D01*
X6101819Y1072934D02*
X6101819Y1311029D01*
X6101819Y1311029D02*
X6149438Y1406267D01*
X6149438Y1406267D02*
X6197057Y1453886D01*
X6197057Y1453886D02*
X6292295Y1501505D01*
X6292295Y1501505D02*
X6387533Y1501505D01*
X6387533Y1501505D02*
X6530390Y1453886D01*
X6530390Y1453886D02*
X7101819Y882458D01*
X7101819Y882458D02*
X7101819Y1501505D01*
%TO.C,U1*%
X-7608380Y-761904D02*
X-6798857Y-761904D01*
X-6798857Y-761904D02*
X-6703619Y-714285D01*
X-6703619Y-714285D02*
X-6656000Y-666666D01*
X-6656000Y-666666D02*
X-6608380Y-571428D01*
X-6608380Y-571428D02*
X-6608380Y-380952D01*
X-6608380Y-380952D02*
X-6656000Y-285714D01*
X-6656000Y-285714D02*
X-6703619Y-238095D01*
X-6703619Y-238095D02*
X-6798857Y-190476D01*
X-6798857Y-190476D02*
X-7608380Y-190476D01*
X-6608380Y809523D02*
X-6608380Y238095D01*
X-6608380Y523809D02*
X-7608380Y523809D01*
X-7608380Y523809D02*
X-7465523Y428571D01*
X-7465523Y428571D02*
X-7370285Y333333D01*
X-7370285Y333333D02*
X-7322666Y238095D01*
%TD*%
%LPC*%
D12*
X-10300000Y-5850000D02*
X-11500000Y-5850000D01*
X-11500000Y5640000D01*
X-10300000Y5640000D01*
X-10300000Y-5850000D01*
G36*
X-10300000Y-5850000D02*
G01*
X-11500000Y-5850000D01*
X-11500000Y5640000D01*
X-10300000Y5640000D01*
X-10300000Y-5850000D01*
G37*
X11700000Y-5950000D02*
X10500000Y-5950000D01*
X10500000Y5540000D01*
X11700000Y5540000D01*
X11700000Y-5950000D01*
G36*
X11700000Y-5950000D02*
G01*
X10500000Y-5950000D01*
X10500000Y5540000D01*
X11700000Y5540000D01*
X11700000Y-5950000D01*
G37*
D10*
X7500000Y9400000D02*
X8600000Y9400000D01*
X8600000Y5500000D01*
X4400000Y1000000D01*
X4400000Y-1000000D01*
X3200000Y-1200000D01*
X2400000Y-1100000D01*
X2400000Y9449600D01*
X7500000Y9400000D01*
G36*
X7500000Y9400000D02*
G01*
X8600000Y9400000D01*
X8600000Y5500000D01*
X4400000Y1000000D01*
X4400000Y-1000000D01*
X3200000Y-1200000D01*
X2400000Y-1100000D01*
X2400000Y9449600D01*
X7500000Y9400000D01*
G37*
D12*
X2400000Y-9550400D02*
X-8490000Y-9550400D01*
X-8490000Y9449600D01*
X2400000Y9449600D01*
X2400000Y-9550400D01*
G36*
X2400000Y-9550400D02*
G01*
X-8490000Y-9550400D01*
X-8490000Y9449600D01*
X2400000Y9449600D01*
X2400000Y-9550400D01*
G37*
X8550400Y-8750000D02*
X-8449600Y-8750000D01*
X-8449600Y-860000D01*
X8550400Y-860000D01*
X8550400Y-8750000D01*
G36*
X8550400Y-8750000D02*
G01*
X-8449600Y-8750000D01*
X-8449600Y-860000D01*
X8550400Y-860000D01*
X8550400Y-8750000D01*
G37*
D13*
%TO.C,J1*%
X7475000Y-1150000D03*
X-7475000Y-1150000D03*
D14*
X6000000Y850000D03*
X-6000000Y850000D03*
%TD*%
D15*
%TO.C,U2*%
X10500000Y-5143500D03*
X10500000Y-4000500D03*
X10500000Y-2857500D03*
X10500000Y-1714500D03*
X10500000Y-571500D03*
X10500000Y571500D03*
X10500000Y1714500D03*
X10500000Y2857500D03*
X10500000Y4000500D03*
X10500000Y5143500D03*
%TD*%
%TO.C,U1*%
X-10500000Y-5143500D03*
X-10500000Y-4000500D03*
X-10500000Y-2857500D03*
X-10500000Y-1714500D03*
X-10500000Y-571500D03*
X-10500000Y571500D03*
X-10500000Y1714500D03*
X-10500000Y2857500D03*
X-10500000Y4000500D03*
X-10500000Y5143500D03*
%TD*%
%LPD*%
M02*
