%TF.GenerationSoftware,KiCad,Pcbnew,7.0.2*%
%TF.CreationDate,2023-10-04T16:53:15-06:00*%
%TF.ProjectId,igloo31,69676c6f-6f33-4312-9e6b-696361645f70,rev?*%
%TF.SameCoordinates,Original*%
%TF.FileFunction,Soldermask,Top*%
%TF.FilePolarity,Negative*%
%FSLAX46Y46*%
G04 Gerber Fmt 4.6, Leading zero omitted, Abs format (unit mm)*
G04 Created by KiCad (PCBNEW 7.0.2) date 2023-10-04 16:53:15*
%MOMM*%
%LPD*%
G01*
G04 APERTURE LIST*
%ADD10C,0.100000*%
%ADD11C,0.150000*%
%ADD12C,1.500000*%
%ADD13C,1.450000*%
%ADD14R,1.500000X0.600000*%
G04 APERTURE END LIST*
D10*
X-10300000Y-5850000D02*
X-11500000Y-5850000D01*
X-11500000Y5640000D01*
X-10300000Y5640000D01*
X-10300000Y-5850000D01*
G36*
X-10300000Y-5850000D02*
G01*
X-11500000Y-5850000D01*
X-11500000Y5640000D01*
X-10300000Y5640000D01*
X-10300000Y-5850000D01*
G37*
X11700000Y-5950000D02*
X10500000Y-5950000D01*
X10500000Y5540000D01*
X11700000Y5540000D01*
X11700000Y-5950000D01*
G36*
X11700000Y-5950000D02*
G01*
X10500000Y-5950000D01*
X10500000Y5540000D01*
X11700000Y5540000D01*
X11700000Y-5950000D01*
G37*
D11*
X7500000Y9400000D02*
X8600000Y9400000D01*
X8600000Y5500000D01*
X4400000Y1000000D01*
X4400000Y-1000000D01*
X3200000Y-1200000D01*
X2400000Y-1100000D01*
X2400000Y9449600D01*
X7500000Y9400000D01*
G36*
X7500000Y9400000D02*
G01*
X8600000Y9400000D01*
X8600000Y5500000D01*
X4400000Y1000000D01*
X4400000Y-1000000D01*
X3200000Y-1200000D01*
X2400000Y-1100000D01*
X2400000Y9449600D01*
X7500000Y9400000D01*
G37*
D10*
X2400000Y-9550400D02*
X-8490000Y-9550400D01*
X-8490000Y9449600D01*
X2400000Y9449600D01*
X2400000Y-9550400D01*
G36*
X2400000Y-9550400D02*
G01*
X-8490000Y-9550400D01*
X-8490000Y9449600D01*
X2400000Y9449600D01*
X2400000Y-9550400D01*
G37*
X8550400Y-8750000D02*
X-8449600Y-8750000D01*
X-8449600Y-860000D01*
X8550400Y-860000D01*
X8550400Y-8750000D01*
G36*
X8550400Y-8750000D02*
G01*
X-8449600Y-8750000D01*
X-8449600Y-860000D01*
X8550400Y-860000D01*
X8550400Y-8750000D01*
G37*
D12*
%TO.C,J1*%
X7475000Y-1150000D03*
X-7475000Y-1150000D03*
D13*
X6000000Y850000D03*
X-6000000Y850000D03*
%TD*%
D14*
%TO.C,U2*%
X10500000Y-5143500D03*
X10500000Y-4000500D03*
X10500000Y-2857500D03*
X10500000Y-1714500D03*
X10500000Y-571500D03*
X10500000Y571500D03*
X10500000Y1714500D03*
X10500000Y2857500D03*
X10500000Y4000500D03*
X10500000Y5143500D03*
%TD*%
%TO.C,U1*%
X-10500000Y-5143500D03*
X-10500000Y-4000500D03*
X-10500000Y-2857500D03*
X-10500000Y-1714500D03*
X-10500000Y-571500D03*
X-10500000Y571500D03*
X-10500000Y1714500D03*
X-10500000Y2857500D03*
X-10500000Y4000500D03*
X-10500000Y5143500D03*
%TD*%
M02*
