G04 #@! TF.GenerationSoftware,KiCad,Pcbnew,(5.1.9)-1*
G04 #@! TF.CreationDate,2021-05-17T15:52:18-06:00*
G04 #@! TF.ProjectId,Igloo16,49676c6f-6f31-4362-9e6b-696361645f70,rev?*
G04 #@! TF.SameCoordinates,Original*
G04 #@! TF.FileFunction,Legend,Bot*
G04 #@! TF.FilePolarity,Positive*
%FSLAX46Y46*%
G04 Gerber Fmt 4.6, Leading zero omitted, Abs format (unit mm)*
G04 Created by KiCad (PCBNEW (5.1.9)-1) date 2021-05-17 15:52:18*
%MOMM*%
%LPD*%
G01*
G04 APERTURE LIST*
%ADD10C,0.150000*%
%ADD11C,0.127000*%
%ADD12C,0.200000*%
%ADD13C,0.015000*%
G04 APERTURE END LIST*
D10*
X98692857Y-86686428D02*
X98692857Y-86086428D01*
X98150000Y-86286428D02*
X98150000Y-86772142D01*
X98178571Y-86829285D01*
X98207142Y-86857857D01*
X98264285Y-86886428D01*
X98350000Y-86886428D01*
X98407142Y-86857857D01*
X98150000Y-86657857D02*
X98207142Y-86686428D01*
X98321428Y-86686428D01*
X98378571Y-86657857D01*
X98407142Y-86629285D01*
X98435714Y-86572142D01*
X98435714Y-86400714D01*
X98407142Y-86343571D01*
X98378571Y-86315000D01*
X98321428Y-86286428D01*
X98207142Y-86286428D01*
X98150000Y-86315000D01*
X97778571Y-86686428D02*
X97835714Y-86657857D01*
X97864285Y-86600714D01*
X97864285Y-86086428D01*
X97464285Y-86686428D02*
X97521428Y-86657857D01*
X97550000Y-86629285D01*
X97578571Y-86572142D01*
X97578571Y-86400714D01*
X97550000Y-86343571D01*
X97521428Y-86315000D01*
X97464285Y-86286428D01*
X97378571Y-86286428D01*
X97321428Y-86315000D01*
X97292857Y-86343571D01*
X97264285Y-86400714D01*
X97264285Y-86572142D01*
X97292857Y-86629285D01*
X97321428Y-86657857D01*
X97378571Y-86686428D01*
X97464285Y-86686428D01*
X96921428Y-86686428D02*
X96978571Y-86657857D01*
X97007142Y-86629285D01*
X97035714Y-86572142D01*
X97035714Y-86400714D01*
X97007142Y-86343571D01*
X96978571Y-86315000D01*
X96921428Y-86286428D01*
X96835714Y-86286428D01*
X96778571Y-86315000D01*
X96750000Y-86343571D01*
X96721428Y-86400714D01*
X96721428Y-86572142D01*
X96750000Y-86629285D01*
X96778571Y-86657857D01*
X96835714Y-86686428D01*
X96921428Y-86686428D01*
X96150000Y-86686428D02*
X96492857Y-86686428D01*
X96321428Y-86686428D02*
X96321428Y-86086428D01*
X96378571Y-86172142D01*
X96435714Y-86229285D01*
X96492857Y-86257857D01*
X95635714Y-86086428D02*
X95750000Y-86086428D01*
X95807142Y-86115000D01*
X95835714Y-86143571D01*
X95892857Y-86229285D01*
X95921428Y-86343571D01*
X95921428Y-86572142D01*
X95892857Y-86629285D01*
X95864285Y-86657857D01*
X95807142Y-86686428D01*
X95692857Y-86686428D01*
X95635714Y-86657857D01*
X95607142Y-86629285D01*
X95578571Y-86572142D01*
X95578571Y-86429285D01*
X95607142Y-86372142D01*
X95635714Y-86343571D01*
X95692857Y-86315000D01*
X95807142Y-86315000D01*
X95864285Y-86343571D01*
X95892857Y-86372142D01*
X95921428Y-86429285D01*
X98350000Y-87736428D02*
X98350000Y-87136428D01*
X98207142Y-87136428D01*
X98121428Y-87165000D01*
X98064285Y-87222142D01*
X98035714Y-87279285D01*
X98007142Y-87393571D01*
X98007142Y-87479285D01*
X98035714Y-87593571D01*
X98064285Y-87650714D01*
X98121428Y-87707857D01*
X98207142Y-87736428D01*
X98350000Y-87736428D01*
X97492857Y-87736428D02*
X97492857Y-87422142D01*
X97521428Y-87365000D01*
X97578571Y-87336428D01*
X97692857Y-87336428D01*
X97750000Y-87365000D01*
X97492857Y-87707857D02*
X97550000Y-87736428D01*
X97692857Y-87736428D01*
X97750000Y-87707857D01*
X97778571Y-87650714D01*
X97778571Y-87593571D01*
X97750000Y-87536428D01*
X97692857Y-87507857D01*
X97550000Y-87507857D01*
X97492857Y-87479285D01*
X97207142Y-87336428D02*
X97207142Y-87736428D01*
X97207142Y-87393571D02*
X97178571Y-87365000D01*
X97121428Y-87336428D01*
X97035714Y-87336428D01*
X96978571Y-87365000D01*
X96950000Y-87422142D01*
X96950000Y-87736428D01*
X96407142Y-87736428D02*
X96407142Y-87422142D01*
X96435714Y-87365000D01*
X96492857Y-87336428D01*
X96607142Y-87336428D01*
X96664285Y-87365000D01*
X96407142Y-87707857D02*
X96464285Y-87736428D01*
X96607142Y-87736428D01*
X96664285Y-87707857D01*
X96692857Y-87650714D01*
X96692857Y-87593571D01*
X96664285Y-87536428D01*
X96607142Y-87507857D01*
X96464285Y-87507857D01*
X96407142Y-87479285D01*
X98464285Y-88786428D02*
X98664285Y-88500714D01*
X98807142Y-88786428D02*
X98807142Y-88186428D01*
X98578571Y-88186428D01*
X98521428Y-88215000D01*
X98492857Y-88243571D01*
X98464285Y-88300714D01*
X98464285Y-88386428D01*
X98492857Y-88443571D01*
X98521428Y-88472142D01*
X98578571Y-88500714D01*
X98807142Y-88500714D01*
X97950000Y-88786428D02*
X97950000Y-88472142D01*
X97978571Y-88415000D01*
X98035714Y-88386428D01*
X98150000Y-88386428D01*
X98207142Y-88415000D01*
X97950000Y-88757857D02*
X98007142Y-88786428D01*
X98150000Y-88786428D01*
X98207142Y-88757857D01*
X98235714Y-88700714D01*
X98235714Y-88643571D01*
X98207142Y-88586428D01*
X98150000Y-88557857D01*
X98007142Y-88557857D01*
X97950000Y-88529285D01*
X97664285Y-88786428D02*
X97664285Y-88386428D01*
X97664285Y-88443571D02*
X97635714Y-88415000D01*
X97578571Y-88386428D01*
X97492857Y-88386428D01*
X97435714Y-88415000D01*
X97407142Y-88472142D01*
X97407142Y-88786428D01*
X97407142Y-88472142D02*
X97378571Y-88415000D01*
X97321428Y-88386428D01*
X97235714Y-88386428D01*
X97178571Y-88415000D01*
X97150000Y-88472142D01*
X97150000Y-88786428D01*
X96864285Y-88386428D02*
X96864285Y-88986428D01*
X96864285Y-88415000D02*
X96807142Y-88386428D01*
X96692857Y-88386428D01*
X96635714Y-88415000D01*
X96607142Y-88443571D01*
X96578571Y-88500714D01*
X96578571Y-88672142D01*
X96607142Y-88729285D01*
X96635714Y-88757857D01*
X96692857Y-88786428D01*
X96807142Y-88786428D01*
X96864285Y-88757857D01*
X96321428Y-88786428D02*
X96321428Y-88386428D01*
X96321428Y-88186428D02*
X96350000Y-88215000D01*
X96321428Y-88243571D01*
X96292857Y-88215000D01*
X96321428Y-88186428D01*
X96321428Y-88243571D01*
X96035714Y-88386428D02*
X96035714Y-88786428D01*
X96035714Y-88443571D02*
X96007142Y-88415000D01*
X95950000Y-88386428D01*
X95864285Y-88386428D01*
X95807142Y-88415000D01*
X95778571Y-88472142D01*
X95778571Y-88786428D01*
X95492857Y-88786428D02*
X95492857Y-88386428D01*
X95492857Y-88186428D02*
X95521428Y-88215000D01*
X95492857Y-88243571D01*
X95464285Y-88215000D01*
X95492857Y-88186428D01*
X95492857Y-88243571D01*
X99192857Y-89665000D02*
X98907142Y-89665000D01*
X99250000Y-89836428D02*
X99050000Y-89236428D01*
X98850000Y-89836428D01*
X98650000Y-89436428D02*
X98650000Y-90036428D01*
X98650000Y-89465000D02*
X98592857Y-89436428D01*
X98478571Y-89436428D01*
X98421428Y-89465000D01*
X98392857Y-89493571D01*
X98364285Y-89550714D01*
X98364285Y-89722142D01*
X98392857Y-89779285D01*
X98421428Y-89807857D01*
X98478571Y-89836428D01*
X98592857Y-89836428D01*
X98650000Y-89807857D01*
X98107142Y-89836428D02*
X98107142Y-89436428D01*
X98107142Y-89550714D02*
X98078571Y-89493571D01*
X98050000Y-89465000D01*
X97992857Y-89436428D01*
X97935714Y-89436428D01*
X97735714Y-89836428D02*
X97735714Y-89436428D01*
X97735714Y-89236428D02*
X97764285Y-89265000D01*
X97735714Y-89293571D01*
X97707142Y-89265000D01*
X97735714Y-89236428D01*
X97735714Y-89293571D01*
X97364285Y-89836428D02*
X97421428Y-89807857D01*
X97450000Y-89750714D01*
X97450000Y-89236428D01*
X97164285Y-89293571D02*
X97135714Y-89265000D01*
X97078571Y-89236428D01*
X96935714Y-89236428D01*
X96878571Y-89265000D01*
X96850000Y-89293571D01*
X96821428Y-89350714D01*
X96821428Y-89407857D01*
X96850000Y-89493571D01*
X97192857Y-89836428D01*
X96821428Y-89836428D01*
X96450000Y-89236428D02*
X96392857Y-89236428D01*
X96335714Y-89265000D01*
X96307142Y-89293571D01*
X96278571Y-89350714D01*
X96250000Y-89465000D01*
X96250000Y-89607857D01*
X96278571Y-89722142D01*
X96307142Y-89779285D01*
X96335714Y-89807857D01*
X96392857Y-89836428D01*
X96450000Y-89836428D01*
X96507142Y-89807857D01*
X96535714Y-89779285D01*
X96564285Y-89722142D01*
X96592857Y-89607857D01*
X96592857Y-89465000D01*
X96564285Y-89350714D01*
X96535714Y-89293571D01*
X96507142Y-89265000D01*
X96450000Y-89236428D01*
X96021428Y-89293571D02*
X95992857Y-89265000D01*
X95935714Y-89236428D01*
X95792857Y-89236428D01*
X95735714Y-89265000D01*
X95707142Y-89293571D01*
X95678571Y-89350714D01*
X95678571Y-89407857D01*
X95707142Y-89493571D01*
X96050000Y-89836428D01*
X95678571Y-89836428D01*
X95107142Y-89836428D02*
X95450000Y-89836428D01*
X95278571Y-89836428D02*
X95278571Y-89236428D01*
X95335714Y-89322142D01*
X95392857Y-89379285D01*
X95450000Y-89407857D01*
D11*
X99230000Y-95200000D02*
X96865000Y-95200000D01*
X96865000Y-95200000D02*
X96865000Y-94920000D01*
X112015000Y-95200000D02*
X109650000Y-95200000D01*
X112015000Y-95200000D02*
X112015000Y-94920000D01*
X109650000Y-90220000D02*
X112015000Y-90220000D01*
X112015000Y-90220000D02*
X112015000Y-92624000D01*
X96865000Y-90220000D02*
X99230000Y-90220000D01*
X96865000Y-90220000D02*
X96865000Y-92624000D01*
D12*
X109290000Y-89510000D02*
G75*
G03*
X109290000Y-89510000I-100000J0D01*
G01*
D13*
X99448333Y-95697380D02*
X99448333Y-96411666D01*
X99495952Y-96554523D01*
X99591190Y-96649761D01*
X99734047Y-96697380D01*
X99829285Y-96697380D01*
X98448333Y-96697380D02*
X99019761Y-96697380D01*
X98734047Y-96697380D02*
X98734047Y-95697380D01*
X98829285Y-95840238D01*
X98924523Y-95935476D01*
X99019761Y-95983095D01*
M02*
