G04 #@! TF.GenerationSoftware,KiCad,Pcbnew,(5.1.9)-1*
G04 #@! TF.CreationDate,2021-05-17T15:52:18-06:00*
G04 #@! TF.ProjectId,Igloo16,49676c6f-6f31-4362-9e6b-696361645f70,rev?*
G04 #@! TF.SameCoordinates,Original*
G04 #@! TF.FileFunction,Paste,Bot*
G04 #@! TF.FilePolarity,Positive*
%FSLAX46Y46*%
G04 Gerber Fmt 4.6, Leading zero omitted, Abs format (unit mm)*
G04 Created by KiCad (PCBNEW (5.1.9)-1) date 2021-05-17 15:52:18*
%MOMM*%
%LPD*%
G01*
G04 APERTURE LIST*
%ADD10C,0.100000*%
%ADD11R,0.300000X2.000000*%
G04 APERTURE END LIST*
D10*
X112915000Y-93860000D02*
G75*
G03*
X112915000Y-93860000I-1000000J0D01*
G01*
X97965000Y-93860000D02*
G75*
G03*
X97965000Y-93860000I-1000000J0D01*
G01*
D11*
X99690000Y-94810000D03*
X99690000Y-90610000D03*
X100190000Y-94810000D03*
X100190000Y-90610000D03*
X100690000Y-94810000D03*
X100690000Y-90610000D03*
X101190000Y-94810000D03*
X101190000Y-90610000D03*
X101690000Y-94810000D03*
X101690000Y-90610000D03*
X102190000Y-94810000D03*
X102190000Y-90610000D03*
X102690000Y-94810000D03*
X102690000Y-90610000D03*
X103190000Y-94810000D03*
X103190000Y-90610000D03*
X103690000Y-94810000D03*
X103690000Y-90610000D03*
X104190000Y-94810000D03*
X104190000Y-90610000D03*
X104690000Y-94810000D03*
X104690000Y-90610000D03*
X105190000Y-94810000D03*
X105190000Y-90610000D03*
X105690000Y-94810000D03*
X105690000Y-90610000D03*
X106190000Y-94810000D03*
X106190000Y-90610000D03*
X106690000Y-94810000D03*
X106690000Y-90610000D03*
X107190000Y-94810000D03*
X107190000Y-90610000D03*
X107690000Y-94810000D03*
X107690000Y-90610000D03*
X108190000Y-94810000D03*
X108190000Y-90610000D03*
X108690000Y-94810000D03*
X108690000Y-90610000D03*
X109190000Y-94810000D03*
X109190000Y-90610000D03*
M02*
