M48
; DRILL file {KiCad (5.1.9)-1} date 05/17/21 15:52:29
; FORMAT={-:-/ absolute / inch / decimal}
; #@! TF.CreationDate,2021-05-17T15:52:29-06:00
; #@! TF.GenerationSoftware,Kicad,Pcbnew,(5.1.9)-1
; #@! TF.FileFunction,Plated,1,2,PTH
FMAT,2
INCH
T1C0.0130
T2C0.0394
%
G90
G05
T1
X3.937Y-3.3878
X3.9567Y-3.9429
X3.9764Y-3.3878
X3.9961Y-3.9429
X4.0157Y-3.3878
X4.0354Y-3.9429
X4.0551Y-3.3878
X4.0748Y-3.9429
X4.0945Y-3.3878
X4.1142Y-3.9429
X4.1339Y-3.3878
X4.1535Y-3.9429
X4.1732Y-3.3878
X4.1929Y-3.9429
X4.2126Y-3.3878
X4.2323Y-3.9429
X4.252Y-3.3878
X4.2717Y-3.9429
X4.2922Y-3.3878
X4.311Y-3.9429
T2
X3.8175Y-3.6953
X4.4061Y-3.6953
T0
M30
