G04 #@! TF.GenerationSoftware,KiCad,Pcbnew,(5.1.9)-1*
G04 #@! TF.CreationDate,2021-05-17T15:52:18-06:00*
G04 #@! TF.ProjectId,Igloo16,49676c6f-6f31-4362-9e6b-696361645f70,rev?*
G04 #@! TF.SameCoordinates,Original*
G04 #@! TF.FileFunction,Copper,L1,Top*
G04 #@! TF.FilePolarity,Positive*
%FSLAX46Y46*%
G04 Gerber Fmt 4.6, Leading zero omitted, Abs format (unit mm)*
G04 Created by KiCad (PCBNEW (5.1.9)-1) date 2021-05-17 15:52:18*
%MOMM*%
%LPD*%
G01*
G04 APERTURE LIST*
G04 #@! TA.AperFunction,SMDPad,CuDef*
%ADD10R,0.381000X1.270000*%
G04 #@! TD*
G04 #@! TA.AperFunction,ComponentPad*
%ADD11C,1.500000*%
G04 #@! TD*
G04 #@! TA.AperFunction,ViaPad*
%ADD12C,0.635000*%
G04 #@! TD*
G04 #@! TA.AperFunction,Conductor*
%ADD13C,0.250000*%
G04 #@! TD*
G04 #@! TA.AperFunction,Conductor*
%ADD14C,0.150000*%
G04 #@! TD*
G04 #@! TA.AperFunction,Conductor*
%ADD15C,0.100000*%
G04 #@! TD*
G04 APERTURE END LIST*
D10*
X109722000Y-87350000D03*
X108579000Y-87350000D03*
X107436000Y-87350000D03*
X106293000Y-87350000D03*
X105150000Y-87350000D03*
X104007000Y-87350000D03*
X102864000Y-87350000D03*
X101721000Y-87350000D03*
X100578000Y-87350000D03*
X99435000Y-87350000D03*
X99435000Y-98700000D03*
X100578000Y-98700000D03*
X101721000Y-98700000D03*
X102864000Y-98700000D03*
X104007000Y-98700000D03*
X105150000Y-98700000D03*
X106293000Y-98700000D03*
X107436000Y-98700000D03*
X108579000Y-98700000D03*
X109722000Y-98700000D03*
D11*
X111915000Y-93860000D03*
X96965000Y-93860000D03*
D12*
X100500000Y-100150000D03*
X101500000Y-100150000D03*
X102500000Y-100150000D03*
X103500000Y-100150000D03*
X104500000Y-100150000D03*
X105500000Y-100150000D03*
X106500000Y-100150000D03*
X107500000Y-100150000D03*
X108500000Y-100150000D03*
X109500000Y-100150000D03*
X100000000Y-86050000D03*
X101000000Y-86050000D03*
X102000000Y-86050000D03*
X103000000Y-86050000D03*
X104000000Y-86050000D03*
X105000000Y-86050000D03*
X106000000Y-86050000D03*
X107000000Y-86050000D03*
X108000000Y-86050000D03*
X109020775Y-86050000D03*
D13*
X99435000Y-99085000D02*
X99435000Y-98700000D01*
X100500000Y-100150000D02*
X99435000Y-99085000D01*
X100578000Y-99228000D02*
X100578000Y-98700000D01*
X101500000Y-100150000D02*
X100578000Y-99228000D01*
X101721000Y-99371000D02*
X101721000Y-98700000D01*
X102500000Y-100150000D02*
X101721000Y-99371000D01*
X102864000Y-99514000D02*
X102864000Y-98700000D01*
X103500000Y-100150000D02*
X102864000Y-99514000D01*
X104007000Y-99657000D02*
X104500000Y-100150000D01*
X104007000Y-98700000D02*
X104007000Y-99657000D01*
X105150000Y-99800000D02*
X105500000Y-100150000D01*
X105150000Y-98700000D02*
X105150000Y-99800000D01*
X106293000Y-99943000D02*
X106500000Y-100150000D01*
X106293000Y-98700000D02*
X106293000Y-99943000D01*
X107436000Y-100086000D02*
X107500000Y-100150000D01*
X107436000Y-98700000D02*
X107436000Y-100086000D01*
X108579000Y-100071000D02*
X108500000Y-100150000D01*
X108579000Y-98700000D02*
X108579000Y-100071000D01*
X109722000Y-99928000D02*
X109500000Y-100150000D01*
X109722000Y-98700000D02*
X109722000Y-99928000D01*
X99435000Y-86615000D02*
X100000000Y-86050000D01*
X99435000Y-87350000D02*
X99435000Y-86615000D01*
X100578000Y-86472000D02*
X101000000Y-86050000D01*
X100578000Y-87350000D02*
X100578000Y-86472000D01*
X101721000Y-86329000D02*
X102000000Y-86050000D01*
X101721000Y-87350000D02*
X101721000Y-86329000D01*
X102864000Y-86186000D02*
X103000000Y-86050000D01*
X102864000Y-87350000D02*
X102864000Y-86186000D01*
X104007000Y-86057000D02*
X104000000Y-86050000D01*
X104007000Y-87350000D02*
X104007000Y-86057000D01*
X105150000Y-86200000D02*
X105000000Y-86050000D01*
X105150000Y-87350000D02*
X105150000Y-86200000D01*
X106293000Y-86343000D02*
X106000000Y-86050000D01*
X106293000Y-87350000D02*
X106293000Y-86343000D01*
X107436000Y-86486000D02*
X107000000Y-86050000D01*
X107436000Y-87350000D02*
X107436000Y-86486000D01*
X108579000Y-86629000D02*
X108000000Y-86050000D01*
X108579000Y-87350000D02*
X108579000Y-86629000D01*
X109722000Y-86751225D02*
X109020775Y-86050000D01*
X109722000Y-87350000D02*
X109722000Y-86751225D01*
D14*
X113925000Y-97415000D02*
X95075000Y-97415000D01*
X95075000Y-94654361D01*
X96423783Y-94654361D01*
X96513632Y-94785789D01*
X96702917Y-94856057D01*
X96902274Y-94888048D01*
X97104041Y-94880532D01*
X97300465Y-94833797D01*
X97416368Y-94785789D01*
X97506217Y-94654361D01*
X111373783Y-94654361D01*
X111463632Y-94785789D01*
X111652917Y-94856057D01*
X111852274Y-94888048D01*
X112054041Y-94880532D01*
X112250465Y-94833797D01*
X112366368Y-94785789D01*
X112456217Y-94654361D01*
X111915000Y-94113144D01*
X111373783Y-94654361D01*
X97506217Y-94654361D01*
X96965000Y-94113144D01*
X96423783Y-94654361D01*
X95075000Y-94654361D01*
X95075000Y-93797274D01*
X95936952Y-93797274D01*
X95944468Y-93999041D01*
X95991203Y-94195465D01*
X96039211Y-94311368D01*
X96170639Y-94401217D01*
X96711856Y-93860000D01*
X97218144Y-93860000D01*
X97759361Y-94401217D01*
X97890789Y-94311368D01*
X97961057Y-94122083D01*
X97993048Y-93922726D01*
X97988375Y-93797274D01*
X110886952Y-93797274D01*
X110894468Y-93999041D01*
X110941203Y-94195465D01*
X110989211Y-94311368D01*
X111120639Y-94401217D01*
X111661856Y-93860000D01*
X112168144Y-93860000D01*
X112709361Y-94401217D01*
X112840789Y-94311368D01*
X112911057Y-94122083D01*
X112943048Y-93922726D01*
X112935532Y-93720959D01*
X112888797Y-93524535D01*
X112840789Y-93408632D01*
X112709361Y-93318783D01*
X112168144Y-93860000D01*
X111661856Y-93860000D01*
X111120639Y-93318783D01*
X110989211Y-93408632D01*
X110918943Y-93597917D01*
X110886952Y-93797274D01*
X97988375Y-93797274D01*
X97985532Y-93720959D01*
X97938797Y-93524535D01*
X97890789Y-93408632D01*
X97759361Y-93318783D01*
X97218144Y-93860000D01*
X96711856Y-93860000D01*
X96170639Y-93318783D01*
X96039211Y-93408632D01*
X95968943Y-93597917D01*
X95936952Y-93797274D01*
X95075000Y-93797274D01*
X95075000Y-93065639D01*
X96423783Y-93065639D01*
X96965000Y-93606856D01*
X97506217Y-93065639D01*
X111373783Y-93065639D01*
X111915000Y-93606856D01*
X112456217Y-93065639D01*
X112366368Y-92934211D01*
X112177083Y-92863943D01*
X111977726Y-92831952D01*
X111775959Y-92839468D01*
X111579535Y-92886203D01*
X111463632Y-92934211D01*
X111373783Y-93065639D01*
X97506217Y-93065639D01*
X97416368Y-92934211D01*
X97227083Y-92863943D01*
X97027726Y-92831952D01*
X96825959Y-92839468D01*
X96629535Y-92886203D01*
X96513632Y-92934211D01*
X96423783Y-93065639D01*
X95075000Y-93065639D01*
X95075000Y-91756584D01*
X97390000Y-91756584D01*
X97390000Y-91963416D01*
X97430350Y-92166274D01*
X97509502Y-92357362D01*
X97624411Y-92529336D01*
X97770664Y-92675589D01*
X97942638Y-92790498D01*
X98133726Y-92869650D01*
X98336584Y-92910000D01*
X98543416Y-92910000D01*
X98746274Y-92869650D01*
X98937362Y-92790498D01*
X99109336Y-92675589D01*
X99255589Y-92529336D01*
X99370498Y-92357362D01*
X99449650Y-92166274D01*
X99490000Y-91963416D01*
X99490000Y-91756584D01*
X109390000Y-91756584D01*
X109390000Y-91963416D01*
X109430350Y-92166274D01*
X109509502Y-92357362D01*
X109624411Y-92529336D01*
X109770664Y-92675589D01*
X109942638Y-92790498D01*
X110133726Y-92869650D01*
X110336584Y-92910000D01*
X110543416Y-92910000D01*
X110746274Y-92869650D01*
X110937362Y-92790498D01*
X111109336Y-92675589D01*
X111255589Y-92529336D01*
X111370498Y-92357362D01*
X111449650Y-92166274D01*
X111490000Y-91963416D01*
X111490000Y-91756584D01*
X111449650Y-91553726D01*
X111370498Y-91362638D01*
X111255589Y-91190664D01*
X111109336Y-91044411D01*
X110937362Y-90929502D01*
X110746274Y-90850350D01*
X110543416Y-90810000D01*
X110336584Y-90810000D01*
X110133726Y-90850350D01*
X109942638Y-90929502D01*
X109770664Y-91044411D01*
X109624411Y-91190664D01*
X109509502Y-91362638D01*
X109430350Y-91553726D01*
X109390000Y-91756584D01*
X99490000Y-91756584D01*
X99449650Y-91553726D01*
X99370498Y-91362638D01*
X99255589Y-91190664D01*
X99109336Y-91044411D01*
X98937362Y-90929502D01*
X98746274Y-90850350D01*
X98543416Y-90810000D01*
X98336584Y-90810000D01*
X98133726Y-90850350D01*
X97942638Y-90929502D01*
X97770664Y-91044411D01*
X97624411Y-91190664D01*
X97509502Y-91362638D01*
X97430350Y-91553726D01*
X97390000Y-91756584D01*
X95075000Y-91756584D01*
X95075000Y-88675000D01*
X113925000Y-88675000D01*
X113925000Y-97415000D01*
G04 #@! TA.AperFunction,Conductor*
D15*
G36*
X113925000Y-97415000D02*
G01*
X95075000Y-97415000D01*
X95075000Y-94654361D01*
X96423783Y-94654361D01*
X96513632Y-94785789D01*
X96702917Y-94856057D01*
X96902274Y-94888048D01*
X97104041Y-94880532D01*
X97300465Y-94833797D01*
X97416368Y-94785789D01*
X97506217Y-94654361D01*
X111373783Y-94654361D01*
X111463632Y-94785789D01*
X111652917Y-94856057D01*
X111852274Y-94888048D01*
X112054041Y-94880532D01*
X112250465Y-94833797D01*
X112366368Y-94785789D01*
X112456217Y-94654361D01*
X111915000Y-94113144D01*
X111373783Y-94654361D01*
X97506217Y-94654361D01*
X96965000Y-94113144D01*
X96423783Y-94654361D01*
X95075000Y-94654361D01*
X95075000Y-93797274D01*
X95936952Y-93797274D01*
X95944468Y-93999041D01*
X95991203Y-94195465D01*
X96039211Y-94311368D01*
X96170639Y-94401217D01*
X96711856Y-93860000D01*
X97218144Y-93860000D01*
X97759361Y-94401217D01*
X97890789Y-94311368D01*
X97961057Y-94122083D01*
X97993048Y-93922726D01*
X97988375Y-93797274D01*
X110886952Y-93797274D01*
X110894468Y-93999041D01*
X110941203Y-94195465D01*
X110989211Y-94311368D01*
X111120639Y-94401217D01*
X111661856Y-93860000D01*
X112168144Y-93860000D01*
X112709361Y-94401217D01*
X112840789Y-94311368D01*
X112911057Y-94122083D01*
X112943048Y-93922726D01*
X112935532Y-93720959D01*
X112888797Y-93524535D01*
X112840789Y-93408632D01*
X112709361Y-93318783D01*
X112168144Y-93860000D01*
X111661856Y-93860000D01*
X111120639Y-93318783D01*
X110989211Y-93408632D01*
X110918943Y-93597917D01*
X110886952Y-93797274D01*
X97988375Y-93797274D01*
X97985532Y-93720959D01*
X97938797Y-93524535D01*
X97890789Y-93408632D01*
X97759361Y-93318783D01*
X97218144Y-93860000D01*
X96711856Y-93860000D01*
X96170639Y-93318783D01*
X96039211Y-93408632D01*
X95968943Y-93597917D01*
X95936952Y-93797274D01*
X95075000Y-93797274D01*
X95075000Y-93065639D01*
X96423783Y-93065639D01*
X96965000Y-93606856D01*
X97506217Y-93065639D01*
X111373783Y-93065639D01*
X111915000Y-93606856D01*
X112456217Y-93065639D01*
X112366368Y-92934211D01*
X112177083Y-92863943D01*
X111977726Y-92831952D01*
X111775959Y-92839468D01*
X111579535Y-92886203D01*
X111463632Y-92934211D01*
X111373783Y-93065639D01*
X97506217Y-93065639D01*
X97416368Y-92934211D01*
X97227083Y-92863943D01*
X97027726Y-92831952D01*
X96825959Y-92839468D01*
X96629535Y-92886203D01*
X96513632Y-92934211D01*
X96423783Y-93065639D01*
X95075000Y-93065639D01*
X95075000Y-91756584D01*
X97390000Y-91756584D01*
X97390000Y-91963416D01*
X97430350Y-92166274D01*
X97509502Y-92357362D01*
X97624411Y-92529336D01*
X97770664Y-92675589D01*
X97942638Y-92790498D01*
X98133726Y-92869650D01*
X98336584Y-92910000D01*
X98543416Y-92910000D01*
X98746274Y-92869650D01*
X98937362Y-92790498D01*
X99109336Y-92675589D01*
X99255589Y-92529336D01*
X99370498Y-92357362D01*
X99449650Y-92166274D01*
X99490000Y-91963416D01*
X99490000Y-91756584D01*
X109390000Y-91756584D01*
X109390000Y-91963416D01*
X109430350Y-92166274D01*
X109509502Y-92357362D01*
X109624411Y-92529336D01*
X109770664Y-92675589D01*
X109942638Y-92790498D01*
X110133726Y-92869650D01*
X110336584Y-92910000D01*
X110543416Y-92910000D01*
X110746274Y-92869650D01*
X110937362Y-92790498D01*
X111109336Y-92675589D01*
X111255589Y-92529336D01*
X111370498Y-92357362D01*
X111449650Y-92166274D01*
X111490000Y-91963416D01*
X111490000Y-91756584D01*
X111449650Y-91553726D01*
X111370498Y-91362638D01*
X111255589Y-91190664D01*
X111109336Y-91044411D01*
X110937362Y-90929502D01*
X110746274Y-90850350D01*
X110543416Y-90810000D01*
X110336584Y-90810000D01*
X110133726Y-90850350D01*
X109942638Y-90929502D01*
X109770664Y-91044411D01*
X109624411Y-91190664D01*
X109509502Y-91362638D01*
X109430350Y-91553726D01*
X109390000Y-91756584D01*
X99490000Y-91756584D01*
X99449650Y-91553726D01*
X99370498Y-91362638D01*
X99255589Y-91190664D01*
X99109336Y-91044411D01*
X98937362Y-90929502D01*
X98746274Y-90850350D01*
X98543416Y-90810000D01*
X98336584Y-90810000D01*
X98133726Y-90850350D01*
X97942638Y-90929502D01*
X97770664Y-91044411D01*
X97624411Y-91190664D01*
X97509502Y-91362638D01*
X97430350Y-91553726D01*
X97390000Y-91756584D01*
X95075000Y-91756584D01*
X95075000Y-88675000D01*
X113925000Y-88675000D01*
X113925000Y-97415000D01*
G37*
G04 #@! TD.AperFunction*
M02*
