G04 #@! TF.GenerationSoftware,KiCad,Pcbnew,(5.1.9)-1*
G04 #@! TF.CreationDate,2021-05-17T15:52:18-06:00*
G04 #@! TF.ProjectId,Igloo16,49676c6f-6f31-4362-9e6b-696361645f70,rev?*
G04 #@! TF.SameCoordinates,Original*
G04 #@! TF.FileFunction,Legend,Top*
G04 #@! TF.FilePolarity,Positive*
%FSLAX46Y46*%
G04 Gerber Fmt 4.6, Leading zero omitted, Abs format (unit mm)*
G04 Created by KiCad (PCBNEW (5.1.9)-1) date 2021-05-17 15:52:18*
%MOMM*%
%LPD*%
G01*
G04 APERTURE LIST*
%ADD10C,0.250000*%
%ADD11C,0.150000*%
G04 APERTURE END LIST*
D10*
X96728571Y-99869523D02*
X97014285Y-99964761D01*
X97490476Y-99964761D01*
X97680952Y-99869523D01*
X97776190Y-99774285D01*
X97871428Y-99583809D01*
X97871428Y-99393333D01*
X97776190Y-99202857D01*
X97680952Y-99107619D01*
X97490476Y-99012380D01*
X97109523Y-98917142D01*
X96919047Y-98821904D01*
X96823809Y-98726666D01*
X96728571Y-98536190D01*
X96728571Y-98345714D01*
X96823809Y-98155238D01*
X96919047Y-98060000D01*
X97109523Y-97964761D01*
X97585714Y-97964761D01*
X97871428Y-98060000D01*
X111188571Y-99869523D02*
X111474285Y-99964761D01*
X111950476Y-99964761D01*
X112140952Y-99869523D01*
X112236190Y-99774285D01*
X112331428Y-99583809D01*
X112331428Y-99393333D01*
X112236190Y-99202857D01*
X112140952Y-99107619D01*
X111950476Y-99012380D01*
X111569523Y-98917142D01*
X111379047Y-98821904D01*
X111283809Y-98726666D01*
X111188571Y-98536190D01*
X111188571Y-98345714D01*
X111283809Y-98155238D01*
X111379047Y-98060000D01*
X111569523Y-97964761D01*
X112045714Y-97964761D01*
X112331428Y-98060000D01*
X96928571Y-87604761D02*
X96928571Y-85604761D01*
X98071428Y-87604761D01*
X98071428Y-85604761D01*
X111188571Y-87604761D02*
X111188571Y-85604761D01*
X112331428Y-87604761D01*
X112331428Y-85604761D01*
D11*
X109444285Y-100828571D02*
X109787142Y-100828571D01*
X109615714Y-100828571D02*
X109615714Y-101428571D01*
X109672857Y-101342857D01*
X109730000Y-101285714D01*
X109787142Y-101257142D01*
X109072857Y-101428571D02*
X109015714Y-101428571D01*
X108958571Y-101400000D01*
X108930000Y-101371428D01*
X108901428Y-101314285D01*
X108872857Y-101200000D01*
X108872857Y-101057142D01*
X108901428Y-100942857D01*
X108930000Y-100885714D01*
X108958571Y-100857142D01*
X109015714Y-100828571D01*
X109072857Y-100828571D01*
X109130000Y-100857142D01*
X109158571Y-100885714D01*
X109187142Y-100942857D01*
X109215714Y-101057142D01*
X109215714Y-101200000D01*
X109187142Y-101314285D01*
X109158571Y-101371428D01*
X109130000Y-101400000D01*
X109072857Y-101428571D01*
X108514285Y-100828571D02*
X108400000Y-100828571D01*
X108342857Y-100857142D01*
X108314285Y-100885714D01*
X108257142Y-100971428D01*
X108228571Y-101085714D01*
X108228571Y-101314285D01*
X108257142Y-101371428D01*
X108285714Y-101400000D01*
X108342857Y-101428571D01*
X108457142Y-101428571D01*
X108514285Y-101400000D01*
X108542857Y-101371428D01*
X108571428Y-101314285D01*
X108571428Y-101171428D01*
X108542857Y-101114285D01*
X108514285Y-101085714D01*
X108457142Y-101057142D01*
X108342857Y-101057142D01*
X108285714Y-101085714D01*
X108257142Y-101114285D01*
X108228571Y-101171428D01*
X107557142Y-101171428D02*
X107614285Y-101200000D01*
X107642857Y-101228571D01*
X107671428Y-101285714D01*
X107671428Y-101314285D01*
X107642857Y-101371428D01*
X107614285Y-101400000D01*
X107557142Y-101428571D01*
X107442857Y-101428571D01*
X107385714Y-101400000D01*
X107357142Y-101371428D01*
X107328571Y-101314285D01*
X107328571Y-101285714D01*
X107357142Y-101228571D01*
X107385714Y-101200000D01*
X107442857Y-101171428D01*
X107557142Y-101171428D01*
X107614285Y-101142857D01*
X107642857Y-101114285D01*
X107671428Y-101057142D01*
X107671428Y-100942857D01*
X107642857Y-100885714D01*
X107614285Y-100857142D01*
X107557142Y-100828571D01*
X107442857Y-100828571D01*
X107385714Y-100857142D01*
X107357142Y-100885714D01*
X107328571Y-100942857D01*
X107328571Y-101057142D01*
X107357142Y-101114285D01*
X107385714Y-101142857D01*
X107442857Y-101171428D01*
X106700000Y-101428571D02*
X106300000Y-101428571D01*
X106557142Y-100828571D01*
X105385714Y-101428571D02*
X105500000Y-101428571D01*
X105557142Y-101400000D01*
X105585714Y-101371428D01*
X105642857Y-101285714D01*
X105671428Y-101171428D01*
X105671428Y-100942857D01*
X105642857Y-100885714D01*
X105614285Y-100857142D01*
X105557142Y-100828571D01*
X105442857Y-100828571D01*
X105385714Y-100857142D01*
X105357142Y-100885714D01*
X105328571Y-100942857D01*
X105328571Y-101085714D01*
X105357142Y-101142857D01*
X105385714Y-101171428D01*
X105442857Y-101200000D01*
X105557142Y-101200000D01*
X105614285Y-101171428D01*
X105642857Y-101142857D01*
X105671428Y-101085714D01*
X104357142Y-101428571D02*
X104642857Y-101428571D01*
X104671428Y-101142857D01*
X104642857Y-101171428D01*
X104585714Y-101200000D01*
X104442857Y-101200000D01*
X104385714Y-101171428D01*
X104357142Y-101142857D01*
X104328571Y-101085714D01*
X104328571Y-100942857D01*
X104357142Y-100885714D01*
X104385714Y-100857142D01*
X104442857Y-100828571D01*
X104585714Y-100828571D01*
X104642857Y-100857142D01*
X104671428Y-100885714D01*
X103385714Y-101228571D02*
X103385714Y-100828571D01*
X103528571Y-101457142D02*
X103671428Y-101028571D01*
X103300000Y-101028571D01*
X102700000Y-101428571D02*
X102328571Y-101428571D01*
X102528571Y-101200000D01*
X102442857Y-101200000D01*
X102385714Y-101171428D01*
X102357142Y-101142857D01*
X102328571Y-101085714D01*
X102328571Y-100942857D01*
X102357142Y-100885714D01*
X102385714Y-100857142D01*
X102442857Y-100828571D01*
X102614285Y-100828571D01*
X102671428Y-100857142D01*
X102700000Y-100885714D01*
X101671428Y-101371428D02*
X101642857Y-101400000D01*
X101585714Y-101428571D01*
X101442857Y-101428571D01*
X101385714Y-101400000D01*
X101357142Y-101371428D01*
X101328571Y-101314285D01*
X101328571Y-101257142D01*
X101357142Y-101171428D01*
X101700000Y-100828571D01*
X101328571Y-100828571D01*
X100328571Y-100828571D02*
X100671428Y-100828571D01*
X100500000Y-100828571D02*
X100500000Y-101428571D01*
X100557142Y-101342857D01*
X100614285Y-101285714D01*
X100671428Y-101257142D01*
X109171428Y-85171428D02*
X108828571Y-85171428D01*
X109000000Y-85171428D02*
X109000000Y-84571428D01*
X108942857Y-84657142D01*
X108885714Y-84714285D01*
X108828571Y-84742857D01*
X107728571Y-84628571D02*
X107757142Y-84600000D01*
X107814285Y-84571428D01*
X107957142Y-84571428D01*
X108014285Y-84600000D01*
X108042857Y-84628571D01*
X108071428Y-84685714D01*
X108071428Y-84742857D01*
X108042857Y-84828571D01*
X107700000Y-85171428D01*
X108071428Y-85171428D01*
X106700000Y-84571428D02*
X107071428Y-84571428D01*
X106871428Y-84800000D01*
X106957142Y-84800000D01*
X107014285Y-84828571D01*
X107042857Y-84857142D01*
X107071428Y-84914285D01*
X107071428Y-85057142D01*
X107042857Y-85114285D01*
X107014285Y-85142857D01*
X106957142Y-85171428D01*
X106785714Y-85171428D01*
X106728571Y-85142857D01*
X106700000Y-85114285D01*
X106114285Y-84771428D02*
X106114285Y-85171428D01*
X105971428Y-84542857D02*
X105828571Y-84971428D01*
X106200000Y-84971428D01*
X105142857Y-84571428D02*
X104857142Y-84571428D01*
X104828571Y-84857142D01*
X104857142Y-84828571D01*
X104914285Y-84800000D01*
X105057142Y-84800000D01*
X105114285Y-84828571D01*
X105142857Y-84857142D01*
X105171428Y-84914285D01*
X105171428Y-85057142D01*
X105142857Y-85114285D01*
X105114285Y-85142857D01*
X105057142Y-85171428D01*
X104914285Y-85171428D01*
X104857142Y-85142857D01*
X104828571Y-85114285D01*
X104114285Y-84571428D02*
X104000000Y-84571428D01*
X103942857Y-84600000D01*
X103914285Y-84628571D01*
X103857142Y-84714285D01*
X103828571Y-84828571D01*
X103828571Y-85057142D01*
X103857142Y-85114285D01*
X103885714Y-85142857D01*
X103942857Y-85171428D01*
X104057142Y-85171428D01*
X104114285Y-85142857D01*
X104142857Y-85114285D01*
X104171428Y-85057142D01*
X104171428Y-84914285D01*
X104142857Y-84857142D01*
X104114285Y-84828571D01*
X104057142Y-84800000D01*
X103942857Y-84800000D01*
X103885714Y-84828571D01*
X103857142Y-84857142D01*
X103828571Y-84914285D01*
X102800000Y-84571428D02*
X103200000Y-84571428D01*
X102942857Y-85171428D01*
X101942857Y-84828571D02*
X101885714Y-84800000D01*
X101857142Y-84771428D01*
X101828571Y-84714285D01*
X101828571Y-84685714D01*
X101857142Y-84628571D01*
X101885714Y-84600000D01*
X101942857Y-84571428D01*
X102057142Y-84571428D01*
X102114285Y-84600000D01*
X102142857Y-84628571D01*
X102171428Y-84685714D01*
X102171428Y-84714285D01*
X102142857Y-84771428D01*
X102114285Y-84800000D01*
X102057142Y-84828571D01*
X101942857Y-84828571D01*
X101885714Y-84857142D01*
X101857142Y-84885714D01*
X101828571Y-84942857D01*
X101828571Y-85057142D01*
X101857142Y-85114285D01*
X101885714Y-85142857D01*
X101942857Y-85171428D01*
X102057142Y-85171428D01*
X102114285Y-85142857D01*
X102142857Y-85114285D01*
X102171428Y-85057142D01*
X102171428Y-84942857D01*
X102142857Y-84885714D01*
X102114285Y-84857142D01*
X102057142Y-84828571D01*
X100885714Y-85171428D02*
X101000000Y-85171428D01*
X101057142Y-85142857D01*
X101085714Y-85114285D01*
X101142857Y-85028571D01*
X101171428Y-84914285D01*
X101171428Y-84685714D01*
X101142857Y-84628571D01*
X101114285Y-84600000D01*
X101057142Y-84571428D01*
X100942857Y-84571428D01*
X100885714Y-84600000D01*
X100857142Y-84628571D01*
X100828571Y-84685714D01*
X100828571Y-84828571D01*
X100857142Y-84885714D01*
X100885714Y-84914285D01*
X100942857Y-84942857D01*
X101057142Y-84942857D01*
X101114285Y-84914285D01*
X101142857Y-84885714D01*
X101171428Y-84828571D01*
X99885714Y-85171428D02*
X99542857Y-85171428D01*
X99714285Y-85171428D02*
X99714285Y-84571428D01*
X99657142Y-84657142D01*
X99600000Y-84714285D01*
X99542857Y-84742857D01*
X100257142Y-84571428D02*
X100314285Y-84571428D01*
X100371428Y-84600000D01*
X100400000Y-84628571D01*
X100428571Y-84685714D01*
X100457142Y-84800000D01*
X100457142Y-84942857D01*
X100428571Y-85057142D01*
X100400000Y-85114285D01*
X100371428Y-85142857D01*
X100314285Y-85171428D01*
X100257142Y-85171428D01*
X100200000Y-85142857D01*
X100171428Y-85114285D01*
X100142857Y-85057142D01*
X100114285Y-84942857D01*
X100114285Y-84800000D01*
X100142857Y-84685714D01*
X100171428Y-84628571D01*
X100200000Y-84600000D01*
X100257142Y-84571428D01*
X103816595Y-90231380D02*
X103816595Y-91040904D01*
X103864214Y-91136142D01*
X103911833Y-91183761D01*
X104007071Y-91231380D01*
X104197547Y-91231380D01*
X104292785Y-91183761D01*
X104340404Y-91136142D01*
X104388023Y-91040904D01*
X104388023Y-90231380D01*
X104816595Y-90326619D02*
X104864214Y-90279000D01*
X104959452Y-90231380D01*
X105197547Y-90231380D01*
X105292785Y-90279000D01*
X105340404Y-90326619D01*
X105388023Y-90421857D01*
X105388023Y-90517095D01*
X105340404Y-90659952D01*
X104768976Y-91231380D01*
X105388023Y-91231380D01*
X103816595Y-94723380D02*
X103816595Y-95532904D01*
X103864214Y-95628142D01*
X103911833Y-95675761D01*
X104007071Y-95723380D01*
X104197547Y-95723380D01*
X104292785Y-95675761D01*
X104340404Y-95628142D01*
X104388023Y-95532904D01*
X104388023Y-94723380D01*
X105388023Y-95723380D02*
X104816595Y-95723380D01*
X105102309Y-95723380D02*
X105102309Y-94723380D01*
X105007071Y-94866238D01*
X104911833Y-94961476D01*
X104816595Y-95009095D01*
M02*
