G04 #@! TF.GenerationSoftware,KiCad,Pcbnew,(5.1.9)-1*
G04 #@! TF.CreationDate,2021-05-17T15:52:18-06:00*
G04 #@! TF.ProjectId,Igloo16,49676c6f-6f31-4362-9e6b-696361645f70,rev?*
G04 #@! TF.SameCoordinates,Original*
G04 #@! TF.FileFunction,Copper,L2,Bot*
G04 #@! TF.FilePolarity,Positive*
%FSLAX46Y46*%
G04 Gerber Fmt 4.6, Leading zero omitted, Abs format (unit mm)*
G04 Created by KiCad (PCBNEW (5.1.9)-1) date 2021-05-17 15:52:18*
%MOMM*%
%LPD*%
G01*
G04 APERTURE LIST*
G04 #@! TA.AperFunction,ComponentPad*
%ADD10C,1.500000*%
G04 #@! TD*
G04 #@! TA.AperFunction,SMDPad,CuDef*
%ADD11R,0.300000X2.000000*%
G04 #@! TD*
G04 #@! TA.AperFunction,ViaPad*
%ADD12C,0.635000*%
G04 #@! TD*
G04 #@! TA.AperFunction,Conductor*
%ADD13C,0.250000*%
G04 #@! TD*
G04 #@! TA.AperFunction,Conductor*
%ADD14C,0.254000*%
G04 #@! TD*
G04 #@! TA.AperFunction,Conductor*
%ADD15C,0.100000*%
G04 #@! TD*
G04 APERTURE END LIST*
D10*
X111915000Y-93860000D03*
X96965000Y-93860000D03*
D11*
X99690000Y-94810000D03*
X99690000Y-90610000D03*
X100190000Y-94810000D03*
X100190000Y-90610000D03*
X100690000Y-94810000D03*
X100690000Y-90610000D03*
X101190000Y-94810000D03*
X101190000Y-90610000D03*
X101690000Y-94810000D03*
X101690000Y-90610000D03*
X102190000Y-94810000D03*
X102190000Y-90610000D03*
X102690000Y-94810000D03*
X102690000Y-90610000D03*
X103190000Y-94810000D03*
X103190000Y-90610000D03*
X103690000Y-94810000D03*
X103690000Y-90610000D03*
X104190000Y-94810000D03*
X104190000Y-90610000D03*
X104690000Y-94810000D03*
X104690000Y-90610000D03*
X105190000Y-94810000D03*
X105190000Y-90610000D03*
X105690000Y-94810000D03*
X105690000Y-90610000D03*
X106190000Y-94810000D03*
X106190000Y-90610000D03*
X106690000Y-94810000D03*
X106690000Y-90610000D03*
X107190000Y-94810000D03*
X107190000Y-90610000D03*
X107690000Y-94810000D03*
X107690000Y-90610000D03*
X108190000Y-94810000D03*
X108190000Y-90610000D03*
X108690000Y-94810000D03*
X108690000Y-90610000D03*
X109190000Y-94810000D03*
X109190000Y-90610000D03*
D12*
X100500000Y-100150000D03*
X101500000Y-100150000D03*
X102500000Y-100150000D03*
X103500000Y-100150000D03*
X104500000Y-100150000D03*
X105500000Y-100150000D03*
X106500000Y-100150000D03*
X107500000Y-100150000D03*
X108500000Y-100150000D03*
X109500000Y-100150000D03*
X100000000Y-86050000D03*
X101000000Y-86050000D03*
X102000000Y-86050000D03*
X103000000Y-86050000D03*
X104000000Y-86050000D03*
X105000000Y-86050000D03*
X106000000Y-86050000D03*
X107000000Y-86050000D03*
X108000000Y-86050000D03*
X109020775Y-86050000D03*
D13*
X106690000Y-94860000D02*
X106690000Y-95240000D01*
X100690000Y-94340000D02*
X100665001Y-94315001D01*
X99690000Y-92845002D02*
X99690000Y-90860000D01*
X99690000Y-94560000D02*
X99690000Y-92845002D01*
X100690000Y-94340000D02*
X100690000Y-90860000D01*
X100690000Y-94560000D02*
X100690000Y-94340000D01*
X101690000Y-94070000D02*
X101690000Y-90860000D01*
X101690000Y-94560000D02*
X101690000Y-94070000D01*
X102690000Y-94160000D02*
X102690000Y-90860000D01*
X102690000Y-94560000D02*
X102690000Y-94160000D01*
X104690000Y-92845002D02*
X104690000Y-90860000D01*
X104690000Y-94560000D02*
X104690000Y-92845002D01*
X105690000Y-94260000D02*
X105690000Y-90860000D01*
X105690000Y-94560000D02*
X105690000Y-94260000D01*
X106690000Y-94560000D02*
X106690000Y-90860000D01*
X107690000Y-94240000D02*
X107690000Y-90860000D01*
X107690000Y-94560000D02*
X107690000Y-94240000D01*
X108690000Y-92845002D02*
X108690000Y-90860000D01*
X108690000Y-94560000D02*
X108690000Y-92845002D01*
X103690000Y-92260000D02*
X103690000Y-94560000D01*
X103690000Y-90860000D02*
X103690000Y-92260000D01*
X100190000Y-94860000D02*
X100190000Y-98920000D01*
X100500000Y-99230000D02*
X100190000Y-98920000D01*
X100500000Y-100150000D02*
X100500000Y-99230000D01*
X101190000Y-94860000D02*
X101190000Y-98850000D01*
X101500000Y-99160000D02*
X101190000Y-98850000D01*
X101500000Y-100150000D02*
X101500000Y-99160000D01*
X102190000Y-97110000D02*
X102190000Y-94860000D01*
X102500000Y-97420000D02*
X102190000Y-97110000D01*
X102500000Y-100150000D02*
X102500000Y-97420000D01*
X103190000Y-94860000D02*
X103190000Y-96840000D01*
X103190000Y-96840000D02*
X103500000Y-97150000D01*
X103500000Y-100150000D02*
X103500000Y-97150000D01*
X104190000Y-94860000D02*
X104190000Y-96570000D01*
X104190000Y-96570000D02*
X104500000Y-96880000D01*
X104500000Y-100150000D02*
X104500000Y-96880000D01*
X105190000Y-94860000D02*
X105190000Y-97570000D01*
X105190000Y-97570000D02*
X105500000Y-97880000D01*
X105500000Y-97880000D02*
X105500000Y-100150000D01*
X106500000Y-98900000D02*
X106500000Y-99040000D01*
X106190000Y-97300000D02*
X106190000Y-94860000D01*
X106500000Y-97610000D02*
X106190000Y-97300000D01*
X106500000Y-100150000D02*
X106500000Y-97610000D01*
X107190000Y-97030000D02*
X107190000Y-94860000D01*
X107500000Y-97340000D02*
X107190000Y-97030000D01*
X107500000Y-100150000D02*
X107500000Y-97340000D01*
X108190000Y-96760000D02*
X108190000Y-94860000D01*
X108500000Y-97070000D02*
X108190000Y-96760000D01*
X108500000Y-100150000D02*
X108500000Y-97070000D01*
X109500000Y-98900000D02*
X109500000Y-99140000D01*
X109190000Y-96490000D02*
X109190000Y-94860000D01*
X109500000Y-96800000D02*
X109190000Y-96490000D01*
X109500000Y-100150000D02*
X109500000Y-96800000D01*
X100190000Y-86240000D02*
X100190000Y-90860000D01*
X100000000Y-86050000D02*
X100190000Y-86240000D01*
X101190000Y-86240000D02*
X101190000Y-90860000D01*
X101000000Y-86050000D02*
X101190000Y-86240000D01*
X102190000Y-86240000D02*
X102190000Y-90860000D01*
X102000000Y-86050000D02*
X102190000Y-86240000D01*
X103190000Y-86240000D02*
X103190000Y-90860000D01*
X103000000Y-86050000D02*
X103190000Y-86240000D01*
X104165001Y-91135001D02*
X104190000Y-91160000D01*
X104190000Y-86240000D02*
X104190000Y-90860000D01*
X104000000Y-86050000D02*
X104190000Y-86240000D01*
X105190000Y-89950000D02*
X105190000Y-90860000D01*
X105000000Y-86050000D02*
X105000000Y-88490000D01*
X105190000Y-88680000D02*
X105190000Y-90610000D01*
X105000000Y-88490000D02*
X105190000Y-88680000D01*
X106214999Y-91135001D02*
X106190000Y-91160000D01*
X106190000Y-86240000D02*
X106190000Y-90860000D01*
X106000000Y-86050000D02*
X106190000Y-86240000D01*
X107190000Y-86240000D02*
X107190000Y-90860000D01*
X107000000Y-86050000D02*
X107190000Y-86240000D01*
X108190000Y-86240000D02*
X108190000Y-90860000D01*
X108000000Y-86050000D02*
X108190000Y-86240000D01*
X109220000Y-91130000D02*
X109190000Y-91160000D01*
X109220000Y-90190000D02*
X109220000Y-91130000D01*
X109190000Y-86219225D02*
X109190000Y-90860000D01*
X109020775Y-86050000D02*
X109190000Y-86219225D01*
D14*
X104425573Y-84796920D02*
X104426382Y-84797000D01*
X104449290Y-84797000D01*
X104471626Y-84797075D01*
X104472415Y-84797000D01*
X109182186Y-84797000D01*
X109602409Y-84864052D01*
X110026845Y-84939098D01*
X110422637Y-85016641D01*
X110790641Y-85096544D01*
X111131739Y-85178666D01*
X111446733Y-85262827D01*
X111736549Y-85348851D01*
X112002025Y-85436519D01*
X112243994Y-85525570D01*
X112463398Y-85615739D01*
X112661172Y-85706721D01*
X112832647Y-85795264D01*
X113133880Y-85981185D01*
X113361963Y-86162321D01*
X113533460Y-86340877D01*
X113661060Y-86519108D01*
X113756173Y-86702323D01*
X113827160Y-86896849D01*
X113879674Y-87107586D01*
X113918344Y-87336882D01*
X113948296Y-87585118D01*
X113973001Y-87824553D01*
X113973000Y-98095456D01*
X113948296Y-98334880D01*
X113918344Y-98583117D01*
X113879674Y-98812413D01*
X113827160Y-99023150D01*
X113756173Y-99217676D01*
X113661060Y-99400891D01*
X113533462Y-99579119D01*
X113361963Y-99757678D01*
X113133879Y-99938815D01*
X112832647Y-100124735D01*
X112661172Y-100213278D01*
X112463398Y-100304260D01*
X112243994Y-100394429D01*
X112002025Y-100483480D01*
X111736549Y-100571148D01*
X111446733Y-100657172D01*
X111131739Y-100741333D01*
X110790641Y-100823455D01*
X110422637Y-100903358D01*
X110026845Y-100980901D01*
X109602418Y-101055946D01*
X109182184Y-101123000D01*
X99569203Y-101123000D01*
X99169483Y-101047772D01*
X98758397Y-100963089D01*
X98375021Y-100876564D01*
X98018681Y-100788348D01*
X97688361Y-100698525D01*
X97383421Y-100607298D01*
X97102823Y-100514780D01*
X96845872Y-100421214D01*
X96611601Y-100326784D01*
X96399212Y-100231777D01*
X96207757Y-100136462D01*
X96041670Y-100044146D01*
X95749483Y-99851411D01*
X95527643Y-99664702D01*
X95360079Y-99481152D01*
X95234792Y-99298206D01*
X95141108Y-99110639D01*
X95071122Y-98912443D01*
X95019329Y-98699001D01*
X94981090Y-98467976D01*
X94951303Y-98218855D01*
X94926609Y-97979152D01*
X94926609Y-94816993D01*
X96187612Y-94816993D01*
X96253137Y-95055860D01*
X96500116Y-95171760D01*
X96764960Y-95237250D01*
X97037492Y-95249812D01*
X97307238Y-95208965D01*
X97563832Y-95116277D01*
X97676863Y-95055860D01*
X97742388Y-94816993D01*
X96965000Y-94039605D01*
X96187612Y-94816993D01*
X94926609Y-94816993D01*
X94926609Y-93932492D01*
X95575188Y-93932492D01*
X95616035Y-94202238D01*
X95708723Y-94458832D01*
X95769140Y-94571863D01*
X96008007Y-94637388D01*
X96785395Y-93860000D01*
X97144605Y-93860000D01*
X97921993Y-94637388D01*
X98160860Y-94571863D01*
X98276760Y-94324884D01*
X98342250Y-94060040D01*
X98353420Y-93817688D01*
X98901974Y-93817688D01*
X98905000Y-94524250D01*
X99063750Y-94683000D01*
X99661176Y-94683000D01*
X99661176Y-94937000D01*
X99063750Y-94937000D01*
X98905000Y-95095750D01*
X98901974Y-95802312D01*
X98912734Y-95926933D01*
X98947599Y-96047059D01*
X99005230Y-96158076D01*
X99083412Y-96255716D01*
X99179140Y-96336228D01*
X99288736Y-96396517D01*
X99407987Y-96434266D01*
X99508250Y-96445000D01*
X99562998Y-96390252D01*
X99562998Y-96445000D01*
X99688000Y-96445000D01*
X99688001Y-98895347D01*
X99685573Y-98920000D01*
X99695265Y-99018409D01*
X99723970Y-99113036D01*
X99770584Y-99200245D01*
X99817601Y-99257535D01*
X99817604Y-99257538D01*
X99833317Y-99276684D01*
X99852463Y-99292397D01*
X99998001Y-99437935D01*
X99998001Y-99669828D01*
X99960547Y-99707282D01*
X99884542Y-99821031D01*
X99832190Y-99947422D01*
X99805500Y-100081598D01*
X99805500Y-100218402D01*
X99832190Y-100352578D01*
X99884542Y-100478969D01*
X99960547Y-100592718D01*
X100057282Y-100689453D01*
X100171031Y-100765458D01*
X100297422Y-100817810D01*
X100431598Y-100844500D01*
X100568402Y-100844500D01*
X100702578Y-100817810D01*
X100828969Y-100765458D01*
X100942718Y-100689453D01*
X101000000Y-100632171D01*
X101057282Y-100689453D01*
X101171031Y-100765458D01*
X101297422Y-100817810D01*
X101431598Y-100844500D01*
X101568402Y-100844500D01*
X101702578Y-100817810D01*
X101828969Y-100765458D01*
X101942718Y-100689453D01*
X102000000Y-100632171D01*
X102057282Y-100689453D01*
X102171031Y-100765458D01*
X102297422Y-100817810D01*
X102431598Y-100844500D01*
X102568402Y-100844500D01*
X102702578Y-100817810D01*
X102828969Y-100765458D01*
X102942718Y-100689453D01*
X103000000Y-100632171D01*
X103057282Y-100689453D01*
X103171031Y-100765458D01*
X103297422Y-100817810D01*
X103431598Y-100844500D01*
X103568402Y-100844500D01*
X103702578Y-100817810D01*
X103828969Y-100765458D01*
X103942718Y-100689453D01*
X104000000Y-100632171D01*
X104057282Y-100689453D01*
X104171031Y-100765458D01*
X104297422Y-100817810D01*
X104431598Y-100844500D01*
X104568402Y-100844500D01*
X104702578Y-100817810D01*
X104828969Y-100765458D01*
X104942718Y-100689453D01*
X105000000Y-100632171D01*
X105057282Y-100689453D01*
X105171031Y-100765458D01*
X105297422Y-100817810D01*
X105431598Y-100844500D01*
X105568402Y-100844500D01*
X105702578Y-100817810D01*
X105828969Y-100765458D01*
X105942718Y-100689453D01*
X106000000Y-100632171D01*
X106057282Y-100689453D01*
X106171031Y-100765458D01*
X106297422Y-100817810D01*
X106431598Y-100844500D01*
X106568402Y-100844500D01*
X106702578Y-100817810D01*
X106828969Y-100765458D01*
X106942718Y-100689453D01*
X107000000Y-100632171D01*
X107057282Y-100689453D01*
X107171031Y-100765458D01*
X107297422Y-100817810D01*
X107431598Y-100844500D01*
X107568402Y-100844500D01*
X107702578Y-100817810D01*
X107828969Y-100765458D01*
X107942718Y-100689453D01*
X108000000Y-100632171D01*
X108057282Y-100689453D01*
X108171031Y-100765458D01*
X108297422Y-100817810D01*
X108431598Y-100844500D01*
X108568402Y-100844500D01*
X108702578Y-100817810D01*
X108828969Y-100765458D01*
X108942718Y-100689453D01*
X109000000Y-100632171D01*
X109057282Y-100689453D01*
X109171031Y-100765458D01*
X109297422Y-100817810D01*
X109431598Y-100844500D01*
X109568402Y-100844500D01*
X109702578Y-100817810D01*
X109828969Y-100765458D01*
X109942718Y-100689453D01*
X110039453Y-100592718D01*
X110115458Y-100478969D01*
X110167810Y-100352578D01*
X110194500Y-100218402D01*
X110194500Y-100081598D01*
X110167810Y-99947422D01*
X110115458Y-99821031D01*
X110039453Y-99707282D01*
X110002000Y-99669829D01*
X110002000Y-96824642D01*
X110004427Y-96799999D01*
X110002000Y-96775356D01*
X110002000Y-96775347D01*
X109994736Y-96701591D01*
X109966031Y-96606964D01*
X109919417Y-96519755D01*
X109856684Y-96443316D01*
X109837532Y-96427598D01*
X109692000Y-96282066D01*
X109692000Y-95948337D01*
X109711545Y-95883905D01*
X109718824Y-95810000D01*
X109718824Y-94816993D01*
X111137612Y-94816993D01*
X111203137Y-95055860D01*
X111450116Y-95171760D01*
X111714960Y-95237250D01*
X111987492Y-95249812D01*
X112257238Y-95208965D01*
X112513832Y-95116277D01*
X112626863Y-95055860D01*
X112692388Y-94816993D01*
X111915000Y-94039605D01*
X111137612Y-94816993D01*
X109718824Y-94816993D01*
X109718824Y-93932492D01*
X110525188Y-93932492D01*
X110566035Y-94202238D01*
X110658723Y-94458832D01*
X110719140Y-94571863D01*
X110958007Y-94637388D01*
X111735395Y-93860000D01*
X112094605Y-93860000D01*
X112871993Y-94637388D01*
X113110860Y-94571863D01*
X113226760Y-94324884D01*
X113292250Y-94060040D01*
X113304812Y-93787508D01*
X113263965Y-93517762D01*
X113171277Y-93261168D01*
X113110860Y-93148137D01*
X112871993Y-93082612D01*
X112094605Y-93860000D01*
X111735395Y-93860000D01*
X110958007Y-93082612D01*
X110719140Y-93148137D01*
X110603240Y-93395116D01*
X110537750Y-93659960D01*
X110525188Y-93932492D01*
X109718824Y-93932492D01*
X109718824Y-93810000D01*
X109711545Y-93736095D01*
X109689988Y-93665030D01*
X109654981Y-93599537D01*
X109607869Y-93542131D01*
X109550463Y-93495019D01*
X109484970Y-93460012D01*
X109413905Y-93438455D01*
X109351019Y-93432261D01*
X109296588Y-93364284D01*
X109200860Y-93283772D01*
X109091264Y-93223483D01*
X108972013Y-93185734D01*
X108871750Y-93175000D01*
X108713000Y-93333750D01*
X108713000Y-93622023D01*
X108690012Y-93665030D01*
X108690000Y-93665070D01*
X108689988Y-93665030D01*
X108667000Y-93622023D01*
X108667000Y-93333750D01*
X108508250Y-93175000D01*
X108407987Y-93185734D01*
X108288736Y-93223483D01*
X108190000Y-93277798D01*
X108091264Y-93223483D01*
X107972013Y-93185734D01*
X107871750Y-93175000D01*
X107713000Y-93333750D01*
X107713000Y-93622023D01*
X107690012Y-93665030D01*
X107690000Y-93665070D01*
X107689988Y-93665030D01*
X107667000Y-93622023D01*
X107667000Y-93333750D01*
X107508250Y-93175000D01*
X107407987Y-93185734D01*
X107288736Y-93223483D01*
X107190000Y-93277798D01*
X107091264Y-93223483D01*
X106972013Y-93185734D01*
X106871750Y-93175000D01*
X106713000Y-93333750D01*
X106713000Y-93622023D01*
X106690012Y-93665030D01*
X106690000Y-93665070D01*
X106689988Y-93665030D01*
X106667000Y-93622023D01*
X106667000Y-93333750D01*
X106508250Y-93175000D01*
X106407987Y-93185734D01*
X106288736Y-93223483D01*
X106190000Y-93277798D01*
X106091264Y-93223483D01*
X105972013Y-93185734D01*
X105871750Y-93175000D01*
X105713000Y-93333750D01*
X105713000Y-93622023D01*
X105690012Y-93665030D01*
X105690000Y-93665070D01*
X105689988Y-93665030D01*
X105667000Y-93622023D01*
X105667000Y-93333750D01*
X105508250Y-93175000D01*
X105407987Y-93185734D01*
X105288736Y-93223483D01*
X105190000Y-93277798D01*
X105091264Y-93223483D01*
X104972013Y-93185734D01*
X104871750Y-93175000D01*
X104713000Y-93333750D01*
X104713000Y-93622023D01*
X104690012Y-93665030D01*
X104690000Y-93665070D01*
X104689988Y-93665030D01*
X104667000Y-93622023D01*
X104667000Y-93333750D01*
X104508250Y-93175000D01*
X104407987Y-93185734D01*
X104288736Y-93223483D01*
X104190000Y-93277798D01*
X104091264Y-93223483D01*
X103972013Y-93185734D01*
X103871750Y-93175000D01*
X103713000Y-93333750D01*
X103713000Y-93622023D01*
X103690012Y-93665030D01*
X103690000Y-93665070D01*
X103689988Y-93665030D01*
X103667000Y-93622023D01*
X103667000Y-93333750D01*
X103508250Y-93175000D01*
X103407987Y-93185734D01*
X103288736Y-93223483D01*
X103190000Y-93277798D01*
X103091264Y-93223483D01*
X102972013Y-93185734D01*
X102871750Y-93175000D01*
X102713000Y-93333750D01*
X102713000Y-93622023D01*
X102690012Y-93665030D01*
X102690000Y-93665070D01*
X102689988Y-93665030D01*
X102667000Y-93622023D01*
X102667000Y-93333750D01*
X102508250Y-93175000D01*
X102407987Y-93185734D01*
X102288736Y-93223483D01*
X102190000Y-93277798D01*
X102091264Y-93223483D01*
X101972013Y-93185734D01*
X101871750Y-93175000D01*
X101713000Y-93333750D01*
X101713000Y-93622023D01*
X101690012Y-93665030D01*
X101690000Y-93665070D01*
X101689988Y-93665030D01*
X101667000Y-93622023D01*
X101667000Y-93333750D01*
X101508250Y-93175000D01*
X101407987Y-93185734D01*
X101288736Y-93223483D01*
X101190000Y-93277798D01*
X101091264Y-93223483D01*
X100972013Y-93185734D01*
X100871750Y-93175000D01*
X100713000Y-93333750D01*
X100713000Y-93622023D01*
X100690012Y-93665030D01*
X100690000Y-93665070D01*
X100689988Y-93665030D01*
X100667000Y-93622023D01*
X100667000Y-93333750D01*
X100508250Y-93175000D01*
X100407987Y-93185734D01*
X100288736Y-93223483D01*
X100190000Y-93277798D01*
X100091264Y-93223483D01*
X99972013Y-93185734D01*
X99871750Y-93175000D01*
X99713000Y-93333750D01*
X99713000Y-93622023D01*
X99690012Y-93665030D01*
X99668455Y-93736095D01*
X99667000Y-93750868D01*
X99667000Y-93333750D01*
X99508250Y-93175000D01*
X99407987Y-93185734D01*
X99288736Y-93223483D01*
X99179140Y-93283772D01*
X99083412Y-93364284D01*
X99005230Y-93461924D01*
X98947599Y-93572941D01*
X98912734Y-93693067D01*
X98901974Y-93817688D01*
X98353420Y-93817688D01*
X98354812Y-93787508D01*
X98313965Y-93517762D01*
X98221277Y-93261168D01*
X98160860Y-93148137D01*
X97921993Y-93082612D01*
X97144605Y-93860000D01*
X96785395Y-93860000D01*
X96008007Y-93082612D01*
X95769140Y-93148137D01*
X95653240Y-93395116D01*
X95587750Y-93659960D01*
X95575188Y-93932492D01*
X94926609Y-93932492D01*
X94926609Y-92903007D01*
X96187612Y-92903007D01*
X96965000Y-93680395D01*
X97742388Y-92903007D01*
X97676863Y-92664140D01*
X97429884Y-92548240D01*
X97165040Y-92482750D01*
X96892508Y-92470188D01*
X96622762Y-92511035D01*
X96366168Y-92603723D01*
X96253137Y-92664140D01*
X96187612Y-92903007D01*
X94926609Y-92903007D01*
X94926609Y-91751462D01*
X97338000Y-91751462D01*
X97338000Y-91968538D01*
X97380349Y-92181442D01*
X97463420Y-92381993D01*
X97584021Y-92562484D01*
X97737516Y-92715979D01*
X97918007Y-92836580D01*
X98118558Y-92919651D01*
X98331462Y-92962000D01*
X98548538Y-92962000D01*
X98761442Y-92919651D01*
X98961993Y-92836580D01*
X99142484Y-92715979D01*
X99295979Y-92562484D01*
X99416580Y-92381993D01*
X99474807Y-92241420D01*
X99508250Y-92245000D01*
X99667000Y-92086250D01*
X99667000Y-91669132D01*
X99668455Y-91683905D01*
X99690012Y-91754970D01*
X99713000Y-91797977D01*
X99713000Y-92086250D01*
X99871750Y-92245000D01*
X99972013Y-92234266D01*
X100091264Y-92196517D01*
X100190000Y-92142202D01*
X100288736Y-92196517D01*
X100407987Y-92234266D01*
X100508250Y-92245000D01*
X100667000Y-92086250D01*
X100667000Y-91797977D01*
X100689988Y-91754970D01*
X100690000Y-91754930D01*
X100690012Y-91754970D01*
X100713000Y-91797977D01*
X100713000Y-92086250D01*
X100871750Y-92245000D01*
X100972013Y-92234266D01*
X101091264Y-92196517D01*
X101190000Y-92142202D01*
X101288736Y-92196517D01*
X101407987Y-92234266D01*
X101508250Y-92245000D01*
X101667000Y-92086250D01*
X101667000Y-91797977D01*
X101689988Y-91754970D01*
X101690000Y-91754930D01*
X101690012Y-91754970D01*
X101713000Y-91797977D01*
X101713000Y-92086250D01*
X101871750Y-92245000D01*
X101972013Y-92234266D01*
X102091264Y-92196517D01*
X102190000Y-92142202D01*
X102288736Y-92196517D01*
X102407987Y-92234266D01*
X102508250Y-92245000D01*
X102667000Y-92086250D01*
X102667000Y-91797977D01*
X102689988Y-91754970D01*
X102690000Y-91754930D01*
X102690012Y-91754970D01*
X102713000Y-91797977D01*
X102713000Y-92086250D01*
X102871750Y-92245000D01*
X102972013Y-92234266D01*
X103091264Y-92196517D01*
X103190000Y-92142202D01*
X103288736Y-92196517D01*
X103407987Y-92234266D01*
X103508250Y-92245000D01*
X103667000Y-92086250D01*
X103667000Y-91797977D01*
X103689988Y-91754970D01*
X103690000Y-91754930D01*
X103690012Y-91754970D01*
X103713000Y-91797977D01*
X103713000Y-92086250D01*
X103871750Y-92245000D01*
X103972013Y-92234266D01*
X104091264Y-92196517D01*
X104190000Y-92142202D01*
X104288736Y-92196517D01*
X104407987Y-92234266D01*
X104508250Y-92245000D01*
X104667000Y-92086250D01*
X104667000Y-91797977D01*
X104689988Y-91754970D01*
X104690000Y-91754930D01*
X104690012Y-91754970D01*
X104713000Y-91797977D01*
X104713000Y-92086250D01*
X104871750Y-92245000D01*
X104972013Y-92234266D01*
X105091264Y-92196517D01*
X105190000Y-92142202D01*
X105288736Y-92196517D01*
X105407987Y-92234266D01*
X105508250Y-92245000D01*
X105667000Y-92086250D01*
X105667000Y-91797977D01*
X105689988Y-91754970D01*
X105690000Y-91754930D01*
X105690012Y-91754970D01*
X105713000Y-91797977D01*
X105713000Y-92086250D01*
X105871750Y-92245000D01*
X105972013Y-92234266D01*
X106091264Y-92196517D01*
X106190000Y-92142202D01*
X106288736Y-92196517D01*
X106407987Y-92234266D01*
X106508250Y-92245000D01*
X106667000Y-92086250D01*
X106667000Y-91797977D01*
X106689988Y-91754970D01*
X106690000Y-91754930D01*
X106690012Y-91754970D01*
X106713000Y-91797977D01*
X106713000Y-92086250D01*
X106871750Y-92245000D01*
X106972013Y-92234266D01*
X107091264Y-92196517D01*
X107190000Y-92142202D01*
X107288736Y-92196517D01*
X107407987Y-92234266D01*
X107508250Y-92245000D01*
X107667000Y-92086250D01*
X107667000Y-91797977D01*
X107689988Y-91754970D01*
X107690000Y-91754930D01*
X107690012Y-91754970D01*
X107713000Y-91797977D01*
X107713000Y-92086250D01*
X107871750Y-92245000D01*
X107972013Y-92234266D01*
X108091264Y-92196517D01*
X108190000Y-92142202D01*
X108288736Y-92196517D01*
X108407987Y-92234266D01*
X108508250Y-92245000D01*
X108667000Y-92086250D01*
X108667000Y-91797977D01*
X108689988Y-91754970D01*
X108690000Y-91754930D01*
X108690012Y-91754970D01*
X108713000Y-91797977D01*
X108713000Y-92086250D01*
X108871750Y-92245000D01*
X108972013Y-92234266D01*
X109091264Y-92196517D01*
X109200860Y-92136228D01*
X109296588Y-92055716D01*
X109343650Y-91996941D01*
X109380349Y-92181442D01*
X109463420Y-92381993D01*
X109584021Y-92562484D01*
X109737516Y-92715979D01*
X109918007Y-92836580D01*
X110118558Y-92919651D01*
X110331462Y-92962000D01*
X110548538Y-92962000D01*
X110761442Y-92919651D01*
X110801624Y-92903007D01*
X111137612Y-92903007D01*
X111915000Y-93680395D01*
X112692388Y-92903007D01*
X112626863Y-92664140D01*
X112379884Y-92548240D01*
X112115040Y-92482750D01*
X111842508Y-92470188D01*
X111572762Y-92511035D01*
X111316168Y-92603723D01*
X111203137Y-92664140D01*
X111137612Y-92903007D01*
X110801624Y-92903007D01*
X110961993Y-92836580D01*
X111142484Y-92715979D01*
X111295979Y-92562484D01*
X111416580Y-92381993D01*
X111499651Y-92181442D01*
X111542000Y-91968538D01*
X111542000Y-91751462D01*
X111499651Y-91538558D01*
X111416580Y-91338007D01*
X111295979Y-91157516D01*
X111142484Y-91004021D01*
X110961993Y-90883420D01*
X110761442Y-90800349D01*
X110548538Y-90758000D01*
X110331462Y-90758000D01*
X110118558Y-90800349D01*
X109918007Y-90883420D01*
X109737516Y-91004021D01*
X109722000Y-91019537D01*
X109722000Y-90165347D01*
X109718824Y-90133099D01*
X109718824Y-89610000D01*
X109711545Y-89536095D01*
X109692000Y-89471663D01*
X109692000Y-86243867D01*
X109693650Y-86227117D01*
X109715275Y-86118402D01*
X109715275Y-85981598D01*
X109688585Y-85847422D01*
X109636233Y-85721031D01*
X109560228Y-85607282D01*
X109463493Y-85510547D01*
X109349744Y-85434542D01*
X109223353Y-85382190D01*
X109089177Y-85355500D01*
X108952373Y-85355500D01*
X108818197Y-85382190D01*
X108691806Y-85434542D01*
X108578057Y-85510547D01*
X108510388Y-85578217D01*
X108442718Y-85510547D01*
X108328969Y-85434542D01*
X108202578Y-85382190D01*
X108068402Y-85355500D01*
X107931598Y-85355500D01*
X107797422Y-85382190D01*
X107671031Y-85434542D01*
X107557282Y-85510547D01*
X107500000Y-85567829D01*
X107442718Y-85510547D01*
X107328969Y-85434542D01*
X107202578Y-85382190D01*
X107068402Y-85355500D01*
X106931598Y-85355500D01*
X106797422Y-85382190D01*
X106671031Y-85434542D01*
X106557282Y-85510547D01*
X106500000Y-85567829D01*
X106442718Y-85510547D01*
X106328969Y-85434542D01*
X106202578Y-85382190D01*
X106068402Y-85355500D01*
X105931598Y-85355500D01*
X105797422Y-85382190D01*
X105671031Y-85434542D01*
X105557282Y-85510547D01*
X105500000Y-85567829D01*
X105442718Y-85510547D01*
X105328969Y-85434542D01*
X105202578Y-85382190D01*
X105068402Y-85355500D01*
X104931598Y-85355500D01*
X104797422Y-85382190D01*
X104671031Y-85434542D01*
X104557282Y-85510547D01*
X104500000Y-85567829D01*
X104442718Y-85510547D01*
X104328969Y-85434542D01*
X104202578Y-85382190D01*
X104068402Y-85355500D01*
X103931598Y-85355500D01*
X103797422Y-85382190D01*
X103671031Y-85434542D01*
X103557282Y-85510547D01*
X103500000Y-85567829D01*
X103442718Y-85510547D01*
X103328969Y-85434542D01*
X103202578Y-85382190D01*
X103068402Y-85355500D01*
X102931598Y-85355500D01*
X102797422Y-85382190D01*
X102671031Y-85434542D01*
X102557282Y-85510547D01*
X102500000Y-85567829D01*
X102442718Y-85510547D01*
X102328969Y-85434542D01*
X102202578Y-85382190D01*
X102068402Y-85355500D01*
X101931598Y-85355500D01*
X101797422Y-85382190D01*
X101671031Y-85434542D01*
X101557282Y-85510547D01*
X101500000Y-85567829D01*
X101442718Y-85510547D01*
X101328969Y-85434542D01*
X101202578Y-85382190D01*
X101068402Y-85355500D01*
X100931598Y-85355500D01*
X100797422Y-85382190D01*
X100671031Y-85434542D01*
X100557282Y-85510547D01*
X100500000Y-85567829D01*
X100442718Y-85510547D01*
X100328969Y-85434542D01*
X100202578Y-85382190D01*
X100068402Y-85355500D01*
X99931598Y-85355500D01*
X99797422Y-85382190D01*
X99671031Y-85434542D01*
X99557282Y-85510547D01*
X99460547Y-85607282D01*
X99384542Y-85721031D01*
X99332190Y-85847422D01*
X99305500Y-85981598D01*
X99305500Y-86118402D01*
X99332190Y-86252578D01*
X99384542Y-86378969D01*
X99460547Y-86492718D01*
X99557282Y-86589453D01*
X99671031Y-86665458D01*
X99688000Y-86672487D01*
X99688001Y-88975000D01*
X99562998Y-88975000D01*
X99562998Y-89029748D01*
X99508250Y-88975000D01*
X99407987Y-88985734D01*
X99288736Y-89023483D01*
X99179140Y-89083772D01*
X99083412Y-89164284D01*
X99005230Y-89261924D01*
X98947599Y-89372941D01*
X98912734Y-89493067D01*
X98901974Y-89617688D01*
X98905000Y-90324250D01*
X99063750Y-90483000D01*
X99661176Y-90483000D01*
X99661176Y-90737000D01*
X99063750Y-90737000D01*
X98930411Y-90870339D01*
X98761442Y-90800349D01*
X98548538Y-90758000D01*
X98331462Y-90758000D01*
X98118558Y-90800349D01*
X97918007Y-90883420D01*
X97737516Y-91004021D01*
X97584021Y-91157516D01*
X97463420Y-91338007D01*
X97380349Y-91538558D01*
X97338000Y-91751462D01*
X94926609Y-91751462D01*
X94926609Y-87808524D01*
X94951312Y-87569099D01*
X94981264Y-87320864D01*
X95019934Y-87091568D01*
X95072448Y-86880831D01*
X95143434Y-86686307D01*
X95238548Y-86503090D01*
X95366148Y-86324859D01*
X95537646Y-86146303D01*
X95765724Y-85965170D01*
X96066970Y-85779240D01*
X96238437Y-85690703D01*
X96436191Y-85599729D01*
X96655605Y-85509555D01*
X96897583Y-85420501D01*
X97163059Y-85332833D01*
X97452875Y-85246809D01*
X97767879Y-85162646D01*
X98108957Y-85080528D01*
X98476971Y-85000623D01*
X98872763Y-84923080D01*
X99297208Y-84848032D01*
X99716631Y-84781108D01*
X104425573Y-84796920D01*
G04 #@! TA.AperFunction,Conductor*
D15*
G36*
X104425573Y-84796920D02*
G01*
X104426382Y-84797000D01*
X104449290Y-84797000D01*
X104471626Y-84797075D01*
X104472415Y-84797000D01*
X109182186Y-84797000D01*
X109602409Y-84864052D01*
X110026845Y-84939098D01*
X110422637Y-85016641D01*
X110790641Y-85096544D01*
X111131739Y-85178666D01*
X111446733Y-85262827D01*
X111736549Y-85348851D01*
X112002025Y-85436519D01*
X112243994Y-85525570D01*
X112463398Y-85615739D01*
X112661172Y-85706721D01*
X112832647Y-85795264D01*
X113133880Y-85981185D01*
X113361963Y-86162321D01*
X113533460Y-86340877D01*
X113661060Y-86519108D01*
X113756173Y-86702323D01*
X113827160Y-86896849D01*
X113879674Y-87107586D01*
X113918344Y-87336882D01*
X113948296Y-87585118D01*
X113973001Y-87824553D01*
X113973000Y-98095456D01*
X113948296Y-98334880D01*
X113918344Y-98583117D01*
X113879674Y-98812413D01*
X113827160Y-99023150D01*
X113756173Y-99217676D01*
X113661060Y-99400891D01*
X113533462Y-99579119D01*
X113361963Y-99757678D01*
X113133879Y-99938815D01*
X112832647Y-100124735D01*
X112661172Y-100213278D01*
X112463398Y-100304260D01*
X112243994Y-100394429D01*
X112002025Y-100483480D01*
X111736549Y-100571148D01*
X111446733Y-100657172D01*
X111131739Y-100741333D01*
X110790641Y-100823455D01*
X110422637Y-100903358D01*
X110026845Y-100980901D01*
X109602418Y-101055946D01*
X109182184Y-101123000D01*
X99569203Y-101123000D01*
X99169483Y-101047772D01*
X98758397Y-100963089D01*
X98375021Y-100876564D01*
X98018681Y-100788348D01*
X97688361Y-100698525D01*
X97383421Y-100607298D01*
X97102823Y-100514780D01*
X96845872Y-100421214D01*
X96611601Y-100326784D01*
X96399212Y-100231777D01*
X96207757Y-100136462D01*
X96041670Y-100044146D01*
X95749483Y-99851411D01*
X95527643Y-99664702D01*
X95360079Y-99481152D01*
X95234792Y-99298206D01*
X95141108Y-99110639D01*
X95071122Y-98912443D01*
X95019329Y-98699001D01*
X94981090Y-98467976D01*
X94951303Y-98218855D01*
X94926609Y-97979152D01*
X94926609Y-94816993D01*
X96187612Y-94816993D01*
X96253137Y-95055860D01*
X96500116Y-95171760D01*
X96764960Y-95237250D01*
X97037492Y-95249812D01*
X97307238Y-95208965D01*
X97563832Y-95116277D01*
X97676863Y-95055860D01*
X97742388Y-94816993D01*
X96965000Y-94039605D01*
X96187612Y-94816993D01*
X94926609Y-94816993D01*
X94926609Y-93932492D01*
X95575188Y-93932492D01*
X95616035Y-94202238D01*
X95708723Y-94458832D01*
X95769140Y-94571863D01*
X96008007Y-94637388D01*
X96785395Y-93860000D01*
X97144605Y-93860000D01*
X97921993Y-94637388D01*
X98160860Y-94571863D01*
X98276760Y-94324884D01*
X98342250Y-94060040D01*
X98353420Y-93817688D01*
X98901974Y-93817688D01*
X98905000Y-94524250D01*
X99063750Y-94683000D01*
X99661176Y-94683000D01*
X99661176Y-94937000D01*
X99063750Y-94937000D01*
X98905000Y-95095750D01*
X98901974Y-95802312D01*
X98912734Y-95926933D01*
X98947599Y-96047059D01*
X99005230Y-96158076D01*
X99083412Y-96255716D01*
X99179140Y-96336228D01*
X99288736Y-96396517D01*
X99407987Y-96434266D01*
X99508250Y-96445000D01*
X99562998Y-96390252D01*
X99562998Y-96445000D01*
X99688000Y-96445000D01*
X99688001Y-98895347D01*
X99685573Y-98920000D01*
X99695265Y-99018409D01*
X99723970Y-99113036D01*
X99770584Y-99200245D01*
X99817601Y-99257535D01*
X99817604Y-99257538D01*
X99833317Y-99276684D01*
X99852463Y-99292397D01*
X99998001Y-99437935D01*
X99998001Y-99669828D01*
X99960547Y-99707282D01*
X99884542Y-99821031D01*
X99832190Y-99947422D01*
X99805500Y-100081598D01*
X99805500Y-100218402D01*
X99832190Y-100352578D01*
X99884542Y-100478969D01*
X99960547Y-100592718D01*
X100057282Y-100689453D01*
X100171031Y-100765458D01*
X100297422Y-100817810D01*
X100431598Y-100844500D01*
X100568402Y-100844500D01*
X100702578Y-100817810D01*
X100828969Y-100765458D01*
X100942718Y-100689453D01*
X101000000Y-100632171D01*
X101057282Y-100689453D01*
X101171031Y-100765458D01*
X101297422Y-100817810D01*
X101431598Y-100844500D01*
X101568402Y-100844500D01*
X101702578Y-100817810D01*
X101828969Y-100765458D01*
X101942718Y-100689453D01*
X102000000Y-100632171D01*
X102057282Y-100689453D01*
X102171031Y-100765458D01*
X102297422Y-100817810D01*
X102431598Y-100844500D01*
X102568402Y-100844500D01*
X102702578Y-100817810D01*
X102828969Y-100765458D01*
X102942718Y-100689453D01*
X103000000Y-100632171D01*
X103057282Y-100689453D01*
X103171031Y-100765458D01*
X103297422Y-100817810D01*
X103431598Y-100844500D01*
X103568402Y-100844500D01*
X103702578Y-100817810D01*
X103828969Y-100765458D01*
X103942718Y-100689453D01*
X104000000Y-100632171D01*
X104057282Y-100689453D01*
X104171031Y-100765458D01*
X104297422Y-100817810D01*
X104431598Y-100844500D01*
X104568402Y-100844500D01*
X104702578Y-100817810D01*
X104828969Y-100765458D01*
X104942718Y-100689453D01*
X105000000Y-100632171D01*
X105057282Y-100689453D01*
X105171031Y-100765458D01*
X105297422Y-100817810D01*
X105431598Y-100844500D01*
X105568402Y-100844500D01*
X105702578Y-100817810D01*
X105828969Y-100765458D01*
X105942718Y-100689453D01*
X106000000Y-100632171D01*
X106057282Y-100689453D01*
X106171031Y-100765458D01*
X106297422Y-100817810D01*
X106431598Y-100844500D01*
X106568402Y-100844500D01*
X106702578Y-100817810D01*
X106828969Y-100765458D01*
X106942718Y-100689453D01*
X107000000Y-100632171D01*
X107057282Y-100689453D01*
X107171031Y-100765458D01*
X107297422Y-100817810D01*
X107431598Y-100844500D01*
X107568402Y-100844500D01*
X107702578Y-100817810D01*
X107828969Y-100765458D01*
X107942718Y-100689453D01*
X108000000Y-100632171D01*
X108057282Y-100689453D01*
X108171031Y-100765458D01*
X108297422Y-100817810D01*
X108431598Y-100844500D01*
X108568402Y-100844500D01*
X108702578Y-100817810D01*
X108828969Y-100765458D01*
X108942718Y-100689453D01*
X109000000Y-100632171D01*
X109057282Y-100689453D01*
X109171031Y-100765458D01*
X109297422Y-100817810D01*
X109431598Y-100844500D01*
X109568402Y-100844500D01*
X109702578Y-100817810D01*
X109828969Y-100765458D01*
X109942718Y-100689453D01*
X110039453Y-100592718D01*
X110115458Y-100478969D01*
X110167810Y-100352578D01*
X110194500Y-100218402D01*
X110194500Y-100081598D01*
X110167810Y-99947422D01*
X110115458Y-99821031D01*
X110039453Y-99707282D01*
X110002000Y-99669829D01*
X110002000Y-96824642D01*
X110004427Y-96799999D01*
X110002000Y-96775356D01*
X110002000Y-96775347D01*
X109994736Y-96701591D01*
X109966031Y-96606964D01*
X109919417Y-96519755D01*
X109856684Y-96443316D01*
X109837532Y-96427598D01*
X109692000Y-96282066D01*
X109692000Y-95948337D01*
X109711545Y-95883905D01*
X109718824Y-95810000D01*
X109718824Y-94816993D01*
X111137612Y-94816993D01*
X111203137Y-95055860D01*
X111450116Y-95171760D01*
X111714960Y-95237250D01*
X111987492Y-95249812D01*
X112257238Y-95208965D01*
X112513832Y-95116277D01*
X112626863Y-95055860D01*
X112692388Y-94816993D01*
X111915000Y-94039605D01*
X111137612Y-94816993D01*
X109718824Y-94816993D01*
X109718824Y-93932492D01*
X110525188Y-93932492D01*
X110566035Y-94202238D01*
X110658723Y-94458832D01*
X110719140Y-94571863D01*
X110958007Y-94637388D01*
X111735395Y-93860000D01*
X112094605Y-93860000D01*
X112871993Y-94637388D01*
X113110860Y-94571863D01*
X113226760Y-94324884D01*
X113292250Y-94060040D01*
X113304812Y-93787508D01*
X113263965Y-93517762D01*
X113171277Y-93261168D01*
X113110860Y-93148137D01*
X112871993Y-93082612D01*
X112094605Y-93860000D01*
X111735395Y-93860000D01*
X110958007Y-93082612D01*
X110719140Y-93148137D01*
X110603240Y-93395116D01*
X110537750Y-93659960D01*
X110525188Y-93932492D01*
X109718824Y-93932492D01*
X109718824Y-93810000D01*
X109711545Y-93736095D01*
X109689988Y-93665030D01*
X109654981Y-93599537D01*
X109607869Y-93542131D01*
X109550463Y-93495019D01*
X109484970Y-93460012D01*
X109413905Y-93438455D01*
X109351019Y-93432261D01*
X109296588Y-93364284D01*
X109200860Y-93283772D01*
X109091264Y-93223483D01*
X108972013Y-93185734D01*
X108871750Y-93175000D01*
X108713000Y-93333750D01*
X108713000Y-93622023D01*
X108690012Y-93665030D01*
X108690000Y-93665070D01*
X108689988Y-93665030D01*
X108667000Y-93622023D01*
X108667000Y-93333750D01*
X108508250Y-93175000D01*
X108407987Y-93185734D01*
X108288736Y-93223483D01*
X108190000Y-93277798D01*
X108091264Y-93223483D01*
X107972013Y-93185734D01*
X107871750Y-93175000D01*
X107713000Y-93333750D01*
X107713000Y-93622023D01*
X107690012Y-93665030D01*
X107690000Y-93665070D01*
X107689988Y-93665030D01*
X107667000Y-93622023D01*
X107667000Y-93333750D01*
X107508250Y-93175000D01*
X107407987Y-93185734D01*
X107288736Y-93223483D01*
X107190000Y-93277798D01*
X107091264Y-93223483D01*
X106972013Y-93185734D01*
X106871750Y-93175000D01*
X106713000Y-93333750D01*
X106713000Y-93622023D01*
X106690012Y-93665030D01*
X106690000Y-93665070D01*
X106689988Y-93665030D01*
X106667000Y-93622023D01*
X106667000Y-93333750D01*
X106508250Y-93175000D01*
X106407987Y-93185734D01*
X106288736Y-93223483D01*
X106190000Y-93277798D01*
X106091264Y-93223483D01*
X105972013Y-93185734D01*
X105871750Y-93175000D01*
X105713000Y-93333750D01*
X105713000Y-93622023D01*
X105690012Y-93665030D01*
X105690000Y-93665070D01*
X105689988Y-93665030D01*
X105667000Y-93622023D01*
X105667000Y-93333750D01*
X105508250Y-93175000D01*
X105407987Y-93185734D01*
X105288736Y-93223483D01*
X105190000Y-93277798D01*
X105091264Y-93223483D01*
X104972013Y-93185734D01*
X104871750Y-93175000D01*
X104713000Y-93333750D01*
X104713000Y-93622023D01*
X104690012Y-93665030D01*
X104690000Y-93665070D01*
X104689988Y-93665030D01*
X104667000Y-93622023D01*
X104667000Y-93333750D01*
X104508250Y-93175000D01*
X104407987Y-93185734D01*
X104288736Y-93223483D01*
X104190000Y-93277798D01*
X104091264Y-93223483D01*
X103972013Y-93185734D01*
X103871750Y-93175000D01*
X103713000Y-93333750D01*
X103713000Y-93622023D01*
X103690012Y-93665030D01*
X103690000Y-93665070D01*
X103689988Y-93665030D01*
X103667000Y-93622023D01*
X103667000Y-93333750D01*
X103508250Y-93175000D01*
X103407987Y-93185734D01*
X103288736Y-93223483D01*
X103190000Y-93277798D01*
X103091264Y-93223483D01*
X102972013Y-93185734D01*
X102871750Y-93175000D01*
X102713000Y-93333750D01*
X102713000Y-93622023D01*
X102690012Y-93665030D01*
X102690000Y-93665070D01*
X102689988Y-93665030D01*
X102667000Y-93622023D01*
X102667000Y-93333750D01*
X102508250Y-93175000D01*
X102407987Y-93185734D01*
X102288736Y-93223483D01*
X102190000Y-93277798D01*
X102091264Y-93223483D01*
X101972013Y-93185734D01*
X101871750Y-93175000D01*
X101713000Y-93333750D01*
X101713000Y-93622023D01*
X101690012Y-93665030D01*
X101690000Y-93665070D01*
X101689988Y-93665030D01*
X101667000Y-93622023D01*
X101667000Y-93333750D01*
X101508250Y-93175000D01*
X101407987Y-93185734D01*
X101288736Y-93223483D01*
X101190000Y-93277798D01*
X101091264Y-93223483D01*
X100972013Y-93185734D01*
X100871750Y-93175000D01*
X100713000Y-93333750D01*
X100713000Y-93622023D01*
X100690012Y-93665030D01*
X100690000Y-93665070D01*
X100689988Y-93665030D01*
X100667000Y-93622023D01*
X100667000Y-93333750D01*
X100508250Y-93175000D01*
X100407987Y-93185734D01*
X100288736Y-93223483D01*
X100190000Y-93277798D01*
X100091264Y-93223483D01*
X99972013Y-93185734D01*
X99871750Y-93175000D01*
X99713000Y-93333750D01*
X99713000Y-93622023D01*
X99690012Y-93665030D01*
X99668455Y-93736095D01*
X99667000Y-93750868D01*
X99667000Y-93333750D01*
X99508250Y-93175000D01*
X99407987Y-93185734D01*
X99288736Y-93223483D01*
X99179140Y-93283772D01*
X99083412Y-93364284D01*
X99005230Y-93461924D01*
X98947599Y-93572941D01*
X98912734Y-93693067D01*
X98901974Y-93817688D01*
X98353420Y-93817688D01*
X98354812Y-93787508D01*
X98313965Y-93517762D01*
X98221277Y-93261168D01*
X98160860Y-93148137D01*
X97921993Y-93082612D01*
X97144605Y-93860000D01*
X96785395Y-93860000D01*
X96008007Y-93082612D01*
X95769140Y-93148137D01*
X95653240Y-93395116D01*
X95587750Y-93659960D01*
X95575188Y-93932492D01*
X94926609Y-93932492D01*
X94926609Y-92903007D01*
X96187612Y-92903007D01*
X96965000Y-93680395D01*
X97742388Y-92903007D01*
X97676863Y-92664140D01*
X97429884Y-92548240D01*
X97165040Y-92482750D01*
X96892508Y-92470188D01*
X96622762Y-92511035D01*
X96366168Y-92603723D01*
X96253137Y-92664140D01*
X96187612Y-92903007D01*
X94926609Y-92903007D01*
X94926609Y-91751462D01*
X97338000Y-91751462D01*
X97338000Y-91968538D01*
X97380349Y-92181442D01*
X97463420Y-92381993D01*
X97584021Y-92562484D01*
X97737516Y-92715979D01*
X97918007Y-92836580D01*
X98118558Y-92919651D01*
X98331462Y-92962000D01*
X98548538Y-92962000D01*
X98761442Y-92919651D01*
X98961993Y-92836580D01*
X99142484Y-92715979D01*
X99295979Y-92562484D01*
X99416580Y-92381993D01*
X99474807Y-92241420D01*
X99508250Y-92245000D01*
X99667000Y-92086250D01*
X99667000Y-91669132D01*
X99668455Y-91683905D01*
X99690012Y-91754970D01*
X99713000Y-91797977D01*
X99713000Y-92086250D01*
X99871750Y-92245000D01*
X99972013Y-92234266D01*
X100091264Y-92196517D01*
X100190000Y-92142202D01*
X100288736Y-92196517D01*
X100407987Y-92234266D01*
X100508250Y-92245000D01*
X100667000Y-92086250D01*
X100667000Y-91797977D01*
X100689988Y-91754970D01*
X100690000Y-91754930D01*
X100690012Y-91754970D01*
X100713000Y-91797977D01*
X100713000Y-92086250D01*
X100871750Y-92245000D01*
X100972013Y-92234266D01*
X101091264Y-92196517D01*
X101190000Y-92142202D01*
X101288736Y-92196517D01*
X101407987Y-92234266D01*
X101508250Y-92245000D01*
X101667000Y-92086250D01*
X101667000Y-91797977D01*
X101689988Y-91754970D01*
X101690000Y-91754930D01*
X101690012Y-91754970D01*
X101713000Y-91797977D01*
X101713000Y-92086250D01*
X101871750Y-92245000D01*
X101972013Y-92234266D01*
X102091264Y-92196517D01*
X102190000Y-92142202D01*
X102288736Y-92196517D01*
X102407987Y-92234266D01*
X102508250Y-92245000D01*
X102667000Y-92086250D01*
X102667000Y-91797977D01*
X102689988Y-91754970D01*
X102690000Y-91754930D01*
X102690012Y-91754970D01*
X102713000Y-91797977D01*
X102713000Y-92086250D01*
X102871750Y-92245000D01*
X102972013Y-92234266D01*
X103091264Y-92196517D01*
X103190000Y-92142202D01*
X103288736Y-92196517D01*
X103407987Y-92234266D01*
X103508250Y-92245000D01*
X103667000Y-92086250D01*
X103667000Y-91797977D01*
X103689988Y-91754970D01*
X103690000Y-91754930D01*
X103690012Y-91754970D01*
X103713000Y-91797977D01*
X103713000Y-92086250D01*
X103871750Y-92245000D01*
X103972013Y-92234266D01*
X104091264Y-92196517D01*
X104190000Y-92142202D01*
X104288736Y-92196517D01*
X104407987Y-92234266D01*
X104508250Y-92245000D01*
X104667000Y-92086250D01*
X104667000Y-91797977D01*
X104689988Y-91754970D01*
X104690000Y-91754930D01*
X104690012Y-91754970D01*
X104713000Y-91797977D01*
X104713000Y-92086250D01*
X104871750Y-92245000D01*
X104972013Y-92234266D01*
X105091264Y-92196517D01*
X105190000Y-92142202D01*
X105288736Y-92196517D01*
X105407987Y-92234266D01*
X105508250Y-92245000D01*
X105667000Y-92086250D01*
X105667000Y-91797977D01*
X105689988Y-91754970D01*
X105690000Y-91754930D01*
X105690012Y-91754970D01*
X105713000Y-91797977D01*
X105713000Y-92086250D01*
X105871750Y-92245000D01*
X105972013Y-92234266D01*
X106091264Y-92196517D01*
X106190000Y-92142202D01*
X106288736Y-92196517D01*
X106407987Y-92234266D01*
X106508250Y-92245000D01*
X106667000Y-92086250D01*
X106667000Y-91797977D01*
X106689988Y-91754970D01*
X106690000Y-91754930D01*
X106690012Y-91754970D01*
X106713000Y-91797977D01*
X106713000Y-92086250D01*
X106871750Y-92245000D01*
X106972013Y-92234266D01*
X107091264Y-92196517D01*
X107190000Y-92142202D01*
X107288736Y-92196517D01*
X107407987Y-92234266D01*
X107508250Y-92245000D01*
X107667000Y-92086250D01*
X107667000Y-91797977D01*
X107689988Y-91754970D01*
X107690000Y-91754930D01*
X107690012Y-91754970D01*
X107713000Y-91797977D01*
X107713000Y-92086250D01*
X107871750Y-92245000D01*
X107972013Y-92234266D01*
X108091264Y-92196517D01*
X108190000Y-92142202D01*
X108288736Y-92196517D01*
X108407987Y-92234266D01*
X108508250Y-92245000D01*
X108667000Y-92086250D01*
X108667000Y-91797977D01*
X108689988Y-91754970D01*
X108690000Y-91754930D01*
X108690012Y-91754970D01*
X108713000Y-91797977D01*
X108713000Y-92086250D01*
X108871750Y-92245000D01*
X108972013Y-92234266D01*
X109091264Y-92196517D01*
X109200860Y-92136228D01*
X109296588Y-92055716D01*
X109343650Y-91996941D01*
X109380349Y-92181442D01*
X109463420Y-92381993D01*
X109584021Y-92562484D01*
X109737516Y-92715979D01*
X109918007Y-92836580D01*
X110118558Y-92919651D01*
X110331462Y-92962000D01*
X110548538Y-92962000D01*
X110761442Y-92919651D01*
X110801624Y-92903007D01*
X111137612Y-92903007D01*
X111915000Y-93680395D01*
X112692388Y-92903007D01*
X112626863Y-92664140D01*
X112379884Y-92548240D01*
X112115040Y-92482750D01*
X111842508Y-92470188D01*
X111572762Y-92511035D01*
X111316168Y-92603723D01*
X111203137Y-92664140D01*
X111137612Y-92903007D01*
X110801624Y-92903007D01*
X110961993Y-92836580D01*
X111142484Y-92715979D01*
X111295979Y-92562484D01*
X111416580Y-92381993D01*
X111499651Y-92181442D01*
X111542000Y-91968538D01*
X111542000Y-91751462D01*
X111499651Y-91538558D01*
X111416580Y-91338007D01*
X111295979Y-91157516D01*
X111142484Y-91004021D01*
X110961993Y-90883420D01*
X110761442Y-90800349D01*
X110548538Y-90758000D01*
X110331462Y-90758000D01*
X110118558Y-90800349D01*
X109918007Y-90883420D01*
X109737516Y-91004021D01*
X109722000Y-91019537D01*
X109722000Y-90165347D01*
X109718824Y-90133099D01*
X109718824Y-89610000D01*
X109711545Y-89536095D01*
X109692000Y-89471663D01*
X109692000Y-86243867D01*
X109693650Y-86227117D01*
X109715275Y-86118402D01*
X109715275Y-85981598D01*
X109688585Y-85847422D01*
X109636233Y-85721031D01*
X109560228Y-85607282D01*
X109463493Y-85510547D01*
X109349744Y-85434542D01*
X109223353Y-85382190D01*
X109089177Y-85355500D01*
X108952373Y-85355500D01*
X108818197Y-85382190D01*
X108691806Y-85434542D01*
X108578057Y-85510547D01*
X108510388Y-85578217D01*
X108442718Y-85510547D01*
X108328969Y-85434542D01*
X108202578Y-85382190D01*
X108068402Y-85355500D01*
X107931598Y-85355500D01*
X107797422Y-85382190D01*
X107671031Y-85434542D01*
X107557282Y-85510547D01*
X107500000Y-85567829D01*
X107442718Y-85510547D01*
X107328969Y-85434542D01*
X107202578Y-85382190D01*
X107068402Y-85355500D01*
X106931598Y-85355500D01*
X106797422Y-85382190D01*
X106671031Y-85434542D01*
X106557282Y-85510547D01*
X106500000Y-85567829D01*
X106442718Y-85510547D01*
X106328969Y-85434542D01*
X106202578Y-85382190D01*
X106068402Y-85355500D01*
X105931598Y-85355500D01*
X105797422Y-85382190D01*
X105671031Y-85434542D01*
X105557282Y-85510547D01*
X105500000Y-85567829D01*
X105442718Y-85510547D01*
X105328969Y-85434542D01*
X105202578Y-85382190D01*
X105068402Y-85355500D01*
X104931598Y-85355500D01*
X104797422Y-85382190D01*
X104671031Y-85434542D01*
X104557282Y-85510547D01*
X104500000Y-85567829D01*
X104442718Y-85510547D01*
X104328969Y-85434542D01*
X104202578Y-85382190D01*
X104068402Y-85355500D01*
X103931598Y-85355500D01*
X103797422Y-85382190D01*
X103671031Y-85434542D01*
X103557282Y-85510547D01*
X103500000Y-85567829D01*
X103442718Y-85510547D01*
X103328969Y-85434542D01*
X103202578Y-85382190D01*
X103068402Y-85355500D01*
X102931598Y-85355500D01*
X102797422Y-85382190D01*
X102671031Y-85434542D01*
X102557282Y-85510547D01*
X102500000Y-85567829D01*
X102442718Y-85510547D01*
X102328969Y-85434542D01*
X102202578Y-85382190D01*
X102068402Y-85355500D01*
X101931598Y-85355500D01*
X101797422Y-85382190D01*
X101671031Y-85434542D01*
X101557282Y-85510547D01*
X101500000Y-85567829D01*
X101442718Y-85510547D01*
X101328969Y-85434542D01*
X101202578Y-85382190D01*
X101068402Y-85355500D01*
X100931598Y-85355500D01*
X100797422Y-85382190D01*
X100671031Y-85434542D01*
X100557282Y-85510547D01*
X100500000Y-85567829D01*
X100442718Y-85510547D01*
X100328969Y-85434542D01*
X100202578Y-85382190D01*
X100068402Y-85355500D01*
X99931598Y-85355500D01*
X99797422Y-85382190D01*
X99671031Y-85434542D01*
X99557282Y-85510547D01*
X99460547Y-85607282D01*
X99384542Y-85721031D01*
X99332190Y-85847422D01*
X99305500Y-85981598D01*
X99305500Y-86118402D01*
X99332190Y-86252578D01*
X99384542Y-86378969D01*
X99460547Y-86492718D01*
X99557282Y-86589453D01*
X99671031Y-86665458D01*
X99688000Y-86672487D01*
X99688001Y-88975000D01*
X99562998Y-88975000D01*
X99562998Y-89029748D01*
X99508250Y-88975000D01*
X99407987Y-88985734D01*
X99288736Y-89023483D01*
X99179140Y-89083772D01*
X99083412Y-89164284D01*
X99005230Y-89261924D01*
X98947599Y-89372941D01*
X98912734Y-89493067D01*
X98901974Y-89617688D01*
X98905000Y-90324250D01*
X99063750Y-90483000D01*
X99661176Y-90483000D01*
X99661176Y-90737000D01*
X99063750Y-90737000D01*
X98930411Y-90870339D01*
X98761442Y-90800349D01*
X98548538Y-90758000D01*
X98331462Y-90758000D01*
X98118558Y-90800349D01*
X97918007Y-90883420D01*
X97737516Y-91004021D01*
X97584021Y-91157516D01*
X97463420Y-91338007D01*
X97380349Y-91538558D01*
X97338000Y-91751462D01*
X94926609Y-91751462D01*
X94926609Y-87808524D01*
X94951312Y-87569099D01*
X94981264Y-87320864D01*
X95019934Y-87091568D01*
X95072448Y-86880831D01*
X95143434Y-86686307D01*
X95238548Y-86503090D01*
X95366148Y-86324859D01*
X95537646Y-86146303D01*
X95765724Y-85965170D01*
X96066970Y-85779240D01*
X96238437Y-85690703D01*
X96436191Y-85599729D01*
X96655605Y-85509555D01*
X96897583Y-85420501D01*
X97163059Y-85332833D01*
X97452875Y-85246809D01*
X97767879Y-85162646D01*
X98108957Y-85080528D01*
X98476971Y-85000623D01*
X98872763Y-84923080D01*
X99297208Y-84848032D01*
X99716631Y-84781108D01*
X104425573Y-84796920D01*
G37*
G04 #@! TD.AperFunction*
M02*
