G04 #@! TF.GenerationSoftware,KiCad,Pcbnew,(5.1.9)-1*
G04 #@! TF.CreationDate,2021-05-17T15:52:18-06:00*
G04 #@! TF.ProjectId,Igloo16,49676c6f-6f31-4362-9e6b-696361645f70,rev?*
G04 #@! TF.SameCoordinates,Original*
G04 #@! TF.FileFunction,Soldermask,Top*
G04 #@! TF.FilePolarity,Negative*
%FSLAX46Y46*%
G04 Gerber Fmt 4.6, Leading zero omitted, Abs format (unit mm)*
G04 Created by KiCad (PCBNEW (5.1.9)-1) date 2021-05-17 15:52:18*
%MOMM*%
%LPD*%
G01*
G04 APERTURE LIST*
%ADD10C,0.100000*%
%ADD11C,1.602000*%
%ADD12C,1.552000*%
G04 APERTURE END LIST*
D10*
G36*
X114000000Y-97490000D02*
G01*
X95000000Y-97490000D01*
X95000000Y-88600000D01*
X114000000Y-88600000D01*
X114000000Y-97490000D01*
G37*
X114000000Y-97490000D02*
X95000000Y-97490000D01*
X95000000Y-88600000D01*
X114000000Y-88600000D01*
X114000000Y-97490000D01*
G36*
X110000000Y-86550000D02*
G01*
X99000000Y-86550000D01*
X99000000Y-85400000D01*
X110000000Y-85400000D01*
X110000000Y-86550000D01*
G37*
X110000000Y-86550000D02*
X99000000Y-86550000D01*
X99000000Y-85400000D01*
X110000000Y-85400000D01*
X110000000Y-86550000D01*
G36*
X110600000Y-100500000D02*
G01*
X98600000Y-100500000D01*
X98600000Y-98900000D01*
X110600000Y-98900000D01*
X110600000Y-100500000D01*
G37*
X110600000Y-100500000D02*
X98600000Y-100500000D01*
X98600000Y-98900000D01*
X110600000Y-98900000D01*
X110600000Y-100500000D01*
G36*
X114000000Y-97490000D02*
G01*
X95000000Y-97490000D01*
X95000000Y-88600000D01*
X114000000Y-88600000D01*
X114000000Y-97490000D01*
G37*
X114000000Y-97490000D02*
X95000000Y-97490000D01*
X95000000Y-88600000D01*
X114000000Y-88600000D01*
X114000000Y-97490000D01*
G36*
X110000000Y-86550000D02*
G01*
X99000000Y-86550000D01*
X99000000Y-85400000D01*
X110000000Y-85400000D01*
X110000000Y-86550000D01*
G37*
X110000000Y-86550000D02*
X99000000Y-86550000D01*
X99000000Y-85400000D01*
X110000000Y-85400000D01*
X110000000Y-86550000D01*
G36*
X110600000Y-100500000D02*
G01*
X98600000Y-100500000D01*
X98600000Y-98900000D01*
X110600000Y-98900000D01*
X110600000Y-100500000D01*
G37*
X110600000Y-100500000D02*
X98600000Y-100500000D01*
X98600000Y-98900000D01*
X110600000Y-98900000D01*
X110600000Y-100500000D01*
G36*
G01*
X109963500Y-86715000D02*
X109963500Y-87985000D01*
G75*
G02*
X109912500Y-88036000I-51000J0D01*
G01*
X109531500Y-88036000D01*
G75*
G02*
X109480500Y-87985000I0J51000D01*
G01*
X109480500Y-86715000D01*
G75*
G02*
X109531500Y-86664000I51000J0D01*
G01*
X109912500Y-86664000D01*
G75*
G02*
X109963500Y-86715000I0J-51000D01*
G01*
G37*
G36*
G01*
X108820500Y-86715000D02*
X108820500Y-87985000D01*
G75*
G02*
X108769500Y-88036000I-51000J0D01*
G01*
X108388500Y-88036000D01*
G75*
G02*
X108337500Y-87985000I0J51000D01*
G01*
X108337500Y-86715000D01*
G75*
G02*
X108388500Y-86664000I51000J0D01*
G01*
X108769500Y-86664000D01*
G75*
G02*
X108820500Y-86715000I0J-51000D01*
G01*
G37*
G36*
G01*
X107677500Y-86715000D02*
X107677500Y-87985000D01*
G75*
G02*
X107626500Y-88036000I-51000J0D01*
G01*
X107245500Y-88036000D01*
G75*
G02*
X107194500Y-87985000I0J51000D01*
G01*
X107194500Y-86715000D01*
G75*
G02*
X107245500Y-86664000I51000J0D01*
G01*
X107626500Y-86664000D01*
G75*
G02*
X107677500Y-86715000I0J-51000D01*
G01*
G37*
G36*
G01*
X106534500Y-86715000D02*
X106534500Y-87985000D01*
G75*
G02*
X106483500Y-88036000I-51000J0D01*
G01*
X106102500Y-88036000D01*
G75*
G02*
X106051500Y-87985000I0J51000D01*
G01*
X106051500Y-86715000D01*
G75*
G02*
X106102500Y-86664000I51000J0D01*
G01*
X106483500Y-86664000D01*
G75*
G02*
X106534500Y-86715000I0J-51000D01*
G01*
G37*
G36*
G01*
X105391500Y-86715000D02*
X105391500Y-87985000D01*
G75*
G02*
X105340500Y-88036000I-51000J0D01*
G01*
X104959500Y-88036000D01*
G75*
G02*
X104908500Y-87985000I0J51000D01*
G01*
X104908500Y-86715000D01*
G75*
G02*
X104959500Y-86664000I51000J0D01*
G01*
X105340500Y-86664000D01*
G75*
G02*
X105391500Y-86715000I0J-51000D01*
G01*
G37*
G36*
G01*
X104248500Y-86715000D02*
X104248500Y-87985000D01*
G75*
G02*
X104197500Y-88036000I-51000J0D01*
G01*
X103816500Y-88036000D01*
G75*
G02*
X103765500Y-87985000I0J51000D01*
G01*
X103765500Y-86715000D01*
G75*
G02*
X103816500Y-86664000I51000J0D01*
G01*
X104197500Y-86664000D01*
G75*
G02*
X104248500Y-86715000I0J-51000D01*
G01*
G37*
G36*
G01*
X103105500Y-86715000D02*
X103105500Y-87985000D01*
G75*
G02*
X103054500Y-88036000I-51000J0D01*
G01*
X102673500Y-88036000D01*
G75*
G02*
X102622500Y-87985000I0J51000D01*
G01*
X102622500Y-86715000D01*
G75*
G02*
X102673500Y-86664000I51000J0D01*
G01*
X103054500Y-86664000D01*
G75*
G02*
X103105500Y-86715000I0J-51000D01*
G01*
G37*
G36*
G01*
X101962500Y-86715000D02*
X101962500Y-87985000D01*
G75*
G02*
X101911500Y-88036000I-51000J0D01*
G01*
X101530500Y-88036000D01*
G75*
G02*
X101479500Y-87985000I0J51000D01*
G01*
X101479500Y-86715000D01*
G75*
G02*
X101530500Y-86664000I51000J0D01*
G01*
X101911500Y-86664000D01*
G75*
G02*
X101962500Y-86715000I0J-51000D01*
G01*
G37*
G36*
G01*
X100819500Y-86715000D02*
X100819500Y-87985000D01*
G75*
G02*
X100768500Y-88036000I-51000J0D01*
G01*
X100387500Y-88036000D01*
G75*
G02*
X100336500Y-87985000I0J51000D01*
G01*
X100336500Y-86715000D01*
G75*
G02*
X100387500Y-86664000I51000J0D01*
G01*
X100768500Y-86664000D01*
G75*
G02*
X100819500Y-86715000I0J-51000D01*
G01*
G37*
G36*
G01*
X99676500Y-86715000D02*
X99676500Y-87985000D01*
G75*
G02*
X99625500Y-88036000I-51000J0D01*
G01*
X99244500Y-88036000D01*
G75*
G02*
X99193500Y-87985000I0J51000D01*
G01*
X99193500Y-86715000D01*
G75*
G02*
X99244500Y-86664000I51000J0D01*
G01*
X99625500Y-86664000D01*
G75*
G02*
X99676500Y-86715000I0J-51000D01*
G01*
G37*
G36*
G01*
X99193500Y-99335000D02*
X99193500Y-98065000D01*
G75*
G02*
X99244500Y-98014000I51000J0D01*
G01*
X99625500Y-98014000D01*
G75*
G02*
X99676500Y-98065000I0J-51000D01*
G01*
X99676500Y-99335000D01*
G75*
G02*
X99625500Y-99386000I-51000J0D01*
G01*
X99244500Y-99386000D01*
G75*
G02*
X99193500Y-99335000I0J51000D01*
G01*
G37*
G36*
G01*
X100336500Y-99335000D02*
X100336500Y-98065000D01*
G75*
G02*
X100387500Y-98014000I51000J0D01*
G01*
X100768500Y-98014000D01*
G75*
G02*
X100819500Y-98065000I0J-51000D01*
G01*
X100819500Y-99335000D01*
G75*
G02*
X100768500Y-99386000I-51000J0D01*
G01*
X100387500Y-99386000D01*
G75*
G02*
X100336500Y-99335000I0J51000D01*
G01*
G37*
G36*
G01*
X101479500Y-99335000D02*
X101479500Y-98065000D01*
G75*
G02*
X101530500Y-98014000I51000J0D01*
G01*
X101911500Y-98014000D01*
G75*
G02*
X101962500Y-98065000I0J-51000D01*
G01*
X101962500Y-99335000D01*
G75*
G02*
X101911500Y-99386000I-51000J0D01*
G01*
X101530500Y-99386000D01*
G75*
G02*
X101479500Y-99335000I0J51000D01*
G01*
G37*
G36*
G01*
X102622500Y-99335000D02*
X102622500Y-98065000D01*
G75*
G02*
X102673500Y-98014000I51000J0D01*
G01*
X103054500Y-98014000D01*
G75*
G02*
X103105500Y-98065000I0J-51000D01*
G01*
X103105500Y-99335000D01*
G75*
G02*
X103054500Y-99386000I-51000J0D01*
G01*
X102673500Y-99386000D01*
G75*
G02*
X102622500Y-99335000I0J51000D01*
G01*
G37*
G36*
G01*
X103765500Y-99335000D02*
X103765500Y-98065000D01*
G75*
G02*
X103816500Y-98014000I51000J0D01*
G01*
X104197500Y-98014000D01*
G75*
G02*
X104248500Y-98065000I0J-51000D01*
G01*
X104248500Y-99335000D01*
G75*
G02*
X104197500Y-99386000I-51000J0D01*
G01*
X103816500Y-99386000D01*
G75*
G02*
X103765500Y-99335000I0J51000D01*
G01*
G37*
G36*
G01*
X104908500Y-99335000D02*
X104908500Y-98065000D01*
G75*
G02*
X104959500Y-98014000I51000J0D01*
G01*
X105340500Y-98014000D01*
G75*
G02*
X105391500Y-98065000I0J-51000D01*
G01*
X105391500Y-99335000D01*
G75*
G02*
X105340500Y-99386000I-51000J0D01*
G01*
X104959500Y-99386000D01*
G75*
G02*
X104908500Y-99335000I0J51000D01*
G01*
G37*
G36*
G01*
X106051500Y-99335000D02*
X106051500Y-98065000D01*
G75*
G02*
X106102500Y-98014000I51000J0D01*
G01*
X106483500Y-98014000D01*
G75*
G02*
X106534500Y-98065000I0J-51000D01*
G01*
X106534500Y-99335000D01*
G75*
G02*
X106483500Y-99386000I-51000J0D01*
G01*
X106102500Y-99386000D01*
G75*
G02*
X106051500Y-99335000I0J51000D01*
G01*
G37*
G36*
G01*
X107194500Y-99335000D02*
X107194500Y-98065000D01*
G75*
G02*
X107245500Y-98014000I51000J0D01*
G01*
X107626500Y-98014000D01*
G75*
G02*
X107677500Y-98065000I0J-51000D01*
G01*
X107677500Y-99335000D01*
G75*
G02*
X107626500Y-99386000I-51000J0D01*
G01*
X107245500Y-99386000D01*
G75*
G02*
X107194500Y-99335000I0J51000D01*
G01*
G37*
G36*
G01*
X108337500Y-99335000D02*
X108337500Y-98065000D01*
G75*
G02*
X108388500Y-98014000I51000J0D01*
G01*
X108769500Y-98014000D01*
G75*
G02*
X108820500Y-98065000I0J-51000D01*
G01*
X108820500Y-99335000D01*
G75*
G02*
X108769500Y-99386000I-51000J0D01*
G01*
X108388500Y-99386000D01*
G75*
G02*
X108337500Y-99335000I0J51000D01*
G01*
G37*
G36*
G01*
X109480500Y-99335000D02*
X109480500Y-98065000D01*
G75*
G02*
X109531500Y-98014000I51000J0D01*
G01*
X109912500Y-98014000D01*
G75*
G02*
X109963500Y-98065000I0J-51000D01*
G01*
X109963500Y-99335000D01*
G75*
G02*
X109912500Y-99386000I-51000J0D01*
G01*
X109531500Y-99386000D01*
G75*
G02*
X109480500Y-99335000I0J51000D01*
G01*
G37*
D11*
X111915000Y-93860000D03*
X96965000Y-93860000D03*
D12*
X110440000Y-91860000D03*
X98440000Y-91860000D03*
M02*
