M48
; DRILL file {KiCad 7.0.2} date Wed Oct  4 16:53:15 2023
; FORMAT={-:-/ absolute / inch / decimal}
; #@! TF.CreationDate,2023-10-04T16:53:15-06:00
; #@! TF.GenerationSoftware,Kicad,Pcbnew,7.0.2
; #@! TF.FileFunction,Plated,1,2,PTH
FMAT,2
INCH
; #@! TA.AperFunction,Plated,PTH,ViaDrill
T1C0.0118
; #@! TA.AperFunction,Plated,PTH,ComponentDrill
T2C0.0394
%
G90
G05
T1
X-0.4331Y0.2042
X-0.4331Y0.1592
X-0.4331Y0.1142
X-0.4331Y0.0692
X-0.4331Y0.0242
X-0.4331Y-0.0208
X-0.4331Y-0.0658
X-0.4331Y-0.1108
X-0.4331Y-0.1558
X-0.4331Y-0.2008
X-0.218Y0.0841
X-0.1476Y0.0
X0.189Y-0.0157
X0.4331Y0.2008
X0.4331Y0.1592
X0.4331Y0.1142
X0.4331Y0.0692
X0.4331Y0.0242
X0.4331Y-0.0208
X0.4331Y-0.0658
X0.4331Y-0.1108
X0.4331Y-0.1558
X0.4331Y-0.2008
T2
X-0.2943Y-0.0453
X0.2943Y-0.0453
T0
M30
